OpenSansRodin.sfdir
StartChar: exclam
Encoding: 33 33 4
Width: 619
VWidth: 2150
GlyphClass: 1
Flags: W
LayerCount: 2
Fore
SplineSet
462 526.049804688 m 1,0,-1
 160.650390625 526.049804688 l 1,1,-1
 107.099609375 1535.09960938 l 1,2,-1
 515.549804688 1535.09960938 l 1,3,-1
 462 526.049804688 l 1,0,-1
107.099609375 162.75 m 0,4,5
 107.099609375 267.75 107.099609375 267.75 166.950195312 310.275390625 c 128,-1,6
 226.799804688 352.799804688 226.799804688 352.799804688 309.75 352.799804688 c 0,7,8
 391.650390625 352.799804688 391.650390625 352.799804688 450.974609375 310.275390625 c 128,-1,9
 510.299804688 267.75 510.299804688 267.75 510.299804688 162.75 c 0,10,11
 510.299804688 61.9501953125 510.299804688 61.9501953125 450.974609375 17.3251953125 c 128,-1,12
 391.650390625 -27.2998046875 391.650390625 -27.2998046875 309.75 -27.2998046875 c 0,13,14
 226.799804688 -27.2998046875 226.799804688 -27.2998046875 166.950195312 17.3251953125 c 128,-1,15
 107.099609375 61.9501953125 107.099609375 61.9501953125 107.099609375 162.75 c 0,4,5
EndSplineSet
Validated: 1
EndChar
StartChar: quotedbl
Encoding: 34 34 5
Width: 1071
VWidth: 2150
GlyphClass: 1
Flags: W
LayerCount: 2
Fore
SplineSet
467.25 1535.09960938 m 1,0,-1
 424.200195312 980.700195312 l 1,1,-1
 176.400390625 980.700195312 l 1,2,-1
 133.349609375 1535.09960938 l 1,3,-1
 467.25 1535.09960938 l 1,0,-1
937.650390625 1535.09960938 m 1,4,-1
 894.599609375 980.700195312 l 1,5,-1
 647.849609375 980.700195312 l 1,6,-1
 604.799804688 1535.09960938 l 1,7,-1
 937.650390625 1535.09960938 l 1,4,-1
EndSplineSet
Validated: 1
EndChar
StartChar: numbersign
Encoding: 35 35 6
Width: 1407
VWidth: 2150
GlyphClass: 1
Flags: W
LayerCount: 2
Fore
SplineSet
1072.04980469 870.450195312 m 1,0,-1
 1031.09960938 660.450195312 l 1,1,-1
 1294.65039062 660.450195312 l 1,2,-1
 1294.65039062 418.950195312 l 1,3,-1
 985.950195312 418.950195312 l 1,4,-1
 907.200195312 0 l 1,5,-1
 651 0 l 1,6,-1
 729.75 418.950195312 l 1,7,-1
 539.700195312 418.950195312 l 1,8,-1
 463.049804688 0 l 1,9,-1
 210 0 l 1,10,-1
 286.650390625 418.950195312 l 1,11,-1
 43.0498046875 418.950195312 l 1,12,-1
 43.0498046875 660.450195312 l 1,13,-1
 332.849609375 660.450195312 l 1,14,-1
 373.799804688 870.450195312 l 1,15,-1
 116.549804688 870.450195312 l 1,16,-1
 116.549804688 1116.15039062 l 1,17,-1
 418.950195312 1116.15039062 l 1,18,-1
 496.650390625 1534.04980469 l 1,19,-1
 752.849609375 1534.04980469 l 1,20,-1
 673.049804688 1116.15039062 l 1,21,-1
 864.150390625 1116.15039062 l 1,22,-1
 942.900390625 1534.04980469 l 1,23,-1
 1197 1534.04980469 l 1,24,-1
 1117.20019531 1116.15039062 l 1,25,-1
 1363.95019531 1116.15039062 l 1,26,-1
 1363.95019531 870.450195312 l 1,27,-1
 1072.04980469 870.450195312 l 1,0,-1
586.950195312 660.450195312 m 1,28,-1
 775.950195312 660.450195312 l 1,29,-1
 816.900390625 870.450195312 l 1,30,-1
 626.849609375 870.450195312 l 1,31,-1
 586.950195312 660.450195312 l 1,28,-1
EndSplineSet
Validated: 1
EndChar
StartChar: parenleft
Encoding: 40 40 11
Width: 750
VWidth: 2150
GlyphClass: 1
Flags: W
LayerCount: 2
Fore
SplineSet
81.900390625 600.599609375 m 0,0,1
 81.900390625 775.950195312 81.900390625 775.950195312 112.875 946.049804688 c 128,-1,2
 143.849609375 1116.15039062 143.849609375 1116.15039062 211.575195312 1271.54980469 c 128,-1,3
 279.299804688 1426.95019531 279.299804688 1426.95019531 387.450195312 1557.15039062 c 1,4,-1
 689.849609375 1557.15039062 l 1,5,6
 543.900390625 1355.54980469 543.900390625 1355.54980469 473.025390625 1106.17480469 c 128,-1,7
 402.150390625 856.799804688 402.150390625 856.799804688 402.150390625 602.700195312 c 0,8,9
 402.150390625 435.75 402.150390625 435.75 433.125 268.799804688 c 128,-1,10
 464.099609375 101.849609375 464.099609375 101.849609375 527.625 -53.025390625 c 128,-1,11
 591.150390625 -207.900390625 591.150390625 -207.900390625 687.75 -340.200195312 c 1,12,-1
 387.450195312 -340.200195312 l 1,13,14
 279.299804688 -214.200195312 279.299804688 -214.200195312 211.575195312 -61.4248046875 c 128,-1,15
 143.849609375 91.349609375 143.849609375 91.349609375 112.875 259.349609375 c 128,-1,16
 81.900390625 427.349609375 81.900390625 427.349609375 81.900390625 600.599609375 c 0,0,1
EndSplineSet
Validated: 1
Substitution2: "'sups' Superscript lookup 20 subtable" uni207D
Substitution2: "'subs' Subscript lookup 19 subtable" uni208D
AlternateSubs2: "'aalt' Access All Alternates lookup 1 subtable" uni207D uni208D
EndChar
StartChar: parenright
Encoding: 41 41 12
Width: 750
VWidth: 2150
GlyphClass: 1
Flags: W
LayerCount: 2
Fore
SplineSet
668.849609375 600.599609375 m 0,0,1
 668.849609375 427.349609375 668.849609375 427.349609375 637.875 259.349609375 c 128,-1,2
 606.900390625 91.349609375 606.900390625 91.349609375 539.700195312 -61.4248046875 c 128,-1,3
 472.5 -214.200195312 472.5 -214.200195312 363.299804688 -340.200195312 c 1,4,-1
 63 -340.200195312 l 1,5,6
 160.650390625 -207.900390625 160.650390625 -207.900390625 223.650390625 -53.025390625 c 128,-1,7
 286.650390625 101.849609375 286.650390625 101.849609375 317.625 268.799804688 c 128,-1,8
 348.599609375 435.75 348.599609375 435.75 348.599609375 602.700195312 c 0,9,10
 348.599609375 772.799804688 348.599609375 772.799804688 317.099609375 940.799804688 c 128,-1,11
 285.599609375 1108.79980469 285.599609375 1108.79980469 222.599609375 1265.77539062 c 128,-1,12
 159.599609375 1422.75 159.599609375 1422.75 60.900390625 1557.15039062 c 1,13,-1
 363.299804688 1557.15039062 l 1,14,15
 472.5 1426.95019531 472.5 1426.95019531 539.700195312 1271.54980469 c 128,-1,16
 606.900390625 1116.15039062 606.900390625 1116.15039062 637.875 946.049804688 c 128,-1,17
 668.849609375 775.950195312 668.849609375 775.950195312 668.849609375 600.599609375 c 0,0,1
EndSplineSet
Validated: 1
Substitution2: "'sups' Superscript lookup 20 subtable" uni207E
Substitution2: "'subs' Subscript lookup 19 subtable" uni208E
AlternateSubs2: "'aalt' Access All Alternates lookup 1 subtable" uni207E uni208E
EndChar
StartChar: plus
Encoding: 43 43 14
Width: 1245
VWidth: 2150
GlyphClass: 1
Flags: W
LayerCount: 2
Fore
SplineSet
749.700195312 886.200195312 m 1,0,-1
 1148.70019531 886.200195312 l 1,1,-1
 1148.70019531 630 l 1,2,-1
 749.700195312 630 l 1,3,-1
 749.700195312 238.349609375 l 1,4,-1
 493.5 238.349609375 l 1,5,-1
 493.5 630 l 1,6,-1
 94.5 630 l 1,7,-1
 94.5 886.200195312 l 1,8,-1
 493.5 886.200195312 l 1,9,-1
 493.5 1283.09960938 l 1,10,-1
 749.700195312 1283.09960938 l 1,11,-1
 749.700195312 886.200195312 l 1,0,-1
EndSplineSet
Validated: 1
Substitution2: "'sups' Superscript lookup 20 subtable" uni207A
Substitution2: "'subs' Subscript lookup 19 subtable" uni208A
AlternateSubs2: "'aalt' Access All Alternates lookup 1 subtable" uni207A uni208A
EndChar
StartChar: period
Encoding: 46 46 17
Width: 617
VWidth: 2150
GlyphClass: 1
Flags: W
LayerCount: 2
Fore
SplineSet
107.099609375 162.75 m 0,0,1
 107.099609375 267.75 107.099609375 267.75 166.950195312 310.275390625 c 128,-1,2
 226.799804688 352.799804688 226.799804688 352.799804688 310.799804688 352.799804688 c 0,3,4
 391.650390625 352.799804688 391.650390625 352.799804688 450.974609375 310.275390625 c 128,-1,5
 510.299804688 267.75 510.299804688 267.75 510.299804688 162.75 c 0,6,7
 510.299804688 61.9501953125 510.299804688 61.9501953125 450.974609375 17.3251953125 c 128,-1,8
 391.650390625 -27.2998046875 391.650390625 -27.2998046875 310.799804688 -27.2998046875 c 0,9,10
 226.799804688 -27.2998046875 226.799804688 -27.2998046875 166.950195312 17.3251953125 c 128,-1,11
 107.099609375 61.9501953125 107.099609375 61.9501953125 107.099609375 162.75 c 0,0,1
EndSplineSet
Validated: 1
EndChar
StartChar: slash
Encoding: 47 47 18
Width: 919
VWidth: 2150
GlyphClass: 1
Flags: W
LayerCount: 2
Fore
SplineSet
912.450195312 1546.65039062 m 1,0,-1
 340.200195312 -10.5 l 1,1,-1
 12.599609375 -10.5 l 1,2,-1
 584.849609375 1546.65039062 l 1,3,-1
 912.450195312 1546.65039062 l 1,0,-1
EndSplineSet
Validated: 1
Substitution2: "'frac' Diagonal Fractions lookup 23 subtable" fraction
Substitution2: "'aalt' Access All Alternates lookup 0 subtable" fraction
EndChar
StartChar: zero
Encoding: 48 48 19
Width: 1245
VWidth: 2150
GlyphClass: 1
Flags: W
LayerCount: 2
Fore
SplineSet
1167.59960938 766.5 m 0,0,1
 1167.59960938 581.700195312 1167.59960938 581.700195312 1138.72460938 435.75 c 128,-1,2
 1109.84960938 289.799804688 1109.84960938 289.799804688 1045.79980469 187.950195312 c 128,-1,3
 981.75 86.099609375 981.75 86.099609375 877.275390625 32.5498046875 c 128,-1,4
 772.799804688 -21 772.799804688 -21 621.599609375 -21 c 0,5,6
 433.650390625 -21 433.650390625 -21 312.900390625 72.974609375 c 128,-1,7
 192.150390625 166.950195312 192.150390625 166.950195312 134.400390625 343.349609375 c 128,-1,8
 76.650390625 519.75 76.650390625 519.75 76.650390625 766.5 c 0,9,10
 76.650390625 1015.34960938 76.650390625 1015.34960938 129.150390625 1192.27539062 c 128,-1,11
 181.650390625 1369.20019531 181.650390625 1369.20019531 301.349609375 1463.70019531 c 128,-1,12
 421.049804688 1558.20019531 421.049804688 1558.20019531 621.599609375 1558.20019531 c 0,13,14
 809.549804688 1558.20019531 809.549804688 1558.20019531 930.299804688 1464.22460938 c 128,-1,15
 1051.04980469 1370.25 1051.04980469 1370.25 1109.32519531 1193.32519531 c 128,-1,16
 1167.59960938 1016.40039062 1167.59960938 1016.40039062 1167.59960938 766.5 c 0,0,1
444.150390625 766.5 m 0,17,18
 444.150390625 603.75 444.150390625 603.75 459.375 494.549804688 c 128,-1,19
 474.599609375 385.349609375 474.599609375 385.349609375 513.450195312 330.224609375 c 128,-1,20
 552.299804688 275.099609375 552.299804688 275.099609375 621.599609375 275.099609375 c 256,21,22
 690.900390625 275.099609375 690.900390625 275.099609375 729.75 329.700195312 c 128,-1,23
 768.599609375 384.299804688 768.599609375 384.299804688 784.349609375 493.5 c 128,-1,24
 800.099609375 602.700195312 800.099609375 602.700195312 800.099609375 766.5 c 256,25,26
 800.099609375 930.299804688 800.099609375 930.299804688 784.349609375 1040.02539062 c 128,-1,27
 768.599609375 1149.75 768.599609375 1149.75 729.75 1205.40039062 c 128,-1,28
 690.900390625 1261.04980469 690.900390625 1261.04980469 621.599609375 1261.04980469 c 256,29,30
 552.299804688 1261.04980469 552.299804688 1261.04980469 513.450195312 1205.40039062 c 128,-1,31
 474.599609375 1149.75 474.599609375 1149.75 459.375 1040.02539062 c 128,-1,32
 444.150390625 930.299804688 444.150390625 930.299804688 444.150390625 766.5 c 0,17,18
EndSplineSet
Validated: 1
Substitution2: "'zero' Slashed Zero lookup 35 subtable" zero.slash
Substitution2: "'onum' Oldstyle Figures lookup 33 subtable" zero.tosf
Substitution2: "'pnum' Proportional Numbers lookup 31 subtable" zero.lf
Substitution2: "'frac' Diagonal Fractions lookup 24 subtable" zero.numr
Substitution2: "'dnom' Denominators lookup 22 subtable" zero.dnom
Substitution2: "'numr' Numerators lookup 21 subtable" zero.numr
Substitution2: "'sups' Superscript lookup 20 subtable" uni2070
Substitution2: "'subs' Subscript lookup 19 subtable" uni2080
AlternateSubs2: "'aalt' Access All Alternates lookup 1 subtable" uni2070 zero.dnom zero.lf zero.numr zero.slash zero.tosf uni2080
EndChar
StartChar: six
Encoding: 54 54 25
Width: 1245
VWidth: 2150
GlyphClass: 1
Flags: W
LayerCount: 2
Fore
SplineSet
74.5498046875 651 m 0,0,1
 74.5498046875 783.299804688 74.5498046875 783.299804688 93.974609375 913.5 c 128,-1,2
 113.400390625 1043.70019531 113.400390625 1043.70019531 162.224609375 1159.20019531 c 128,-1,3
 211.049804688 1274.70019531 211.049804688 1274.70019531 299.775390625 1363.95019531 c 128,-1,4
 388.5 1453.20019531 388.5 1453.20019531 526.575195312 1504.125 c 128,-1,5
 664.650390625 1555.04980469 664.650390625 1555.04980469 862.049804688 1555.04980469 c 0,6,7
 907.200195312 1555.04980469 907.200195312 1555.04980469 969.674804688 1550.84960938 c 128,-1,8
 1032.15039062 1546.65039062 1032.15039062 1546.65039062 1074.15039062 1538.25 c 1,9,-1
 1074.15039062 1246.34960938 l 1,10,11
 1031.09960938 1255.79980469 1031.09960938 1255.79980469 980.700195312 1261.57519531 c 128,-1,12
 930.299804688 1267.34960938 930.299804688 1267.34960938 867.299804688 1267.34960938 c 0,13,14
 694.049804688 1267.34960938 694.049804688 1267.34960938 596.924804688 1213.27539062 c 128,-1,15
 499.799804688 1159.20019531 499.799804688 1159.20019531 458.849609375 1062.07519531 c 128,-1,16
 417.900390625 964.950195312 417.900390625 964.950195312 410.549804688 832.650390625 c 1,17,-1
 424.200195312 832.650390625 l 1,18,19
 452.549804688 883.049804688 452.549804688 883.049804688 494.549804688 923.474609375 c 128,-1,20
 536.549804688 963.900390625 536.549804688 963.900390625 597.450195312 987.525390625 c 128,-1,21
 658.349609375 1011.15039062 658.349609375 1011.15039062 742.349609375 1011.15039062 c 0,22,23
 876.75 1011.15039062 876.75 1011.15039062 974.400390625 953.400390625 c 128,-1,24
 1072.04980469 895.650390625 1072.04980469 895.650390625 1124.54980469 785.924804688 c 128,-1,25
 1177.04980469 676.200195312 1177.04980469 676.200195312 1177.04980469 518.700195312 c 0,26,27
 1177.04980469 349.650390625 1177.04980469 349.650390625 1111.95019531 228.375 c 128,-1,28
 1046.84960938 107.099609375 1046.84960938 107.099609375 927.674804688 43.0498046875 c 128,-1,29
 808.5 -21 808.5 -21 644.700195312 -21 c 0,30,31
 523.950195312 -21 523.950195312 -21 420 19.4248046875 c 128,-1,32
 316.049804688 59.849609375 316.049804688 59.849609375 238.875 142.275390625 c 128,-1,33
 161.700195312 224.700195312 161.700195312 224.700195312 118.125 351.224609375 c 128,-1,34
 74.5498046875 477.75 74.5498046875 477.75 74.5498046875 651 c 0,0,1
636.299804688 273 m 0,35,36
 717.150390625 273 717.150390625 273 768.075195312 330.75 c 128,-1,37
 819 388.5 819 388.5 819 512.400390625 c 0,38,39
 819 612.150390625 819 612.150390625 775.950195312 669.375 c 128,-1,40
 732.900390625 726.599609375 732.900390625 726.599609375 641.549804688 726.599609375 c 0,41,42
 580.650390625 726.599609375 580.650390625 726.599609375 535.5 698.25 c 128,-1,43
 490.349609375 669.900390625 490.349609375 669.900390625 466.200195312 626.325195312 c 128,-1,44
 442.049804688 582.75 442.049804688 582.75 442.049804688 536.549804688 c 0,45,46
 442.049804688 489.299804688 442.049804688 489.299804688 454.125 442.575195312 c 128,-1,47
 466.200195312 395.849609375 466.200195312 395.849609375 490.349609375 358.049804688 c 128,-1,48
 514.5 320.25 514.5 320.25 551.25 296.625 c 128,-1,49
 588 273 588 273 636.299804688 273 c 0,35,36
EndSplineSet
Validated: 1
Substitution2: "'onum' Oldstyle Figures lookup 33 subtable" six.tosf
Substitution2: "'pnum' Proportional Numbers lookup 31 subtable" six.lf
Substitution2: "'frac' Diagonal Fractions lookup 24 subtable" six.numr
Substitution2: "'dnom' Denominators lookup 22 subtable" six.dnom
Substitution2: "'numr' Numerators lookup 21 subtable" six.numr
Substitution2: "'sups' Superscript lookup 20 subtable" uni2076
Substitution2: "'subs' Subscript lookup 19 subtable" uni2086
AlternateSubs2: "'aalt' Access All Alternates lookup 1 subtable" uni2076 six.dnom six.lf six.numr six.tosf uni2086
EndChar
StartChar: nine
Encoding: 57 57 28
Width: 1245
VWidth: 2150
GlyphClass: 1
Flags: W
LayerCount: 2
Fore
SplineSet
1169.70019531 871.5 m 0,0,1
 1169.70019531 722.400390625 1169.70019531 722.400390625 1145.54980469 588.525390625 c 128,-1,2
 1121.40039062 454.650390625 1121.40039062 454.650390625 1067.32519531 343.349609375 c 128,-1,3
 1013.25 232.049804688 1013.25 232.049804688 922.424804688 150.150390625 c 128,-1,4
 831.599609375 68.25 831.599609375 68.25 698.775390625 23.625 c 128,-1,5
 565.950195312 -21 565.950195312 -21 384.299804688 -21 c 0,6,7
 338.099609375 -21 338.099609375 -21 276.674804688 -17.849609375 c 128,-1,8
 215.25 -14.7001953125 215.25 -14.7001953125 173.25 -8.400390625 c 1,9,-1
 173.25 286.650390625 l 1,10,11
 217.349609375 277.200195312 217.349609375 277.200195312 263.549804688 271.950195312 c 128,-1,12
 309.75 266.700195312 309.75 266.700195312 363.299804688 266.700195312 c 0,13,14
 546 266.700195312 546 266.700195312 645.75 321.825195312 c 128,-1,15
 745.5 376.950195312 745.5 376.950195312 786.450195312 475.125 c 128,-1,16
 827.400390625 573.299804688 827.400390625 573.299804688 833.700195312 701.400390625 c 1,17,-1
 821.099609375 701.400390625 l 1,18,19
 791.700195312 649.950195312 791.700195312 649.950195312 751.799804688 609.525390625 c 128,-1,20
 711.900390625 569.099609375 711.900390625 569.099609375 650.474609375 546 c 128,-1,21
 589.049804688 522.900390625 589.049804688 522.900390625 495.599609375 522.900390625 c 0,22,23
 365.400390625 522.900390625 365.400390625 522.900390625 269.325195312 580.650390625 c 128,-1,24
 173.25 638.400390625 173.25 638.400390625 120.75 748.650390625 c 128,-1,25
 68.25 858.900390625 68.25 858.900390625 68.25 1016.40039062 c 0,26,27
 68.25 1185.45019531 68.25 1185.45019531 132.825195312 1305.67480469 c 128,-1,28
 197.400390625 1425.90039062 197.400390625 1425.90039062 317.099609375 1490.47460938 c 128,-1,29
 436.799804688 1555.04980469 436.799804688 1555.04980469 601.650390625 1555.04980469 c 0,30,31
 720.299804688 1555.04980469 720.299804688 1555.04980469 823.200195312 1514.625 c 128,-1,32
 926.099609375 1474.20019531 926.099609375 1474.20019531 1004.32519531 1390.20019531 c 128,-1,33
 1082.54980469 1306.20019531 1082.54980469 1306.20019531 1126.125 1177.04980469 c 128,-1,34
 1169.70019531 1047.90039062 1169.70019531 1047.90039062 1169.70019531 871.5 c 0,0,1
610.049804688 1258.95019531 m 0,35,36
 526.049804688 1258.95019531 526.049804688 1258.95019531 476.174804688 1201.72460938 c 128,-1,37
 426.299804688 1144.5 426.299804688 1144.5 426.299804688 1020.59960938 c 0,38,39
 426.299804688 921.900390625 426.299804688 921.900390625 470.924804688 864.150390625 c 128,-1,40
 515.549804688 806.400390625 515.549804688 806.400390625 604.799804688 806.400390625 c 0,41,42
 663.599609375 806.400390625 663.599609375 806.400390625 708.224609375 834.75 c 128,-1,43
 752.849609375 863.099609375 752.849609375 863.099609375 777.525390625 906.674804688 c 128,-1,44
 802.200195312 950.25 802.200195312 950.25 802.200195312 996.450195312 c 0,45,46
 802.200195312 1043.70019531 802.200195312 1043.70019531 790.650390625 1090.42480469 c 128,-1,47
 779.099609375 1137.15039062 779.099609375 1137.15039062 754.950195312 1174.95019531 c 128,-1,48
 730.799804688 1212.75 730.799804688 1212.75 694.575195312 1235.84960938 c 128,-1,49
 658.349609375 1258.95019531 658.349609375 1258.95019531 610.049804688 1258.95019531 c 0,35,36
EndSplineSet
Validated: 1
Substitution2: "'onum' Oldstyle Figures lookup 33 subtable" nine.tosf
Substitution2: "'pnum' Proportional Numbers lookup 31 subtable" nine.lf
Substitution2: "'frac' Diagonal Fractions lookup 24 subtable" nine.numr
Substitution2: "'dnom' Denominators lookup 22 subtable" nine.dnom
Substitution2: "'numr' Numerators lookup 21 subtable" nine.numr
Substitution2: "'sups' Superscript lookup 20 subtable" uni2079
Substitution2: "'subs' Subscript lookup 19 subtable" uni2089
AlternateSubs2: "'aalt' Access All Alternates lookup 1 subtable" uni2079 nine.dnom nine.lf nine.numr nine.tosf uni2089
EndChar
StartChar: less
Encoding: 60 60 31
Width: 1245
VWidth: 2150
GlyphClass: 1
Flags: W
LayerCount: 2
Fore
SplineSet
1147.65039062 200.549804688 m 1,0,-1
 94.5 665.700195312 l 1,1,-1
 94.5 831.599609375 l 1,2,-1
 1147.65039062 1357.65039062 l 1,3,-1
 1147.65039062 1075.20019531 l 1,4,-1
 462 760.200195312 l 1,5,-1
 1147.65039062 480.900390625 l 1,6,-1
 1147.65039062 200.549804688 l 1,0,-1
EndSplineSet
Validated: 1
EndChar
StartChar: B
Encoding: 66 66 37
Width: 1446
VWidth: 2150
GlyphClass: 2
Flags: W
AnchorPoint: "Anchor-2" 1403.85 1535.1 basechar 0
AnchorPoint: "Anchor-1" 729.75 0 basechar 0
AnchorPoint: "Anchor-0" 730.8 1535.1 basechar 0
LayerCount: 2
Fore
SplineSet
179.549804688 1535.09960938 m 1,0,-1
 686.700195312 1535.09960938 l 2,1,2
 1005.90039062 1535.09960938 1005.90039062 1535.09960938 1155.52539062 1442.70019531 c 128,-1,3
 1305.15039062 1350.29980469 1305.15039062 1350.29980469 1305.15039062 1149.75 c 0,4,5
 1305.15039062 1056.29980469 1305.15039062 1056.29980469 1273.125 985.950195312 c 128,-1,6
 1241.09960938 915.599609375 1241.09960938 915.599609375 1187.54980469 872.549804688 c 128,-1,7
 1134 829.5 1134 829.5 1066.79980469 814.799804688 c 1,8,-1
 1066.79980469 804.299804688 l 1,9,10
 1137.15039062 788.549804688 1137.15039062 788.549804688 1199.09960938 751.275390625 c 128,-1,11
 1261.04980469 714 1261.04980469 714 1300.42480469 641.549804688 c 128,-1,12
 1339.79980469 569.099609375 1339.79980469 569.099609375 1339.79980469 447.299804688 c 0,13,14
 1339.79980469 307.650390625 1339.79980469 307.650390625 1270.5 207.375 c 128,-1,15
 1201.20019531 107.099609375 1201.20019531 107.099609375 1072.04980469 53.5498046875 c 128,-1,16
 942.900390625 0 942.900390625 0 765.450195312 0 c 2,17,-1
 179.549804688 0 l 1,18,-1
 179.549804688 1535.09960938 l 1,0,-1
550.200195312 936.599609375 m 1,19,-1
 706.650390625 936.599609375 l 2,20,21
 829.5 936.599609375 829.5 936.599609375 877.799804688 980.174804688 c 128,-1,22
 926.099609375 1023.75 926.099609375 1023.75 926.099609375 1098.29980469 c 0,23,24
 926.099609375 1173.90039062 926.099609375 1173.90039062 869.924804688 1209.59960938 c 128,-1,25
 813.75 1245.29980469 813.75 1245.29980469 694.049804688 1245.29980469 c 2,26,-1
 550.200195312 1245.29980469 l 1,27,-1
 550.200195312 936.599609375 l 1,19,-1
550.200195312 656.25 m 1,28,-1
 550.200195312 295.049804688 l 1,29,-1
 728.700195312 295.049804688 l 2,30,31
 856.799804688 295.049804688 856.799804688 295.049804688 907.200195312 346.5 c 128,-1,32
 957.599609375 397.950195312 957.599609375 397.950195312 957.599609375 480.900390625 c 0,33,34
 957.599609375 530.25 957.599609375 530.25 935.549804688 569.625 c 128,-1,35
 913.5 609 913.5 609 862.049804688 632.625 c 128,-1,36
 810.599609375 656.25 810.599609375 656.25 719.25 656.25 c 2,37,-1
 550.200195312 656.25 l 1,28,-1
EndSplineSet
Validated: 1
EndChar
StartChar: D
Encoding: 68 68 39
Width: 1585
VWidth: 2150
GlyphClass: 2
Flags: W
AnchorPoint: "Anchor-3" 792.75 767.55 basechar 0
AnchorPoint: "Anchor-2" 1542.45 1535.1 basechar 0
AnchorPoint: "Anchor-1" 756 0 basechar 0
AnchorPoint: "Anchor-0" 792.75 1535.1 basechar 0
LayerCount: 2
Fore
SplineSet
1467.90039062 791.700195312 m 0,0,1
 1467.90039062 528.150390625 1467.90039062 528.150390625 1368.67480469 352.275390625 c 128,-1,2
 1269.45019531 176.400390625 1269.45019531 176.400390625 1084.65039062 88.2001953125 c 128,-1,3
 899.849609375 0 899.849609375 0 645.75 0 c 2,4,-1
 179.549804688 0 l 1,5,-1
 179.549804688 1535.09960938 l 1,6,-1
 686.700195312 1535.09960938 l 2,7,8
 931.349609375 1535.09960938 931.349609375 1535.09960938 1106.17480469 1450.04980469 c 128,-1,9
 1281 1365 1281 1365 1374.45019531 1199.09960938 c 128,-1,10
 1467.90039062 1033.20019531 1467.90039062 1033.20019531 1467.90039062 791.700195312 c 0,0,1
1083.59960938 780.150390625 m 0,11,12
 1083.59960938 934.5 1083.59960938 934.5 1040.02539062 1035.29980469 c 128,-1,13
 996.450195312 1136.09960938 996.450195312 1136.09960938 910.875 1185.45019531 c 128,-1,14
 825.299804688 1234.79980469 825.299804688 1234.79980469 697.200195312 1234.79980469 c 2,15,-1
 550.200195312 1234.79980469 l 1,16,-1
 550.200195312 304.5 l 1,17,-1
 665.700195312 304.5 l 2,18,19
 879.900390625 304.5 879.900390625 304.5 981.75 423.150390625 c 128,-1,20
 1083.59960938 541.799804688 1083.59960938 541.799804688 1083.59960938 780.150390625 c 0,11,12
EndSplineSet
Validated: 1
EndChar
StartChar: O
Encoding: 79 79 50
Width: 1712
VWidth: 2150
GlyphClass: 2
Flags: W
AnchorPoint: "Anchor-3" 856.8 767.55 basechar 0
AnchorPoint: "Anchor-2" 1669.5 1535.1 basechar 0
AnchorPoint: "Anchor-1" 856.8 0 basechar 0
AnchorPoint: "Anchor-0" 856.8 1535.1 basechar 0
LayerCount: 2
Fore
SplineSet
1594.95019531 769.650390625 m 0,0,1
 1594.95019531 592.200195312 1594.95019531 592.200195312 1551.375 446.775390625 c 128,-1,2
 1507.79980469 301.349609375 1507.79980469 301.349609375 1418.02539062 196.349609375 c 128,-1,3
 1328.25 91.349609375 1328.25 91.349609375 1188.59960938 35.1748046875 c 128,-1,4
 1048.95019531 -21 1048.95019531 -21 855.75 -21 c 0,5,6
 665.700195312 -21 665.700195312 -21 526.049804688 35.1748046875 c 128,-1,7
 386.400390625 91.349609375 386.400390625 91.349609375 296.099609375 196.349609375 c 128,-1,8
 205.799804688 301.349609375 205.799804688 301.349609375 161.700195312 447.299804688 c 128,-1,9
 117.599609375 593.25 117.599609375 593.25 117.599609375 771.75 c 0,10,11
 117.599609375 1011.15039062 117.599609375 1011.15039062 196.349609375 1188.07519531 c 128,-1,12
 275.099609375 1365 275.099609375 1365 439.424804688 1462.125 c 128,-1,13
 603.75 1559.25 603.75 1559.25 857.849609375 1559.25 c 0,14,15
 1114.04980469 1559.25 1114.04980469 1559.25 1276.79980469 1461.59960938 c 128,-1,16
 1439.54980469 1363.95019531 1439.54980469 1363.95019531 1517.25 1186.5 c 128,-1,17
 1594.95019531 1009.04980469 1594.95019531 1009.04980469 1594.95019531 769.650390625 c 0,0,1
506.099609375 769.650390625 m 0,18,19
 506.099609375 620.549804688 506.099609375 620.549804688 542.325195312 512.400390625 c 128,-1,20
 578.549804688 404.25 578.549804688 404.25 655.724609375 346.5 c 128,-1,21
 732.900390625 288.75 732.900390625 288.75 855.75 288.75 c 0,22,23
 982.799804688 288.75 982.799804688 288.75 1059.45019531 346.5 c 128,-1,24
 1136.09960938 404.25 1136.09960938 404.25 1170.75 512.400390625 c 128,-1,25
 1205.40039062 620.549804688 1205.40039062 620.549804688 1205.40039062 769.650390625 c 0,26,27
 1205.40039062 994.349609375 1205.40039062 994.349609375 1125.59960938 1124.02539062 c 128,-1,28
 1045.79980469 1253.70019531 1045.79980469 1253.70019531 857.849609375 1253.70019531 c 0,29,30
 732.900390625 1253.70019531 732.900390625 1253.70019531 655.200195312 1195.42480469 c 128,-1,31
 577.5 1137.15039062 577.5 1137.15039062 541.799804688 1028.47460938 c 128,-1,32
 506.099609375 919.799804688 506.099609375 919.799804688 506.099609375 769.650390625 c 0,18,19
EndSplineSet
Validated: 1
Substitution2: "Single Substitution lookup 29 subtable" ordmasculine
Substitution2: "'aalt' Access All Alternates lookup 0 subtable" ordmasculine
EndChar
StartChar: S
Encoding: 83 83 54
Width: 1212
VWidth: 2150
GlyphClass: 2
Flags: W
AnchorPoint: "Anchor-2" 1169.7 1535.1 basechar 0
AnchorPoint: "Anchor-1" 599.55 0 basechar 0
AnchorPoint: "Anchor-0" 616.35 1535.1 basechar 0
LayerCount: 2
Fore
SplineSet
1135.04980469 446.25 m 0,0,1
 1135.04980469 316.049804688 1135.04980469 316.049804688 1070.47460938 209.474609375 c 128,-1,2
 1005.90039062 102.900390625 1005.90039062 102.900390625 876.224609375 40.9501953125 c 128,-1,3
 746.549804688 -21 746.549804688 -21 551.25 -21 c 0,4,5
 458.849609375 -21 458.849609375 -21 381.150390625 -11.025390625 c 128,-1,6
 303.450195312 -1.0498046875 303.450195312 -1.0498046875 234.150390625 19.9501953125 c 128,-1,7
 164.849609375 40.9501953125 164.849609375 40.9501953125 96.599609375 73.5 c 1,8,-1
 96.599609375 409.5 l 1,9,10
 214.200195312 353.849609375 214.200195312 353.849609375 336.525390625 318.150390625 c 128,-1,11
 458.849609375 282.450195312 458.849609375 282.450195312 568.049804688 282.450195312 c 0,12,13
 638.400390625 282.450195312 638.400390625 282.450195312 682.5 300.299804688 c 128,-1,14
 726.599609375 318.150390625 726.599609375 318.150390625 747.075195312 349.125 c 128,-1,15
 767.549804688 380.099609375 767.549804688 380.099609375 767.549804688 421.049804688 c 0,16,17
 767.549804688 469.349609375 767.549804688 469.349609375 734.474609375 504 c 128,-1,18
 701.400390625 538.650390625 701.400390625 538.650390625 636.825195312 571.724609375 c 128,-1,19
 572.25 604.799804688 572.25 604.799804688 479.849609375 647.849609375 c 0,20,21
 410.549804688 680.400390625 410.549804688 680.400390625 344.924804688 719.25 c 128,-1,22
 279.299804688 758.099609375 279.299804688 758.099609375 226.275390625 811.650390625 c 128,-1,23
 173.25 865.200195312 173.25 865.200195312 142.275390625 938.700195312 c 128,-1,24
 111.299804688 1012.20019531 111.299804688 1012.20019531 111.299804688 1114.04980469 c 0,25,26
 111.299804688 1256.84960938 111.299804688 1256.84960938 179.025390625 1356.07519531 c 128,-1,27
 246.75 1455.29980469 246.75 1455.29980469 370.650390625 1506.22460938 c 128,-1,28
 494.549804688 1557.15039062 494.549804688 1557.15039062 660.450195312 1557.15039062 c 0,29,30
 794.849609375 1557.15039062 794.849609375 1557.15039062 909.299804688 1526.70019531 c 128,-1,31
 1023.75 1496.25 1023.75 1496.25 1130.84960938 1447.95019531 c 1,32,-1
 1015.34960938 1161.29980469 l 1,33,34
 912.450195312 1205.40039062 912.450195312 1205.40039062 822.674804688 1230.59960938 c 128,-1,35
 732.900390625 1255.79980469 732.900390625 1255.79980469 648.900390625 1255.79980469 c 0,36,37
 591.150390625 1255.79980469 591.150390625 1255.79980469 552.825195312 1239.52539062 c 128,-1,38
 514.5 1223.25 514.5 1223.25 495.075195312 1194.90039062 c 128,-1,39
 475.650390625 1166.54980469 475.650390625 1166.54980469 475.650390625 1128.75 c 0,40,41
 475.650390625 1083.59960938 475.650390625 1083.59960938 505.575195312 1051.04980469 c 128,-1,42
 535.5 1018.5 535.5 1018.5 600.599609375 984.375 c 128,-1,43
 665.700195312 950.25 665.700195312 950.25 770.700195312 900.900390625 c 0,44,45
 886.200195312 848.400390625 886.200195312 848.400390625 967.049804688 789.075195312 c 128,-1,46
 1047.90039062 729.75 1047.90039062 729.75 1091.47460938 648.375 c 128,-1,47
 1135.04980469 567 1135.04980469 567 1135.04980469 446.25 c 0,0,1
EndSplineSet
Validated: 1
EndChar
StartChar: U
Encoding: 85 85 56
Width: 1626
VWidth: 2150
GlyphClass: 2
Flags: W
AnchorPoint: "Anchor-2" 1583.4 1535.1 basechar 0
AnchorPoint: "Anchor-1" 809.55 0 basechar 0
AnchorPoint: "Anchor-0" 813.75 1535.1 basechar 0
LayerCount: 2
Fore
SplineSet
1457.40039062 1535.09960938 m 1,0,-1
 1457.40039062 576.450195312 l 2,1,2
 1457.40039062 401.099609375 1457.40039062 401.099609375 1385.47460938 266.174804688 c 128,-1,3
 1313.54980469 131.25 1313.54980469 131.25 1169.70019531 55.125 c 128,-1,4
 1025.84960938 -21 1025.84960938 -21 807.450195312 -21 c 0,5,6
 496.650390625 -21 496.650390625 -21 333.375 138.075195312 c 128,-1,7
 170.099609375 297.150390625 170.099609375 297.150390625 170.099609375 574.349609375 c 2,8,-1
 170.099609375 1535.09960938 l 1,9,-1
 540.75 1535.09960938 l 1,10,-1
 540.75 615.299804688 l 2,11,12
 540.75 438.900390625 540.75 438.900390625 610.049804688 363.825195312 c 128,-1,13
 679.349609375 288.75 679.349609375 288.75 814.799804688 288.75 c 0,14,15
 911.400390625 288.75 911.400390625 288.75 971.25 322.875 c 128,-1,16
 1031.09960938 357 1031.09960938 357 1059.45019531 429.974609375 c 128,-1,17
 1087.79980469 502.950195312 1087.79980469 502.950195312 1087.79980469 617.400390625 c 2,18,-1
 1087.79980469 1535.09960938 l 1,19,-1
 1457.40039062 1535.09960938 l 1,0,-1
EndSplineSet
Validated: 1
EndChar
StartChar: X
Encoding: 88 88 59
Width: 1495
VWidth: 2150
GlyphClass: 2
Flags: W
AnchorPoint: "Anchor-2" 1452.15 1535.1 basechar 0
AnchorPoint: "Anchor-1" 748.65 0 basechar 0
AnchorPoint: "Anchor-0" 742.35 1535.1 basechar 0
LayerCount: 2
Fore
SplineSet
1492.04980469 0 m 1,0,-1
 1065.75 0 l 1,1,-1
 738.150390625 530.25 l 1,2,-1
 411.599609375 0 l 1,3,-1
 2.099609375 0 l 1,4,-1
 511.349609375 788.549804688 l 1,5,-1
 33.599609375 1535.09960938 l 1,6,-1
 443.099609375 1535.09960938 l 1,7,-1
 747.599609375 1021.65039062 l 1,8,-1
 1042.65039062 1535.09960938 l 1,9,-1
 1455.29980469 1535.09960938 l 1,10,-1
 971.25 763.349609375 l 1,11,-1
 1492.04980469 0 l 1,0,-1
EndSplineSet
Validated: 1
EndChar
StartChar: a
Encoding: 97 97 68
Width: 1319
VWidth: 2150
GlyphClass: 2
Flags: W
AnchorPoint: "Anchor-2" 1229.55 1182.3 basechar 0
AnchorPoint: "Anchor-1" 660.45 0 basechar 0
AnchorPoint: "Anchor-0" 660.45 1182.3 basechar 0
LayerCount: 2
Fore
SplineSet
685.650390625 1204.34960938 m 0,0,1
 916.650390625 1204.34960938 916.650390625 1204.34960938 1043.17480469 1097.25 c 128,-1,2
 1169.70019531 990.150390625 1169.70019531 990.150390625 1169.70019531 781.200195312 c 2,3,-1
 1169.70019531 0 l 1,4,-1
 915.599609375 0 l 1,5,-1
 845.25 158.549804688 l 1,6,-1
 836.849609375 158.549804688 l 1,7,8
 786.450195312 95.5498046875 786.450195312 95.5498046875 733.950195312 56.1748046875 c 128,-1,9
 681.450195312 16.7998046875 681.450195312 16.7998046875 613.200195312 -2.099609375 c 128,-1,10
 544.950195312 -21 544.950195312 -21 446.25 -21 c 0,11,12
 343.349609375 -21 343.349609375 -21 260.924804688 19.9501953125 c 128,-1,13
 178.5 60.900390625 178.5 60.900390625 131.25 144.900390625 c 128,-1,14
 84 228.900390625 84 228.900390625 84 357 c 0,15,16
 84 546 84 546 215.775390625 636.825195312 c 128,-1,17
 347.549804688 727.650390625 347.549804688 727.650390625 604.799804688 738.150390625 c 2,18,-1
 805.349609375 744.450195312 l 1,19,-1
 805.349609375 778.049804688 l 2,20,21
 805.349609375 864.150390625 805.349609375 864.150390625 761.775390625 902.474609375 c 128,-1,22
 718.200195312 940.799804688 718.200195312 940.799804688 641.549804688 940.799804688 c 0,23,24
 563.849609375 940.799804688 563.849609375 940.799804688 479.849609375 916.650390625 c 128,-1,25
 395.849609375 892.5 395.849609375 892.5 310.799804688 854.700195312 c 1,26,-1
 198.450195312 1098.29980469 l 1,27,28
 297.150390625 1148.70019531 297.150390625 1148.70019531 420 1176.52539062 c 128,-1,29
 542.849609375 1204.34960938 542.849609375 1204.34960938 685.650390625 1204.34960938 c 0,0,1
806.400390625 537.599609375 m 1,30,-1
 697.200195312 533.400390625 l 2,31,32
 562.799804688 529.200195312 562.799804688 529.200195312 509.775390625 486.150390625 c 128,-1,33
 456.75 443.099609375 456.75 443.099609375 456.75 368.549804688 c 0,34,35
 456.75 301.349609375 456.75 301.349609375 494.549804688 271.424804688 c 128,-1,36
 532.349609375 241.5 532.349609375 241.5 594.299804688 241.5 c 0,37,38
 682.5 241.5 682.5 241.5 744.450195312 295.575195312 c 128,-1,39
 806.400390625 349.650390625 806.400390625 349.650390625 806.400390625 443.099609375 c 2,40,-1
 806.400390625 537.599609375 l 1,30,-1
EndSplineSet
Validated: 1
Substitution2: "Single Substitution lookup 29 subtable" ordfeminine
Substitution2: "'aalt' Access All Alternates lookup 0 subtable" ordfeminine
EndChar
StartChar: c
Encoding: 99 99 70
Width: 1132
VWidth: 2150
GlyphClass: 2
Flags: W
AnchorPoint: "Anchor-2" 1073.1 1182.3 basechar 0
AnchorPoint: "Anchor-1" 652.05 0 basechar 0
AnchorPoint: "Anchor-0" 623.7 1182.3 basechar 0
LayerCount: 2
Fore
SplineSet
664.650390625 -21 m 0,0,1
 487.200195312 -21 487.200195312 -21 359.099609375 43.0498046875 c 128,-1,2
 231 107.099609375 231 107.099609375 162.224609375 241.5 c 128,-1,3
 93.4501953125 375.900390625 93.4501953125 375.900390625 93.4501953125 584.849609375 c 0,4,5
 93.4501953125 801.150390625 93.4501953125 801.150390625 170.625 937.650390625 c 128,-1,6
 247.799804688 1074.15039062 247.799804688 1074.15039062 383.775390625 1138.72460938 c 128,-1,7
 519.75 1203.29980469 519.75 1203.29980469 695.099609375 1203.29980469 c 0,8,9
 810.599609375 1203.29980469 810.599609375 1203.29980469 904.049804688 1179.67480469 c 128,-1,10
 997.5 1156.04980469 997.5 1156.04980469 1072.04980469 1118.25 c 1,11,-1
 964.950195312 843.150390625 l 1,12,13
 890.400390625 874.650390625 890.400390625 874.650390625 825.825195312 894.075195312 c 128,-1,14
 761.25 913.5 761.25 913.5 695.099609375 913.5 c 0,15,16
 621.599609375 913.5 621.599609375 913.5 570.150390625 877.275390625 c 128,-1,17
 518.700195312 841.049804688 518.700195312 841.049804688 491.924804688 769.125 c 128,-1,18
 465.150390625 697.200195312 465.150390625 697.200195312 465.150390625 586.950195312 c 0,19,20
 465.150390625 477.75 465.150390625 477.75 493.5 407.924804688 c 128,-1,21
 521.849609375 338.099609375 521.849609375 338.099609375 573.299804688 305.025390625 c 128,-1,22
 624.75 271.950195312 624.75 271.950195312 696.150390625 271.950195312 c 0,23,24
 790.650390625 271.950195312 790.650390625 271.950195312 873.599609375 299.25 c 128,-1,25
 956.549804688 326.549804688 956.549804688 326.549804688 1033.20019531 375.900390625 c 1,26,-1
 1033.20019531 75.599609375 l 1,27,28
 959.700195312 28.349609375 959.700195312 28.349609375 873.599609375 3.6748046875 c 128,-1,29
 787.5 -21 787.5 -21 664.650390625 -21 c 0,0,1
EndSplineSet
Validated: 1
EndChar
StartChar: d
Encoding: 100 100 71
Width: 1372
VWidth: 2150
GlyphClass: 2
Flags: W
AnchorPoint: "Anchor-3" 686.7 591.15 basechar 0
AnchorPoint: "Anchor-2" 1275.75 1633.8 basechar 0
AnchorPoint: "Anchor-1" 661.5 0 basechar 0
AnchorPoint: "Anchor-0" 518.7 1633.8 basechar 0
LayerCount: 2
Fore
SplineSet
526.049804688 -21 m 0,0,1
 336 -21 336 -21 214.724609375 134.400390625 c 128,-1,2
 93.4501953125 289.799804688 93.4501953125 289.799804688 93.4501953125 589.049804688 c 0,3,4
 93.4501953125 892.5 93.4501953125 892.5 216.825195312 1047.90039062 c 128,-1,5
 340.200195312 1203.29980469 340.200195312 1203.29980469 537.599609375 1203.29980469 c 0,6,7
 619.5 1203.29980469 619.5 1203.29980469 680.400390625 1180.20019531 c 128,-1,8
 741.299804688 1157.09960938 741.299804688 1157.09960938 785.924804688 1118.25 c 128,-1,9
 830.549804688 1079.40039062 830.549804688 1079.40039062 863.099609375 1030.04980469 c 1,10,-1
 872.549804688 1030.04980469 l 1,11,12
 865.200195312 1069.95019531 865.200195312 1069.95019531 857.849609375 1142.40039062 c 128,-1,13
 850.5 1214.84960938 850.5 1214.84960938 850.5 1287.29980469 c 2,14,-1
 850.5 1633.79980469 l 1,15,-1
 1218 1633.79980469 l 1,16,-1
 1218 0 l 1,17,-1
 939.75 0 l 1,18,-1
 865.200195312 151.200195312 l 1,19,-1
 850.5 151.200195312 l 1,20,21
 821.099609375 103.950195312 821.099609375 103.950195312 777 64.5751953125 c 128,-1,22
 732.900390625 25.2001953125 732.900390625 25.2001953125 670.950195312 2.099609375 c 128,-1,23
 609 -21 609 -21 526.049804688 -21 c 0,0,1
665.700195312 268.799804688 m 0,24,25
 781.200195312 268.799804688 781.200195312 268.799804688 828.450195312 339.150390625 c 128,-1,26
 875.700195312 409.5 875.700195312 409.5 878.849609375 552.299804688 c 2,27,-1
 878.849609375 585.900390625 l 2,28,29
 878.849609375 742.349609375 878.849609375 742.349609375 832.650390625 825.299804688 c 128,-1,30
 786.450195312 908.25 786.450195312 908.25 661.5 908.25 c 0,31,32
 571.200195312 908.25 571.200195312 908.25 517.125 826.875 c 128,-1,33
 463.049804688 745.5 463.049804688 745.5 463.049804688 583.799804688 c 0,34,35
 463.049804688 424.200195312 463.049804688 424.200195312 517.650390625 346.5 c 128,-1,36
 572.25 268.799804688 572.25 268.799804688 665.700195312 268.799804688 c 0,24,25
EndSplineSet
Validated: 1
EndChar
StartChar: f
Encoding: 102 102 73
Width: 861
VWidth: 2150
GlyphClass: 2
Flags: W
AnchorPoint: "Anchor-2" 912.45 1645.35 basechar 0
AnchorPoint: "Anchor-1" 393.75 0 basechar 0
AnchorPoint: "Anchor-0" 585.9 1645.35 basechar 0
LayerCount: 2
Fore
SplineSet
843.150390625 908.25 m 1,0,-1
 577.5 908.25 l 1,1,-1
 577.5 0 l 1,2,-1
 212.099609375 0 l 1,3,-1
 212.099609375 908.25 l 1,4,-1
 45.150390625 908.25 l 1,5,-1
 45.150390625 1085.70019531 l 1,6,-1
 216.299804688 1179.15039062 l 1,7,-1
 216.299804688 1232.70019531 l 2,8,9
 216.299804688 1384.95019531 216.299804688 1384.95019531 262.5 1475.25 c 128,-1,10
 308.700195312 1565.54980469 308.700195312 1565.54980469 399.525390625 1605.45019531 c 128,-1,11
 490.349609375 1645.34960938 490.349609375 1645.34960938 625.799804688 1645.34960938 c 0,12,13
 719.25 1645.34960938 719.25 1645.34960938 794.849609375 1630.65039062 c 128,-1,14
 870.450195312 1615.95019531 870.450195312 1615.95019531 935.549804688 1592.84960938 c 1,15,-1
 850.5 1341.90039062 l 1,16,17
 816.900390625 1352.40039062 816.900390625 1352.40039062 777 1360.27539062 c 128,-1,18
 737.099609375 1368.15039062 737.099609375 1368.15039062 687.75 1368.15039062 c 0,19,20
 630 1368.15039062 630 1368.15039062 603.75 1333.5 c 128,-1,21
 577.5 1298.84960938 577.5 1298.84960938 577.5 1234.79980469 c 2,22,-1
 577.5 1182.29980469 l 1,23,-1
 843.150390625 1182.29980469 l 1,24,-1
 843.150390625 908.25 l 1,0,-1
EndSplineSet
Validated: 1
EndChar
StartChar: i
Encoding: 105 105 76
Width: 678
VWidth: 2150
GlyphClass: 2
Flags: W
AnchorPoint: "Anchor-2" 635.25 1651.65 basechar 0
AnchorPoint: "Anchor-1" 345.45 0 basechar 0
AnchorPoint: "Anchor-0" 340.2 1651.65 basechar 0
LayerCount: 2
Fore
SplineSet
521.849609375 1182.29980469 m 1,0,-1
 521.849609375 0 l 1,1,-1
 156.450195312 0 l 1,2,-1
 156.450195312 1182.29980469 l 1,3,-1
 521.849609375 1182.29980469 l 1,0,-1
340.200195312 1651.65039062 m 0,4,5
 420 1651.65039062 420 1651.65039062 478.275390625 1616.47460938 c 128,-1,6
 536.549804688 1581.29980469 536.549804688 1581.29980469 536.549804688 1481.54980469 c 0,7,8
 536.549804688 1383.90039062 536.549804688 1383.90039062 478.275390625 1348.20019531 c 128,-1,9
 420 1312.5 420 1312.5 340.200195312 1312.5 c 0,10,11
 258.299804688 1312.5 258.299804688 1312.5 201.075195312 1348.20019531 c 128,-1,12
 143.849609375 1383.90039062 143.849609375 1383.90039062 143.849609375 1481.54980469 c 0,13,14
 143.849609375 1581.29980469 143.849609375 1581.29980469 201.075195312 1616.47460938 c 128,-1,15
 258.299804688 1651.65039062 258.299804688 1651.65039062 340.200195312 1651.65039062 c 0,4,5
EndSplineSet
Validated: 1
Substitution2: "Single Substitution lookup 4 subtable" dotlessi
Substitution2: "Single Substitution lookup 3 subtable" dotlessi
Substitution2: "'aalt' Access All Alternates lookup 0 subtable" dotlessi
EndChar
StartChar: m
Encoding: 109 109 80
Width: 2131
VWidth: 2150
GlyphClass: 2
Flags: W
AnchorPoint: "Anchor-2" 2041.2 1182.3 basechar 0
AnchorPoint: "Anchor-1" 1073.1 0 basechar 0
AnchorPoint: "Anchor-0" 1098.3 1182.3 basechar 0
LayerCount: 2
Fore
SplineSet
1570.79980469 1203.29980469 m 0,0,1
 1772.40039062 1203.29980469 1772.40039062 1203.29980469 1877.40039062 1100.40039062 c 128,-1,2
 1982.40039062 997.5 1982.40039062 997.5 1982.40039062 769.650390625 c 2,3,-1
 1982.40039062 0 l 1,4,-1
 1615.95019531 0 l 1,5,-1
 1615.95019531 666.75 l 2,6,7
 1615.95019531 796.950195312 1615.95019531 796.950195312 1576.57519531 855.75 c 128,-1,8
 1537.20019531 914.549804688 1537.20019531 914.549804688 1456.34960938 914.549804688 c 0,9,10
 1342.95019531 914.549804688 1342.95019531 914.549804688 1296.75 825.299804688 c 128,-1,11
 1250.54980469 736.049804688 1250.54980469 736.049804688 1250.54980469 572.25 c 2,12,-1
 1250.54980469 0 l 1,13,-1
 885.150390625 0 l 1,14,-1
 885.150390625 666.75 l 2,15,16
 885.150390625 751.799804688 885.150390625 751.799804688 867.825195312 806.400390625 c 128,-1,17
 850.5 861 850.5 861 815.849609375 887.775390625 c 128,-1,18
 781.200195312 914.549804688 781.200195312 914.549804688 727.650390625 914.549804688 c 0,19,20
 647.849609375 914.549804688 647.849609375 914.549804688 602.700195312 870.974609375 c 128,-1,21
 557.549804688 827.400390625 557.549804688 827.400390625 539.174804688 742.875 c 128,-1,22
 520.799804688 658.349609375 520.799804688 658.349609375 520.799804688 536.549804688 c 2,23,-1
 520.799804688 0 l 1,24,-1
 155.400390625 0 l 1,25,-1
 155.400390625 1182.29980469 l 1,26,-1
 432.599609375 1182.29980469 l 1,27,-1
 484.049804688 1033.20019531 l 1,28,-1
 498.75 1033.20019531 l 1,29,30
 532.349609375 1087.79980469 532.349609375 1087.79980469 584.325195312 1125.59960938 c 128,-1,31
 636.299804688 1163.40039062 636.299804688 1163.40039062 702.974609375 1183.34960938 c 128,-1,32
 769.650390625 1203.29980469 769.650390625 1203.29980469 847.349609375 1203.29980469 c 0,33,34
 977.549804688 1203.29980469 977.549804688 1203.29980469 1065.22460938 1160.25 c 128,-1,35
 1152.90039062 1117.20019531 1152.90039062 1117.20019531 1203.29980469 1034.25 c 1,36,-1
 1224.29980469 1034.25 l 1,37,38
 1278.90039062 1119.29980469 1278.90039062 1119.29980469 1371.29980469 1161.29980469 c 128,-1,39
 1463.70019531 1203.29980469 1463.70019531 1203.29980469 1570.79980469 1203.29980469 c 0,0,1
EndSplineSet
Validated: 1
Substitution2: "'subs' Subscript lookup 19 subtable" uni2098
Substitution2: "'aalt' Access All Alternates lookup 0 subtable" uni2098
EndChar
StartChar: p
Encoding: 112 112 83
Width: 1372
VWidth: 2150
GlyphClass: 2
Flags: W
AnchorPoint: "Anchor-2" 1329.3 1182.3 basechar 0
AnchorPoint: "Anchor-1" 341.25 -516.6 basechar 0
AnchorPoint: "Anchor-0" 720.3 1182.3 basechar 0
LayerCount: 2
Fore
SplineSet
845.25 1203.29980469 m 0,0,1
 1042.65039062 1203.29980469 1042.65039062 1203.29980469 1160.25 1047.375 c 128,-1,2
 1277.84960938 891.450195312 1277.84960938 891.450195312 1277.84960938 593.25 c 0,3,4
 1277.84960938 392.700195312 1277.84960938 392.700195312 1220.625 255.674804688 c 128,-1,5
 1163.40039062 118.650390625 1163.40039062 118.650390625 1063.125 48.8251953125 c 128,-1,6
 962.849609375 -21 962.849609375 -21 834.75 -21 c 0,7,8
 749.700195312 -21 749.700195312 -21 690.375 0.525390625 c 128,-1,9
 631.049804688 22.0498046875 631.049804688 22.0498046875 590.099609375 54.599609375 c 128,-1,10
 549.150390625 87.150390625 549.150390625 87.150390625 520.799804688 122.849609375 c 1,11,-1
 506.099609375 122.849609375 l 1,12,13
 512.400390625 81.900390625 512.400390625 81.900390625 516.599609375 36.224609375 c 128,-1,14
 520.799804688 -9.4501953125 520.799804688 -9.4501953125 520.799804688 -61.9501953125 c 2,15,-1
 520.799804688 -516.599609375 l 1,16,-1
 155.400390625 -516.599609375 l 1,17,-1
 155.400390625 1182.29980469 l 1,18,-1
 452.549804688 1182.29980469 l 1,19,-1
 504 1030.04980469 l 1,20,-1
 520.799804688 1030.04980469 l 1,21,22
 551.25 1077.29980469 551.25 1077.29980469 594.825195312 1116.67480469 c 128,-1,23
 638.400390625 1156.04980469 638.400390625 1156.04980469 700.349609375 1179.67480469 c 128,-1,24
 762.299804688 1203.29980469 762.299804688 1203.29980469 845.25 1203.29980469 c 0,0,1
716.099609375 914.549804688 m 0,25,26
 644.700195312 914.549804688 644.700195312 914.549804688 602.700195312 883.049804688 c 128,-1,27
 560.700195312 851.549804688 560.700195312 851.549804688 541.799804688 788.025390625 c 128,-1,28
 522.900390625 724.5 522.900390625 724.5 520.799804688 628.950195312 c 2,29,-1
 520.799804688 595.349609375 l 2,30,31
 520.799804688 491.400390625 520.799804688 491.400390625 538.650390625 420 c 128,-1,32
 556.5 348.599609375 556.5 348.599609375 600.075195312 311.325195312 c 128,-1,33
 643.650390625 274.049804688 643.650390625 274.049804688 719.25 274.049804688 c 0,34,35
 782.25 274.049804688 782.25 274.049804688 823.200195312 309.224609375 c 128,-1,36
 864.150390625 344.400390625 864.150390625 344.400390625 884.625 416.325195312 c 128,-1,37
 905.099609375 488.25 905.099609375 488.25 905.099609375 597.450195312 c 0,38,39
 905.099609375 762.299804688 905.099609375 762.299804688 858.375 838.424804688 c 128,-1,40
 811.650390625 914.549804688 811.650390625 914.549804688 716.099609375 914.549804688 c 0,25,26
EndSplineSet
Validated: 1
Substitution2: "'subs' Subscript lookup 19 subtable" uni209A
Substitution2: "'aalt' Access All Alternates lookup 0 subtable" uni209A
EndChar
StartChar: t
Encoding: 116 116 87
Width: 961
VWidth: 2150
GlyphClass: 2
Flags: W
AnchorPoint: "Anchor-3" 480.9 591.15 basechar 0
AnchorPoint: "Anchor-2" 878.85 1425.9 basechar 0
AnchorPoint: "Anchor-1" 543.9 0 basechar 0
AnchorPoint: "Anchor-0" 449.4 1425.9 basechar 0
LayerCount: 2
Fore
SplineSet
694.049804688 268.799804688 m 0,0,1
 747.599609375 268.799804688 747.599609375 268.799804688 795.900390625 279.825195312 c 128,-1,2
 844.200195312 290.849609375 844.200195312 290.849609375 893.549804688 307.650390625 c 1,3,-1
 893.549804688 38.849609375 l 1,4,5
 834.75 12.599609375 834.75 12.599609375 759.150390625 -4.2001953125 c 128,-1,6
 683.549804688 -21 683.549804688 -21 579.599609375 -21 c 0,7,8
 469.349609375 -21 469.349609375 -21 383.775390625 14.1748046875 c 128,-1,9
 298.200195312 49.349609375 298.200195312 49.349609375 249.900390625 136.5 c 128,-1,10
 201.599609375 223.650390625 201.599609375 223.650390625 201.599609375 380.099609375 c 2,11,-1
 201.599609375 908.25 l 1,12,-1
 52.5 908.25 l 1,13,-1
 52.5 1059.45019531 l 1,14,-1
 232.049804688 1177.04980469 l 1,15,-1
 331.799804688 1425.90039062 l 1,16,-1
 568.049804688 1425.90039062 l 1,17,-1
 568.049804688 1182.29980469 l 1,18,-1
 878.849609375 1182.29980469 l 1,19,-1
 878.849609375 908.25 l 1,20,-1
 568.049804688 908.25 l 1,21,-1
 568.049804688 393.75 l 2,22,23
 568.049804688 330.75 568.049804688 330.75 602.174804688 299.775390625 c 128,-1,24
 636.299804688 268.799804688 636.299804688 268.799804688 694.049804688 268.799804688 c 0,0,1
EndSplineSet
Validated: 1
Substitution2: "'subs' Subscript lookup 19 subtable" uni209C
Substitution2: "'aalt' Access All Alternates lookup 0 subtable" uni209C
EndChar
StartChar: w
Encoding: 119 119 90
Width: 1899
VWidth: 2150
GlyphClass: 2
Flags: W
AnchorPoint: "Anchor-2" 1856.4 1182.3 basechar 0
AnchorPoint: "Anchor-1" 949.2 0 basechar 0
AnchorPoint: "Anchor-0" 950.25 1182.3 basechar 0
LayerCount: 2
Fore
SplineSet
1149.75 0 m 1,0,-1
 1041.59960938 466.200195312 l 2,1,2
 1033.20019531 504 1033.20019531 504 1020.07519531 565.424804688 c 128,-1,3
 1006.95019531 626.849609375 1006.95019531 626.849609375 992.775390625 694.049804688 c 128,-1,4
 978.599609375 761.25 978.599609375 761.25 967.575195312 817.950195312 c 128,-1,5
 956.549804688 874.650390625 956.549804688 874.650390625 951.299804688 903 c 1,6,-1
 942.900390625 903 l 1,7,8
 937.650390625 874.650390625 937.650390625 874.650390625 926.099609375 817.424804688 c 128,-1,9
 914.549804688 760.200195312 914.549804688 760.200195312 900.375 692.474609375 c 128,-1,10
 886.200195312 624.75 886.200195312 624.75 872.025390625 561.224609375 c 128,-1,11
 857.849609375 497.700195312 857.849609375 497.700195312 848.400390625 455.700195312 c 2,12,-1
 741.299804688 0 l 1,13,-1
 352.799804688 0 l 1,14,-1
 24.150390625 1182.29980469 l 1,15,-1
 385.349609375 1182.29980469 l 1,16,-1
 501.900390625 694.049804688 l 2,17,18
 513.450195312 641.549804688 513.450195312 641.549804688 525.525390625 569.099609375 c 128,-1,19
 537.599609375 496.650390625 537.599609375 496.650390625 547.049804688 425.775390625 c 128,-1,20
 556.5 354.900390625 556.5 354.900390625 560.700195312 305.549804688 c 1,21,-1
 568.049804688 305.549804688 l 1,22,23
 570.150390625 342.299804688 570.150390625 342.299804688 577.5 395.849609375 c 128,-1,24
 584.849609375 449.400390625 584.849609375 449.400390625 594.299804688 504 c 128,-1,25
 603.75 558.599609375 603.75 558.599609375 611.625 601.650390625 c 128,-1,26
 619.5 644.700195312 619.5 644.700195312 623.700195312 660.450195312 c 2,27,-1
 750.75 1182.29980469 l 1,28,-1
 1153.95019531 1182.29980469 l 1,29,-1
 1273.65039062 657.299804688 l 2,30,31
 1282.04980469 621.599609375 1282.04980469 621.599609375 1294.125 557.025390625 c 128,-1,32
 1306.20019531 492.450195312 1306.20019531 492.450195312 1316.17480469 423.150390625 c 128,-1,33
 1326.15039062 353.849609375 1326.15039062 353.849609375 1329.29980469 305.549804688 c 1,34,-1
 1336.65039062 305.549804688 l 1,35,36
 1340.84960938 352.799804688 1340.84960938 352.799804688 1350.29980469 424.724609375 c 128,-1,37
 1359.75 496.650390625 1359.75 496.650390625 1372.34960938 570.150390625 c 128,-1,38
 1384.95019531 643.650390625 1384.95019531 643.650390625 1397.54980469 694.049804688 c 2,39,-1
 1520.40039062 1182.29980469 l 1,40,-1
 1875.29980469 1182.29980469 l 1,41,-1
 1543.5 0 l 1,42,-1
 1149.75 0 l 1,0,-1
EndSplineSet
Validated: 1
EndChar
StartChar: x
Encoding: 120 120 91
Width: 1298
VWidth: 2150
GlyphClass: 2
Flags: W
AnchorPoint: "Anchor-2" 1255.8 1182.3 basechar 0
AnchorPoint: "Anchor-1" 649.95 0 basechar 0
AnchorPoint: "Anchor-0" 647.85 1182.3 basechar 0
LayerCount: 2
Fore
SplineSet
401.099609375 603.75 m 1,0,-1
 30.4501953125 1182.29980469 l 1,1,-1
 445.200195312 1182.29980469 l 1,2,-1
 649.950195312 828.450195312 l 1,3,-1
 856.799804688 1182.29980469 l 1,4,-1
 1272.59960938 1182.29980469 l 1,5,-1
 894.599609375 603.75 l 1,6,-1
 1288.34960938 0 l 1,7,-1
 873.599609375 0 l 1,8,-1
 649.950195312 382.200195312 l 1,9,-1
 426.299804688 0 l 1,10,-1
 10.5 0 l 1,11,-1
 401.099609375 603.75 l 1,0,-1
EndSplineSet
Validated: 1
EndChar
StartChar: z
Encoding: 122 122 93
Width: 1069
VWidth: 2150
GlyphClass: 2
Flags: W
AnchorPoint: "Anchor-2" 1005.9 1182.3 basechar 0
AnchorPoint: "Anchor-1" 540.75 0 basechar 0
AnchorPoint: "Anchor-0" 535.5 1182.3 basechar 0
LayerCount: 2
Fore
SplineSet
1011.15039062 0 m 1,0,-1
 54.599609375 0 l 1,1,-1
 54.599609375 212.099609375 l 1,2,-1
 573.299804688 903 l 1,3,-1
 85.0498046875 903 l 1,4,-1
 85.0498046875 1182.29980469 l 1,5,-1
 990.150390625 1182.29980469 l 1,6,-1
 990.150390625 951.299804688 l 1,7,-1
 489.299804688 279.299804688 l 1,8,-1
 1011.15039062 279.299804688 l 1,9,-1
 1011.15039062 0 l 1,0,-1
EndSplineSet
Validated: 1
EndChar
StartChar: bar
Encoding: 124 124 95
Width: 1139
VWidth: 2150
GlyphClass: 1
Flags: W
LayerCount: 2
Fore
SplineSet
442.049804688 1630.65039062 m 1,0,-1
 698.25 1630.65039062 l 1,1,-1
 698.25 -477.75 l 1,2,-1
 442.049804688 -477.75 l 1,3,-1
 442.049804688 1630.65039062 l 1,0,-1
EndSplineSet
Validated: 1
EndChar
StartChar: cent
Encoding: 162 162 100
Width: 1245
VWidth: 2150
GlyphClass: 1
Flags: W
LayerCount: 2
Fore
SplineSet
794.849609375 1557.15039062 m 1,0,-1
 794.849609375 1393.34960938 l 1,1,2
 892.5 1389.15039062 892.5 1389.15039062 973.875 1366.57519531 c 128,-1,3
 1055.25 1344 1055.25 1344 1121.40039062 1310.40039062 c 1,4,-1
 1014.29980469 1035.29980469 l 1,5,6
 939.75 1066.79980469 939.75 1066.79980469 875.174804688 1086.22460938 c 128,-1,7
 810.599609375 1105.65039062 810.599609375 1105.65039062 744.450195312 1105.65039062 c 0,8,9
 670.950195312 1105.65039062 670.950195312 1105.65039062 620.025390625 1069.42480469 c 128,-1,10
 569.099609375 1033.20019531 569.099609375 1033.20019531 542.325195312 961.275390625 c 128,-1,11
 515.549804688 889.349609375 515.549804688 889.349609375 515.549804688 779.099609375 c 0,12,13
 515.549804688 669.900390625 515.549804688 669.900390625 543.375 600.075195312 c 128,-1,14
 571.200195312 530.25 571.200195312 530.25 623.174804688 497.700195312 c 128,-1,15
 675.150390625 465.150390625 675.150390625 465.150390625 745.5 465.150390625 c 0,16,17
 840 465.150390625 840 465.150390625 920.849609375 489.299804688 c 128,-1,18
 1001.70019531 513.450195312 1001.70019531 513.450195312 1083.59960938 557.549804688 c 1,19,-1
 1083.59960938 260.400390625 l 1,20,21
 1019.54980469 224.700195312 1019.54980469 224.700195312 949.200195312 202.125 c 128,-1,22
 878.849609375 179.549804688 878.849609375 179.549804688 794.849609375 172.200195312 c 1,23,-1
 794.849609375 -21 l 1,24,-1
 592.200195312 -21 l 1,25,-1
 592.200195312 179.549804688 l 1,26,27
 452.549804688 200.549804688 452.549804688 200.549804688 351.75 270.900390625 c 128,-1,28
 250.950195312 341.25 250.950195312 341.25 196.875 466.724609375 c 128,-1,29
 142.799804688 592.200195312 142.799804688 592.200195312 142.799804688 777 c 0,30,31
 142.799804688 968.099609375 142.799804688 968.099609375 199.5 1094.09960938 c 128,-1,32
 256.200195312 1220.09960938 256.200195312 1220.09960938 357.525390625 1290.45019531 c 128,-1,33
 458.849609375 1360.79980469 458.849609375 1360.79980469 592.200195312 1382.84960938 c 1,34,-1
 592.200195312 1557.15039062 l 1,35,-1
 794.849609375 1557.15039062 l 1,0,-1
EndSplineSet
Validated: 1
EndChar
StartChar: currency
Encoding: 164 164 102
Width: 1223
VWidth: 2150
GlyphClass: 1
Flags: W
LayerCount: 2
Fore
SplineSet
193.200195312 759.150390625 m 256,0,1
 193.200195312 812.700195312 193.200195312 812.700195312 206.849609375 862.575195312 c 128,-1,2
 220.5 912.450195312 220.5 912.450195312 243.599609375 955.5 c 1,3,-1
 110.25 1084.65039062 l 1,4,-1
 281.400390625 1256.84960938 l 1,5,-1
 412.650390625 1125.59960938 l 1,6,7
 455.700195312 1148.70019531 455.700195312 1148.70019531 507.150390625 1161.82519531 c 128,-1,8
 558.599609375 1174.95019531 558.599609375 1174.95019531 606.900390625 1174.95019531 c 0,9,10
 659.400390625 1174.95019531 659.400390625 1174.95019531 707.700195312 1162.34960938 c 128,-1,11
 756 1149.75 756 1149.75 802.200195312 1122.45019531 c 1,12,-1
 932.400390625 1256.84960938 l 1,13,-1
 1107.75 1090.95019531 l 1,14,-1
 973.349609375 957.599609375 l 1,15,16
 997.5 915.599609375 997.5 915.599609375 1010.09960938 864.150390625 c 128,-1,17
 1022.70019531 812.700195312 1022.70019531 812.700195312 1022.70019531 759.150390625 c 0,18,19
 1022.70019531 704.549804688 1022.70019531 704.549804688 1010.625 656.25 c 128,-1,20
 998.549804688 607.950195312 998.549804688 607.950195312 973.349609375 562.799804688 c 1,21,-1
 1102.5 434.700195312 l 1,22,-1
 932.400390625 264.599609375 l 1,23,-1
 802.200195312 392.700195312 l 1,24,25
 759.150390625 371.700195312 759.150390625 371.700195312 709.275390625 358.575195312 c 128,-1,26
 659.400390625 345.450195312 659.400390625 345.450195312 606.900390625 345.450195312 c 0,27,28
 553.349609375 345.450195312 553.349609375 345.450195312 503.474609375 356.474609375 c 128,-1,29
 453.599609375 367.5 453.599609375 367.5 409.5 391.650390625 c 1,30,-1
 281.400390625 266.700195312 l 1,31,-1
 112.349609375 436.799804688 l 1,32,-1
 243.599609375 564.900390625 l 1,33,34
 218.400390625 610.049804688 218.400390625 610.049804688 205.799804688 657.825195312 c 128,-1,35
 193.200195312 705.599609375 193.200195312 705.599609375 193.200195312 759.150390625 c 256,0,1
436.799804688 759.150390625 m 0,36,37
 436.799804688 711.900390625 436.799804688 711.900390625 459.900390625 673.575195312 c 128,-1,38
 483 635.25 483 635.25 521.849609375 612.674804688 c 128,-1,39
 560.700195312 590.099609375 560.700195312 590.099609375 606.900390625 590.099609375 c 0,40,41
 655.200195312 590.099609375 655.200195312 590.099609375 695.099609375 612.674804688 c 128,-1,42
 735 635.25 735 635.25 758.625 673.575195312 c 128,-1,43
 782.25 711.900390625 782.25 711.900390625 782.25 759.150390625 c 0,44,45
 782.25 807.450195312 782.25 807.450195312 758.625 846.299804688 c 128,-1,46
 735 885.150390625 735 885.150390625 695.099609375 908.25 c 128,-1,47
 655.200195312 931.349609375 655.200195312 931.349609375 606.900390625 931.349609375 c 0,48,49
 560.700195312 931.349609375 560.700195312 931.349609375 521.849609375 908.25 c 128,-1,50
 483 885.150390625 483 885.150390625 459.900390625 846.299804688 c 128,-1,51
 436.799804688 807.450195312 436.799804688 807.450195312 436.799804688 759.150390625 c 0,36,37
EndSplineSet
Validated: 1
EndChar
StartChar: yen
Encoding: 165 165 103
Width: 1245
VWidth: 2150
GlyphClass: 1
Flags: W
LayerCount: 2
Fore
SplineSet
621.599609375 954.450195312 m 1,0,-1
 862.049804688 1535.09960938 l 1,1,-1
 1235.84960938 1535.09960938 l 1,2,-1
 844.200195312 769.650390625 l 1,3,-1
 1048.95019531 769.650390625 l 1,4,-1
 1048.95019531 564.900390625 l 1,5,-1
 792.75 564.900390625 l 1,6,-1
 792.75 431.549804688 l 1,7,-1
 1048.95019531 431.549804688 l 1,8,-1
 1048.95019531 227.849609375 l 1,9,-1
 792.75 227.849609375 l 1,10,-1
 792.75 0 l 1,11,-1
 450.450195312 0 l 1,12,-1
 450.450195312 227.849609375 l 1,13,-1
 192.150390625 227.849609375 l 1,14,-1
 192.150390625 431.549804688 l 1,15,-1
 450.450195312 431.549804688 l 1,16,-1
 450.450195312 564.900390625 l 1,17,-1
 192.150390625 564.900390625 l 1,18,-1
 192.150390625 769.650390625 l 1,19,-1
 391.650390625 769.650390625 l 1,20,-1
 7.349609375 1535.09960938 l 1,21,-1
 383.25 1535.09960938 l 1,22,-1
 621.599609375 954.450195312 l 1,0,-1
EndSplineSet
Validated: 1
EndChar
StartChar: brokenbar
Encoding: 166 166 104
Width: 1139
VWidth: 2150
GlyphClass: 1
Flags: W
LayerCount: 2
Fore
SplineSet
442.049804688 1630.65039062 m 1,0,-1
 698.25 1630.65039062 l 1,1,-1
 698.25 762.299804688 l 1,2,-1
 442.049804688 762.299804688 l 1,3,-1
 442.049804688 1630.65039062 l 1,0,-1
442.049804688 390.599609375 m 1,4,-1
 698.25 390.599609375 l 1,5,-1
 698.25 -477.75 l 1,6,-1
 442.049804688 -477.75 l 1,7,-1
 442.049804688 390.599609375 l 1,4,-1
EndSplineSet
Validated: 1
EndChar
StartChar: section
Encoding: 167 167 105
Width: 1060
VWidth: 2150
GlyphClass: 1
Flags: W
LayerCount: 2
Fore
SplineSet
119.700195312 842.099609375 m 0,0,1
 119.700195312 929.25 119.700195312 929.25 167.474609375 992.775390625 c 128,-1,2
 215.25 1056.29980469 215.25 1056.29980469 275.099609375 1095.15039062 c 1,3,4
 205.799804688 1142.40039062 205.799804688 1142.40039062 168.525390625 1204.34960938 c 128,-1,5
 131.25 1266.29980469 131.25 1266.29980469 131.25 1345.04980469 c 0,6,7
 131.25 1480.5 131.25 1480.5 245.174804688 1565.54980469 c 128,-1,8
 359.099609375 1650.59960938 359.099609375 1650.59960938 557.549804688 1650.59960938 c 0,9,10
 664.650390625 1650.59960938 664.650390625 1650.59960938 761.25 1625.40039062 c 128,-1,11
 857.849609375 1600.20019531 857.849609375 1600.20019531 941.849609375 1561.34960938 c 1,12,-1
 847.349609375 1345.04980469 l 1,13,14
 778.049804688 1380.75 778.049804688 1380.75 701.924804688 1407.52539062 c 128,-1,15
 625.799804688 1434.29980469 625.799804688 1434.29980469 552.299804688 1434.29980469 c 0,16,17
 483 1434.29980469 483 1434.29980469 448.875 1412.77539062 c 128,-1,18
 414.75 1391.25 414.75 1391.25 414.75 1347.15039062 c 0,19,20
 414.75 1318.79980469 414.75 1318.79980469 433.650390625 1292.54980469 c 128,-1,21
 452.549804688 1266.29980469 452.549804688 1266.29980469 497.174804688 1239.52539062 c 128,-1,22
 541.799804688 1212.75 541.799804688 1212.75 617.400390625 1182.29980469 c 0,23,24
 728.700195312 1137.15039062 728.700195312 1137.15039062 804.299804688 1085.17480469 c 128,-1,25
 879.900390625 1033.20019531 879.900390625 1033.20019531 918.75 970.724609375 c 128,-1,26
 957.599609375 908.25 957.599609375 908.25 957.599609375 831.599609375 c 0,27,28
 957.599609375 724.5 957.599609375 724.5 915.075195312 662.549804688 c 128,-1,29
 872.549804688 600.599609375 872.549804688 600.599609375 813.75 560.700195312 c 1,30,31
 875.700195312 517.650390625 875.700195312 517.650390625 910.349609375 457.799804688 c 128,-1,32
 945 397.950195312 945 397.950195312 945 317.099609375 c 0,33,34
 945 166.950195312 945 166.950195312 825.299804688 71.9248046875 c 128,-1,35
 705.599609375 -23.099609375 705.599609375 -23.099609375 485.099609375 -23.099609375 c 0,36,37
 373.799804688 -23.099609375 373.799804688 -23.099609375 283.5 -1.0498046875 c 128,-1,38
 193.200195312 21 193.200195312 21 117.599609375 63 c 1,39,-1
 117.599609375 300.299804688 l 1,40,41
 175.349609375 269.849609375 175.349609375 269.849609375 241.5 245.174804688 c 128,-1,42
 307.650390625 220.5 307.650390625 220.5 371.700195312 206.325195312 c 128,-1,43
 435.75 192.150390625 435.75 192.150390625 486.150390625 192.150390625 c 0,44,45
 585.900390625 192.150390625 585.900390625 192.150390625 623.700195312 223.650390625 c 128,-1,46
 661.5 255.150390625 661.5 255.150390625 661.5 303.450195312 c 0,47,48
 661.5 336 661.5 336 646.799804688 360.674804688 c 128,-1,49
 632.099609375 385.349609375 632.099609375 385.349609375 589.575195312 411.599609375 c 128,-1,50
 547.049804688 437.849609375 547.049804688 437.849609375 463.049804688 473.549804688 c 0,51,52
 358.049804688 518.700195312 358.049804688 518.700195312 280.875 566.474609375 c 128,-1,53
 203.700195312 614.25 203.700195312 614.25 161.700195312 679.875 c 128,-1,54
 119.700195312 745.5 119.700195312 745.5 119.700195312 842.099609375 c 0,0,1
389.549804688 870.450195312 m 0,55,56
 389.549804688 830.549804688 389.549804688 830.549804688 412.125 798 c 128,-1,57
 434.700195312 765.450195312 434.700195312 765.450195312 481.424804688 734.474609375 c 128,-1,58
 528.150390625 703.5 528.150390625 703.5 600.599609375 669.900390625 c 2,59,-1
 622.650390625 659.400390625 l 1,60,61
 645.75 679.349609375 645.75 679.349609375 665.700195312 710.849609375 c 128,-1,62
 685.650390625 742.349609375 685.650390625 742.349609375 685.650390625 790.650390625 c 0,63,64
 685.650390625 831.599609375 685.650390625 831.599609375 666.75 865.724609375 c 128,-1,65
 647.849609375 899.849609375 647.849609375 899.849609375 600.599609375 931.875 c 128,-1,66
 553.349609375 963.900390625 553.349609375 963.900390625 467.25 996.450195312 c 1,67,68
 436.799804688 982.799804688 436.799804688 982.799804688 413.174804688 950.25 c 128,-1,69
 389.549804688 917.700195312 389.549804688 917.700195312 389.549804688 870.450195312 c 0,55,56
EndSplineSet
Validated: 1
EndChar
StartChar: ordfeminine
Encoding: 170 170 108
Width: 838
VWidth: 2150
GlyphClass: 2
Flags: W
AnchorPoint: "Anchor-1" 402.15 783.3 basechar 0
AnchorPoint: "Anchor-0" 402.15 1559.25 basechar 0
LayerCount: 2
Fore
SplineSet
444.150390625 1552.95019531 m 0,0,1
 590.099609375 1552.95019531 590.099609375 1552.95019531 670.424804688 1476.29980469 c 128,-1,2
 750.75 1399.65039062 750.75 1399.65039062 750.75 1257.90039062 c 2,3,-1
 750.75 790.650390625 l 1,4,-1
 594.299804688 790.650390625 l 1,5,-1
 554.400390625 914.549804688 l 1,6,7
 509.25 848.400390625 509.25 848.400390625 447.825195312 813.224609375 c 128,-1,8
 386.400390625 778.049804688 386.400390625 778.049804688 300.299804688 778.049804688 c 0,9,10
 227.849609375 778.049804688 227.849609375 778.049804688 171.150390625 804.299804688 c 128,-1,11
 114.450195312 830.549804688 114.450195312 830.549804688 82.4248046875 884.099609375 c 128,-1,12
 50.400390625 937.650390625 50.400390625 937.650390625 50.400390625 1019.54980469 c 0,13,14
 50.400390625 1107.75 50.400390625 1107.75 93.4501953125 1158.67480469 c 128,-1,15
 136.5 1209.59960938 136.5 1209.59960938 217.875 1233.22460938 c 128,-1,16
 299.25 1256.84960938 299.25 1256.84960938 414.75 1262.09960938 c 2,17,-1
 513.450195312 1266.29980469 l 1,18,-1
 513.450195312 1278.90039062 l 2,19,20
 513.450195312 1325.09960938 513.450195312 1325.09960938 483 1348.20019531 c 128,-1,21
 452.549804688 1371.29980469 452.549804688 1371.29980469 392.700195312 1371.29980469 c 0,22,23
 340.200195312 1371.29980469 340.200195312 1371.29980469 286.650390625 1355.54980469 c 128,-1,24
 233.099609375 1339.79980469 233.099609375 1339.79980469 168 1310.40039062 c 1,25,-1
 93.4501953125 1467.90039062 l 1,26,27
 168 1504.65039062 168 1504.65039062 248.849609375 1528.79980469 c 128,-1,28
 329.700195312 1552.95019531 329.700195312 1552.95019531 444.150390625 1552.95019531 c 0,0,1
513.450195312 1131.90039062 m 1,29,-1
 416.849609375 1125.59960938 l 2,30,31
 337.049804688 1120.34960938 337.049804688 1120.34960938 313.950195312 1090.42480469 c 128,-1,32
 290.849609375 1060.5 290.849609375 1060.5 290.849609375 1026.90039062 c 0,33,34
 290.849609375 990.150390625 290.849609375 990.150390625 312.375 971.25 c 128,-1,35
 333.900390625 952.349609375 333.900390625 952.349609375 368.549804688 952.349609375 c 0,36,37
 437.849609375 952.349609375 437.849609375 952.349609375 475.650390625 996.450195312 c 128,-1,38
 513.450195312 1040.54980469 513.450195312 1040.54980469 513.450195312 1101.45019531 c 2,39,-1
 513.450195312 1131.90039062 l 1,29,-1
EndSplineSet
Validated: 1
EndChar
StartChar: logicalnot
Encoding: 172 172 110
Width: 1245
VWidth: 2150
GlyphClass: 1
Flags: W
LayerCount: 2
Fore
SplineSet
1148.70019531 886.200195312 m 1,0,-1
 1148.70019531 255.150390625 l 1,1,-1
 891.450195312 255.150390625 l 1,2,-1
 891.450195312 630 l 1,3,-1
 94.5 630 l 1,4,-1
 94.5 886.200195312 l 1,5,-1
 1148.70019531 886.200195312 l 1,0,-1
EndSplineSet
Validated: 1
EndChar
StartChar: acute
Encoding: 180 180 118
Width: 838
VWidth: 2150
GlyphClass: 1
Flags: W
LayerCount: 2
Fore
SplineSet
752.849609375 1647.45019531 m 1,0,-1
 752.849609375 1625.40039062 l 1,1,2
 718.200195312 1596 718.200195312 1596 664.125 1552.42480469 c 128,-1,3
 610.049804688 1508.84960938 610.049804688 1508.84960938 549.150390625 1462.125 c 128,-1,4
 488.25 1415.40039062 488.25 1415.40039062 429.974609375 1373.40039062 c 128,-1,5
 371.700195312 1331.40039062 371.700195312 1331.40039062 329.700195312 1303.04980469 c 1,6,-1
 86.099609375 1303.04980469 l 1,7,-1
 86.099609375 1332.45019531 l 1,8,9
 121.799804688 1372.34960938 121.799804688 1372.34960938 170.625 1427.47460938 c 128,-1,10
 219.450195312 1482.59960938 219.450195312 1482.59960938 267.75 1540.875 c 128,-1,11
 316.049804688 1599.15039062 316.049804688 1599.15039062 348.599609375 1647.45019531 c 1,12,-1
 752.849609375 1647.45019531 l 1,0,-1
EndSplineSet
Validated: 1
EndChar
StartChar: uni00B5
Encoding: 181 181 119
Width: 1432
VWidth: 2150
GlyphClass: 1
Flags: W
LayerCount: 2
Fore
SplineSet
1277.84960938 1182.29980469 m 1,0,-1
 1277.84960938 0 l 1,1,-1
 1002.75 0 l 1,2,-1
 952.349609375 158.549804688 l 1,3,-1
 935.549804688 158.549804688 l 1,4,5
 910.349609375 98.7001953125 910.349609375 98.7001953125 873.599609375 58.7998046875 c 128,-1,6
 836.849609375 18.900390625 836.849609375 18.900390625 791.700195312 -1.0498046875 c 128,-1,7
 746.549804688 -21 746.549804688 -21 693 -21 c 0,8,9
 632.099609375 -21 632.099609375 -21 589.049804688 2.099609375 c 128,-1,10
 546 25.2001953125 546 25.2001953125 514.5 70.349609375 c 1,11,-1
 509.25 70.349609375 l 1,12,13
 512.400390625 44.099609375 512.400390625 44.099609375 515.025390625 0 c 128,-1,14
 517.650390625 -44.099609375 517.650390625 -44.099609375 519.224609375 -92.400390625 c 128,-1,15
 520.799804688 -140.700195312 520.799804688 -140.700195312 520.799804688 -180.599609375 c 2,16,-1
 520.799804688 -516.599609375 l 1,17,-1
 155.400390625 -516.599609375 l 1,18,-1
 155.400390625 1182.29980469 l 1,19,-1
 520.799804688 1182.29980469 l 1,20,-1
 520.799804688 516.599609375 l 2,21,22
 520.799804688 392.700195312 520.799804688 392.700195312 561.224609375 330.75 c 128,-1,23
 601.650390625 268.799804688 601.650390625 268.799804688 693 268.799804688 c 0,24,25
 775.950195312 268.799804688 775.950195312 268.799804688 823.200195312 312.375 c 128,-1,26
 870.450195312 355.950195312 870.450195312 355.950195312 890.924804688 439.950195312 c 128,-1,27
 911.400390625 523.950195312 911.400390625 523.950195312 911.400390625 645.75 c 2,28,-1
 911.400390625 1182.29980469 l 1,29,-1
 1277.84960938 1182.29980469 l 1,0,-1
EndSplineSet
Validated: 1
EndChar
StartChar: ordmasculine
Encoding: 186 186 124
Width: 838
VWidth: 2150
GlyphClass: 2
Flags: W
AnchorPoint: "Anchor-1" 416.85 773.85 basechar 0
AnchorPoint: "Anchor-0" 430.5 1559.25 basechar 0
LayerCount: 2
Fore
SplineSet
784.349609375 1165.5 m 0,0,1
 784.349609375 981.75 784.349609375 981.75 684.599609375 879.900390625 c 128,-1,2
 584.849609375 778.049804688 584.849609375 778.049804688 416.849609375 778.049804688 c 0,3,4
 259.349609375 778.049804688 259.349609375 778.049804688 157.5 880.424804688 c 128,-1,5
 55.650390625 982.799804688 55.650390625 982.799804688 55.650390625 1165.5 c 0,6,7
 55.650390625 1351.34960938 55.650390625 1351.34960938 153.825195312 1452.15039062 c 128,-1,8
 252 1552.95019531 252 1552.95019531 421.049804688 1552.95019531 c 0,9,10
 525 1552.95019531 525 1552.95019531 606.375 1507.27539062 c 128,-1,11
 687.75 1461.59960938 687.75 1461.59960938 736.049804688 1374.97460938 c 128,-1,12
 784.349609375 1288.34960938 784.349609375 1288.34960938 784.349609375 1165.5 c 0,0,1
295.049804688 1165.5 m 256,13,14
 295.049804688 1067.84960938 295.049804688 1067.84960938 324.450195312 1019.02539062 c 128,-1,15
 353.849609375 970.200195312 353.849609375 970.200195312 418.950195312 970.200195312 c 0,16,17
 483 970.200195312 483 970.200195312 512.400390625 1019.02539062 c 128,-1,18
 541.799804688 1067.84960938 541.799804688 1067.84960938 541.799804688 1165.5 c 256,19,20
 541.799804688 1263.15039062 541.799804688 1263.15039062 512.400390625 1312.5 c 128,-1,21
 483 1361.84960938 483 1361.84960938 418.950195312 1361.84960938 c 0,22,23
 353.849609375 1361.84960938 353.849609375 1361.84960938 324.450195312 1312.5 c 128,-1,24
 295.049804688 1263.15039062 295.049804688 1263.15039062 295.049804688 1165.5 c 256,13,14
EndSplineSet
Validated: 1
EndChar
StartChar: onehalf
Encoding: 189 189 127
Width: 1935
VWidth: 2150
GlyphClass: 1
Flags: W
LayerCount: 2
Fore
SplineSet
367.5 0 m 1,0,-1
 1189.65039062 1535.09960938 l 1,1,-1
 1473.15039062 1535.09960938 l 1,2,-1
 652.049804688 0 l 1,3,-1
 367.5 0 l 1,0,-1
296.099609375 615.299804688 m 1,4,-1
 296.099609375 1036.34960938 l 2,5,6
 296.099609375 1052.09960938 296.099609375 1052.09960938 296.625 1084.65039062 c 128,-1,7
 297.150390625 1117.20019531 297.150390625 1117.20019531 299.25 1155 c 128,-1,8
 301.349609375 1192.79980469 301.349609375 1192.79980469 302.924804688 1221.67480469 c 128,-1,9
 304.5 1250.54980469 304.5 1250.54980469 305.549804688 1258.95019531 c 1,10,11
 297.150390625 1246.34960938 297.150390625 1246.34960938 274.575195312 1222.20019531 c 128,-1,12
 252 1198.04980469 252 1198.04980469 232.049804688 1180.20019531 c 2,13,-1
 151.200195312 1111.95019531 l 1,14,-1
 17.849609375 1268.40039062 l 1,15,-1
 353.849609375 1535.09960938 l 1,16,-1
 569.099609375 1535.09960938 l 1,17,-1
 569.099609375 615.299804688 l 1,18,-1
 296.099609375 615.299804688 l 1,4,-1
1167.59960938 0 m 1,19,-1
 1167.59960938 197.400390625 l 1,20,-1
 1397.54980469 424.200195312 l 2,21,22
 1460.54980469 485.099609375 1460.54980469 485.099609375 1495.72460938 526.049804688 c 128,-1,23
 1530.90039062 567 1530.90039062 567 1545.59960938 597.974609375 c 128,-1,24
 1560.29980469 628.950195312 1560.29980469 628.950195312 1560.29980469 659.400390625 c 0,25,26
 1560.29980469 694.049804688 1560.29980469 694.049804688 1538.77539062 712.424804688 c 128,-1,27
 1517.25 730.799804688 1517.25 730.799804688 1479.45019531 730.799804688 c 0,28,29
 1437.45019531 730.799804688 1437.45019531 730.799804688 1391.77539062 708.224609375 c 128,-1,30
 1346.09960938 685.650390625 1346.09960938 685.650390625 1294.65039062 637.349609375 c 1,31,-1
 1156.04980469 804.299804688 l 1,32,33
 1232.70019531 873.599609375 1232.70019531 873.599609375 1320.90039062 908.25 c 128,-1,34
 1409.09960938 942.900390625 1409.09960938 942.900390625 1526.70019531 942.900390625 c 0,35,36
 1670.54980469 942.900390625 1670.54980469 942.900390625 1754.02539062 876.75 c 128,-1,37
 1837.5 810.599609375 1837.5 810.599609375 1837.5 687.75 c 0,38,39
 1837.5 626.849609375 1837.5 626.849609375 1816.5 574.349609375 c 128,-1,40
 1795.5 521.849609375 1795.5 521.849609375 1754.02539062 471.450195312 c 128,-1,41
 1712.54980469 421.049804688 1712.54980469 421.049804688 1652.70019531 364.349609375 c 2,42,-1
 1495.20019531 223.650390625 l 1,43,-1
 1861.65039062 223.650390625 l 1,44,-1
 1861.65039062 0 l 1,45,-1
 1167.59960938 0 l 1,19,-1
EndSplineSet
Validated: 1
EndChar
StartChar: threequarters
Encoding: 190 190 128
Width: 1900
VWidth: 2150
GlyphClass: 1
Flags: W
LayerCount: 2
Fore
SplineSet
449.400390625 0 m 1,0,-1
 1271.54980469 1535.09960938 l 1,1,-1
 1555.04980469 1535.09960938 l 1,2,-1
 733.950195312 0 l 1,3,-1
 449.400390625 0 l 1,0,-1
400.049804688 597.450195312 m 0,4,5
 311.849609375 597.450195312 311.849609375 597.450195312 236.775390625 615.825195312 c 128,-1,6
 161.700195312 634.200195312 161.700195312 634.200195312 94.5 670.950195312 c 1,7,-1
 94.5 893.549804688 l 1,8,9
 160.650390625 850.5 160.650390625 850.5 233.625 826.875 c 128,-1,10
 306.599609375 803.25 306.599609375 803.25 392.700195312 803.25 c 0,11,12
 462 803.25 462 803.25 495.599609375 826.349609375 c 128,-1,13
 529.200195312 849.450195312 529.200195312 849.450195312 529.200195312 894.599609375 c 0,14,15
 529.200195312 937.650390625 529.200195312 937.650390625 494.025390625 962.849609375 c 128,-1,16
 458.849609375 988.049804688 458.849609375 988.049804688 371.700195312 988.049804688 c 2,17,-1
 257.25 988.049804688 l 1,18,-1
 257.25 1173.90039062 l 1,19,-1
 347.549804688 1173.90039062 l 2,20,21
 439.950195312 1173.90039062 439.950195312 1173.90039062 473.025390625 1201.20019531 c 128,-1,22
 506.099609375 1228.5 506.099609375 1228.5 506.099609375 1272.59960938 c 0,23,24
 506.099609375 1305.15039062 506.099609375 1305.15039062 482.474609375 1329.82519531 c 128,-1,25
 458.849609375 1354.5 458.849609375 1354.5 405.299804688 1354.5 c 0,26,27
 354.900390625 1354.5 354.900390625 1354.5 309.75 1335.59960938 c 128,-1,28
 264.599609375 1316.70019531 264.599609375 1316.70019531 206.849609375 1274.70019531 c 1,29,-1
 92.400390625 1437.45019531 l 1,30,31
 164.849609375 1492.04980469 164.849609375 1492.04980469 248.849609375 1523.54980469 c 128,-1,32
 332.849609375 1555.04980469 332.849609375 1555.04980469 437.849609375 1555.04980469 c 0,33,34
 580.650390625 1555.04980469 580.650390625 1555.04980469 668.849609375 1492.04980469 c 128,-1,35
 757.049804688 1429.04980469 757.049804688 1429.04980469 757.049804688 1320.90039062 c 0,36,37
 757.049804688 1243.20019531 757.049804688 1243.20019531 716.099609375 1188.59960938 c 128,-1,38
 675.150390625 1134 675.150390625 1134 582.75 1101.45019531 c 1,39,-1
 582.75 1089.90039062 l 1,40,41
 687.75 1066.79980469 687.75 1066.79980469 737.625 1008.52539062 c 128,-1,42
 787.5 950.25 787.5 950.25 787.5 867.299804688 c 0,43,44
 787.5 740.25 787.5 740.25 689.325195312 668.849609375 c 128,-1,45
 591.150390625 597.450195312 591.150390625 597.450195312 400.049804688 597.450195312 c 0,4,5
1480.5 0 m 1,46,-1
 1480.5 153.299804688 l 1,47,-1
 1085.70019531 153.299804688 l 1,48,-1
 1085.70019531 332.849609375 l 1,49,-1
 1471.04980469 927.150390625 l 1,50,-1
 1749.29980469 927.150390625 l 1,51,-1
 1749.29980469 346.5 l 1,52,-1
 1880.54980469 346.5 l 1,53,-1
 1880.54980469 153.299804688 l 1,54,-1
 1749.29980469 153.299804688 l 1,55,-1
 1749.29980469 0 l 1,56,-1
 1480.5 0 l 1,46,-1
1293.59960938 346.5 m 1,57,-1
 1480.5 346.5 l 1,58,-1
 1480.5 519.75 l 2,59,60
 1480.5 559.650390625 1480.5 559.650390625 1482.59960938 602.174804688 c 128,-1,61
 1484.70019531 644.700195312 1484.70019531 644.700195312 1487.84960938 687.75 c 1,62,63
 1471.04980469 645.75 1471.04980469 645.75 1450.57519531 602.174804688 c 128,-1,64
 1430.09960938 558.599609375 1430.09960938 558.599609375 1414.34960938 534.450195312 c 2,65,-1
 1293.59960938 346.5 l 1,57,-1
EndSplineSet
Validated: 1
EndChar
StartChar: Thorn
Encoding: 222 222 160
Width: 1349
VWidth: 2150
GlyphClass: 2
Flags: W
AnchorPoint: "Anchor-1" 675.15 0 basechar 0
AnchorPoint: "Anchor-0" 675.15 1535.1 basechar 0
LayerCount: 2
Fore
SplineSet
1267.34960938 815.849609375 m 0,0,1
 1267.34960938 714 1267.34960938 714 1237.42480469 621.075195312 c 128,-1,2
 1207.5 528.150390625 1207.5 528.150390625 1140.29980469 455.174804688 c 128,-1,3
 1073.09960938 382.200195312 1073.09960938 382.200195312 962.325195312 339.674804688 c 128,-1,4
 851.549804688 297.150390625 851.549804688 297.150390625 688.799804688 297.150390625 c 2,5,-1
 550.200195312 297.150390625 l 1,6,-1
 550.200195312 0 l 1,7,-1
 179.549804688 0 l 1,8,-1
 179.549804688 1535.09960938 l 1,9,-1
 550.200195312 1535.09960938 l 1,10,-1
 550.200195312 1303.04980469 l 1,11,-1
 701.400390625 1303.04980469 l 2,12,13
 989.099609375 1303.04980469 989.099609375 1303.04980469 1128.22460938 1173.375 c 128,-1,14
 1267.34960938 1043.70019531 1267.34960938 1043.70019531 1267.34960938 815.849609375 c 0,0,1
550.200195312 597.450195312 m 1,15,-1
 640.5 597.450195312 l 2,16,17
 717.150390625 597.450195312 717.150390625 597.450195312 773.849609375 619.5 c 128,-1,18
 830.549804688 641.549804688 830.549804688 641.549804688 861.525390625 689.849609375 c 128,-1,19
 892.5 738.150390625 892.5 738.150390625 892.5 814.799804688 c 0,20,21
 892.5 907.200195312 892.5 907.200195312 838.950195312 955.5 c 128,-1,22
 785.400390625 1003.79980469 785.400390625 1003.79980469 668.849609375 1003.79980469 c 2,23,-1
 550.200195312 1003.79980469 l 1,24,-1
 550.200195312 597.450195312 l 1,15,-1
EndSplineSet
Validated: 1
EndChar
StartChar: eth
Encoding: 240 240 178
Width: 1355
VWidth: 2150
GlyphClass: 2
Flags: W
AnchorPoint: "Anchor-1" 678.3 0 basechar 0
AnchorPoint: "Anchor-0" 678.3 1649.55 basechar 0
LayerCount: 2
Fore
SplineSet
492.450195312 1648.5 m 1,0,1
 572.25 1613.84960938 572.25 1613.84960938 640.5 1578.67480469 c 128,-1,2
 708.75 1543.5 708.75 1543.5 767.549804688 1503.59960938 c 1,3,-1
 995.400390625 1648.5 l 1,4,-1
 1108.79980469 1472.09960938 l 1,5,-1
 942.900390625 1367.09960938 l 1,6,7
 1045.79980469 1269.45019531 1045.79980469 1269.45019531 1115.625 1157.625 c 128,-1,8
 1185.45019531 1045.79980469 1185.45019531 1045.79980469 1221.15039062 910.349609375 c 128,-1,9
 1256.84960938 774.900390625 1256.84960938 774.900390625 1256.84960938 605.849609375 c 0,10,11
 1256.84960938 409.5 1256.84960938 409.5 1184.92480469 268.799804688 c 128,-1,12
 1113 128.099609375 1113 128.099609375 981.75 53.5498046875 c 128,-1,13
 850.5 -21 850.5 -21 672 -21 c 0,14,15
 504 -21 504 -21 373.799804688 41.474609375 c 128,-1,16
 243.599609375 103.950195312 243.599609375 103.950195312 169.049804688 224.174804688 c 128,-1,17
 94.5 344.400390625 94.5 344.400390625 94.5 518.700195312 c 0,18,19
 94.5 691.950195312 94.5 691.950195312 160.125 811.650390625 c 128,-1,20
 225.75 931.349609375 225.75 931.349609375 339.674804688 993.299804688 c 128,-1,21
 453.599609375 1055.25 453.599609375 1055.25 598.5 1055.25 c 0,22,23
 669.900390625 1055.25 669.900390625 1055.25 722.924804688 1044.22460938 c 128,-1,24
 775.950195312 1033.20019531 775.950195312 1033.20019531 813.224609375 1012.20019531 c 128,-1,25
 850.5 991.200195312 850.5 991.200195312 871.5 959.700195312 c 1,26,-1
 879.900390625 963.900390625 l 1,27,28
 846.299804688 1036.34960938 846.299804688 1036.34960938 804.825195312 1098.29980469 c 128,-1,29
 763.349609375 1160.25 763.349609375 1160.25 703.5 1218 c 1,30,-1
 487.200195312 1080.45019531 l 1,31,-1
 373.799804688 1258.95019531 l 1,32,-1
 540.75 1362.90039062 l 1,33,34
 506.099609375 1386 506.099609375 1386 465.674804688 1411.20019531 c 128,-1,35
 425.25 1436.40039062 425.25 1436.40039062 383.25 1460.54980469 c 1,36,-1
 492.450195312 1648.5 l 1,0,1
676.200195312 789.599609375 m 0,37,38
 600.599609375 789.599609375 600.599609375 789.599609375 554.924804688 760.200195312 c 128,-1,39
 509.25 730.799804688 509.25 730.799804688 488.775390625 670.950195312 c 128,-1,40
 468.299804688 611.099609375 468.299804688 611.099609375 468.299804688 518.700195312 c 0,41,42
 468.299804688 435.75 468.299804688 435.75 489.299804688 373.799804688 c 128,-1,43
 510.299804688 311.849609375 510.299804688 311.849609375 555.974609375 277.724609375 c 128,-1,44
 601.650390625 243.599609375 601.650390625 243.599609375 676.200195312 243.599609375 c 0,45,46
 788.549804688 243.599609375 788.549804688 243.599609375 835.799804688 323.924804688 c 128,-1,47
 883.049804688 404.25 883.049804688 404.25 883.049804688 565.950195312 c 0,48,49
 883.049804688 609 883.049804688 609 870.450195312 648.900390625 c 128,-1,50
 857.849609375 688.799804688 857.849609375 688.799804688 832.650390625 720.299804688 c 128,-1,51
 807.450195312 751.799804688 807.450195312 751.799804688 768.599609375 770.700195312 c 128,-1,52
 729.75 789.599609375 729.75 789.599609375 676.200195312 789.599609375 c 0,37,38
EndSplineSet
Validated: 1
EndChar
StartChar: divide
Encoding: 247 247 185
Width: 1245
VWidth: 2150
GlyphClass: 1
Flags: W
LayerCount: 2
Fore
SplineSet
94.5 630 m 1,0,-1
 94.5 886.200195312 l 1,1,-1
 1148.70019531 886.200195312 l 1,2,-1
 1148.70019531 630 l 1,3,-1
 94.5 630 l 1,0,-1
620.549804688 201.599609375 m 0,4,5
 557.549804688 201.599609375 557.549804688 201.599609375 511.349609375 241.5 c 128,-1,6
 465.150390625 281.400390625 465.150390625 281.400390625 465.150390625 370.650390625 c 0,7,8
 465.150390625 464.099609375 465.150390625 464.099609375 511.349609375 501.375 c 128,-1,9
 557.549804688 538.650390625 557.549804688 538.650390625 620.549804688 538.650390625 c 0,10,11
 682.5 538.650390625 682.5 538.650390625 729.75 501.375 c 128,-1,12
 777 464.099609375 777 464.099609375 777 370.650390625 c 0,13,14
 777 281.400390625 777 281.400390625 729.75 241.5 c 128,-1,15
 682.5 201.599609375 682.5 201.599609375 620.549804688 201.599609375 c 0,4,5
620.549804688 977.549804688 m 0,16,17
 557.549804688 977.549804688 557.549804688 977.549804688 511.349609375 1017.97460938 c 128,-1,18
 465.150390625 1058.40039062 465.150390625 1058.40039062 465.150390625 1146.59960938 c 0,19,20
 465.150390625 1241.09960938 465.150390625 1241.09960938 511.349609375 1278.375 c 128,-1,21
 557.549804688 1315.65039062 557.549804688 1315.65039062 620.549804688 1315.65039062 c 0,22,23
 682.5 1315.65039062 682.5 1315.65039062 729.75 1278.375 c 128,-1,24
 777 1241.09960938 777 1241.09960938 777 1146.59960938 c 0,25,26
 777 1058.40039062 777 1058.40039062 729.75 1017.97460938 c 128,-1,27
 682.5 977.549804688 682.5 977.549804688 620.549804688 977.549804688 c 0,16,17
EndSplineSet
Validated: 1
EndChar
StartChar: oslash
Encoding: 248 248 186
Width: 1380
VWidth: 2150
GlyphClass: 2
Flags: W
AnchorPoint: "Anchor-1" 691.95 0 basechar 0
AnchorPoint: "Anchor-0" 694.05 1182.3 basechar 0
LayerCount: 2
Fore
SplineSet
1286.25 593.25 m 0,0,1
 1286.25 396.900390625 1286.25 396.900390625 1214.32519531 259.349609375 c 128,-1,2
 1142.40039062 121.799804688 1142.40039062 121.799804688 1008 50.400390625 c 128,-1,3
 873.599609375 -21 873.599609375 -21 687.75 -21 c 0,4,5
 621.599609375 -21 621.599609375 -21 560.700195312 -9.974609375 c 128,-1,6
 499.799804688 1.0498046875 499.799804688 1.0498046875 444.150390625 21 c 1,7,-1
 365.400390625 -100.799804688 l 1,8,-1
 195.299804688 10.5 l 1,9,-1
 271.950195312 127.049804688 l 1,10,11
 187.950195312 205.799804688 187.950195312 205.799804688 140.700195312 322.875 c 128,-1,12
 93.4501953125 439.950195312 93.4501953125 439.950195312 93.4501953125 593.25 c 0,13,14
 93.4501953125 887.25 93.4501953125 887.25 253.575195312 1045.27539062 c 128,-1,15
 413.700195312 1203.29980469 413.700195312 1203.29980469 694.049804688 1203.29980469 c 0,16,17
 762.299804688 1203.29980469 762.299804688 1203.29980469 826.349609375 1191.22460938 c 128,-1,18
 890.400390625 1179.15039062 890.400390625 1179.15039062 947.099609375 1156.04980469 c 1,19,-1
 1013.25 1256.84960938 l 1,20,-1
 1181.25 1145.54980469 l 1,21,-1
 1115.09960938 1046.84960938 l 1,22,23
 1195.95019531 970.200195312 1195.95019531 970.200195312 1241.09960938 855.75 c 128,-1,24
 1286.25 741.299804688 1286.25 741.299804688 1286.25 593.25 c 0,0,1
453.599609375 593.25 m 0,25,26
 453.599609375 544.950195312 453.599609375 544.950195312 457.799804688 504.525390625 c 128,-1,27
 462 464.099609375 462 464.099609375 470.400390625 429.450195312 c 1,28,-1
 788.549804688 913.5 l 1,29,30
 767.549804688 922.950195312 767.549804688 922.950195312 742.875 927.674804688 c 128,-1,31
 718.200195312 932.400390625 718.200195312 932.400390625 689.849609375 932.400390625 c 0,32,33
 562.799804688 932.400390625 562.799804688 932.400390625 508.200195312 847.349609375 c 128,-1,34
 453.599609375 762.299804688 453.599609375 762.299804688 453.599609375 593.25 c 0,25,26
926.099609375 593.25 m 0,35,36
 926.099609375 634.200195312 926.099609375 634.200195312 923.474609375 670.424804688 c 128,-1,37
 920.849609375 706.650390625 920.849609375 706.650390625 914.549804688 736.049804688 c 1,38,-1
 603.75 261.450195312 l 1,39,40
 622.650390625 255.150390625 622.650390625 255.150390625 644.700195312 252.525390625 c 128,-1,41
 666.75 249.900390625 666.75 249.900390625 691.950195312 249.900390625 c 0,42,43
 778.049804688 249.900390625 778.049804688 249.900390625 829.5 288.75 c 128,-1,44
 880.950195312 327.599609375 880.950195312 327.599609375 903.525390625 404.25 c 128,-1,45
 926.099609375 480.900390625 926.099609375 480.900390625 926.099609375 593.25 c 0,35,36
EndSplineSet
Validated: 1
EndChar
StartChar: Hbar
Encoding: 294 294 232
Width: 1664
VWidth: 2150
GlyphClass: 2
Flags: W
AnchorPoint: "Anchor-1" 832.65 0 basechar 0
AnchorPoint: "Anchor-0" 832.65 1535.1 basechar 0
LayerCount: 2
Fore
SplineSet
187.950195312 0 m 1,0,-1
 187.950195312 1121.40039062 l 1,1,-1
 0 1121.40039062 l 1,2,-1
 0 1348.20019531 l 1,3,-1
 187.950195312 1348.20019531 l 1,4,-1
 187.950195312 1535.09960938 l 1,5,-1
 558.599609375 1535.09960938 l 1,6,-1
 558.599609375 1348.20019531 l 1,7,-1
 1104.59960938 1348.20019531 l 1,8,-1
 1104.59960938 1535.09960938 l 1,9,-1
 1475.25 1535.09960938 l 1,10,-1
 1475.25 1348.20019531 l 1,11,-1
 1664.25 1348.20019531 l 1,12,-1
 1664.25 1121.40039062 l 1,13,-1
 1475.25 1121.40039062 l 1,14,-1
 1475.25 0 l 1,15,-1
 1104.59960938 0 l 1,16,-1
 1104.59960938 644.700195312 l 1,17,-1
 558.599609375 644.700195312 l 1,18,-1
 558.599609375 0 l 1,19,-1
 187.950195312 0 l 1,0,-1
558.599609375 950.25 m 1,20,-1
 1104.59960938 950.25 l 1,21,-1
 1104.59960938 1121.40039062 l 1,22,-1
 558.599609375 1121.40039062 l 1,23,-1
 558.599609375 950.25 l 1,20,-1
EndSplineSet
Validated: 1
EndChar
StartChar: hbar
Encoding: 295 295 233
Width: 1438
VWidth: 2150
GlyphClass: 2
Flags: W
AnchorPoint: "Anchor-1" 719.25 0 basechar 0
AnchorPoint: "Anchor-0" 343.35 1633.8 basechar 0
LayerCount: 2
Fore
SplineSet
531.299804688 1633.79980469 m 1,0,-1
 531.299804688 1472.09960938 l 1,1,-1
 819 1472.09960938 l 1,2,-1
 819 1241.09960938 l 1,3,-1
 530.25 1241.09960938 l 1,4,-1
 530.25 1209.59960938 l 2,5,6
 530.25 1141.34960938 530.25 1141.34960938 525 1065.22460938 c 128,-1,7
 519.75 989.099609375 519.75 989.099609375 515.549804688 948.150390625 c 1,8,-1
 536.549804688 948.150390625 l 1,9,10
 575.400390625 1009.04980469 575.400390625 1009.04980469 624.75 1046.32519531 c 128,-1,11
 674.099609375 1083.59960938 674.099609375 1083.59960938 735.525390625 1100.92480469 c 128,-1,12
 796.950195312 1118.25 796.950195312 1118.25 869.400390625 1118.25 c 0,13,14
 992.25 1118.25 992.25 1118.25 1086.75 1073.09960938 c 128,-1,15
 1181.25 1027.95019531 1181.25 1027.95019531 1234.79980469 932.924804688 c 128,-1,16
 1288.34960938 837.900390625 1288.34960938 837.900390625 1288.34960938 686.700195312 c 2,17,-1
 1288.34960938 0 l 1,18,-1
 921.900390625 0 l 1,19,-1
 921.900390625 582.75 l 2,20,21
 921.900390625 705.599609375 921.900390625 705.599609375 881.474609375 767.549804688 c 128,-1,22
 841.049804688 829.5 841.049804688 829.5 756 829.5 c 256,23,24
 670.950195312 829.5 670.950195312 829.5 621.599609375 785.400390625 c 128,-1,25
 572.25 741.299804688 572.25 741.299804688 551.775390625 657.299804688 c 128,-1,26
 531.299804688 573.299804688 531.299804688 573.299804688 531.299804688 451.5 c 2,27,-1
 531.299804688 0 l 1,28,-1
 165.900390625 0 l 1,29,-1
 165.900390625 1241.09960938 l 1,30,-1
 2.099609375 1241.09960938 l 1,31,-1
 2.099609375 1472.09960938 l 1,32,-1
 165.900390625 1472.09960938 l 1,33,-1
 165.900390625 1633.79980469 l 1,34,-1
 531.299804688 1633.79980469 l 1,0,-1
EndSplineSet
Validated: 1
EndChar
StartChar: dotlessi
Encoding: 305 305 943
Width: 678
VWidth: 2150
GlyphClass: 2
Flags: W
AnchorPoint: "Anchor-1" 343.35 0 basechar 0
AnchorPoint: "Anchor-0" 340.2 1182.3 basechar 0
LayerCount: 2
Fore
SplineSet
521.849609375 0 m 1,0,-1
 156.450195312 0 l 1,1,-1
 156.450195312 1182.29980469 l 1,2,-1
 521.849609375 1182.29980469 l 1,3,-1
 521.849609375 0 l 1,0,-1
EndSplineSet
Validated: 1
EndChar
StartChar: kgreenlandic
Encoding: 312 312 249
Width: 1375
VWidth: 2150
GlyphClass: 2
Flags: W
AnchorPoint: "Anchor-1" 688.8 0 basechar 0
AnchorPoint: "Anchor-0" 688.8 1182.3 basechar 0
LayerCount: 2
Fore
SplineSet
1351.34960938 1182.29980469 m 1,0,-1
 908.25 653.099609375 l 1,1,-1
 1375.5 0 l 1,2,-1
 961.799804688 0 l 1,3,-1
 664.650390625 433.650390625 l 1,4,-1
 521.849609375 334.950195312 l 1,5,-1
 521.849609375 0 l 1,6,-1
 155.400390625 0 l 1,7,-1
 155.400390625 1182.29980469 l 1,8,-1
 521.849609375 1182.29980469 l 1,9,-1
 521.849609375 898.799804688 l 2,10,11
 520.799804688 822.150390625 520.799804688 822.150390625 518.700195312 758.625 c 128,-1,12
 516.599609375 695.099609375 516.599609375 695.099609375 513.450195312 643.650390625 c 1,13,-1
 519.75 643.650390625 l 1,14,15
 548.099609375 679.349609375 548.099609375 679.349609375 582.224609375 726.075195312 c 128,-1,16
 616.349609375 772.799804688 616.349609375 772.799804688 657.299804688 824.25 c 2,17,-1
 951.299804688 1182.29980469 l 1,18,-1
 1351.34960938 1182.29980469 l 1,0,-1
EndSplineSet
Validated: 1
EndChar
StartChar: Uhorn
Encoding: 431 431 598
Width: 1919
VWidth: 2150
GlyphClass: 2
Flags: W
AnchorPoint: "Anchor-1" 803.25 0 basechar 0
AnchorPoint: "Anchor-0" 813.75 1535.1 basechar 0
LayerCount: 2
Fore
SplineSet
1457.40039062 1535.09960938 m 1,0,-1
 1457.40039062 1330.34960938 l 1,1,2
 1508.84960938 1353.45019531 1508.84960938 1353.45019531 1540.875 1398.07519531 c 128,-1,3
 1572.90039062 1442.70019531 1572.90039062 1442.70019531 1587.59960938 1503.59960938 c 128,-1,4
 1602.29980469 1564.5 1602.29980469 1564.5 1602.29980469 1633.79980469 c 1,5,-1
 1958.25 1633.79980469 l 1,6,-1
 1972.95019531 1610.70019531 l 1,7,8
 1954.04980469 1520.40039062 1954.04980469 1520.40039062 1923.59960938 1439.02539062 c 128,-1,9
 1893.15039062 1357.65039062 1893.15039062 1357.65039062 1837.5 1292.02539062 c 128,-1,10
 1781.84960938 1226.40039062 1781.84960938 1226.40039062 1689.97460938 1181.25 c 128,-1,11
 1598.09960938 1136.09960938 1598.09960938 1136.09960938 1457.40039062 1116.15039062 c 1,12,-1
 1457.40039062 541.799804688 l 2,13,14
 1457.40039062 383.25 1457.40039062 383.25 1383.90039062 255.674804688 c 128,-1,15
 1310.40039062 128.099609375 1310.40039062 128.099609375 1164.97460938 53.5498046875 c 128,-1,16
 1019.54980469 -21 1019.54980469 -21 802.200195312 -21 c 0,17,18
 493.5 -21 493.5 -21 331.799804688 134.400390625 c 128,-1,19
 170.099609375 289.799804688 170.099609375 289.799804688 170.099609375 546 c 2,20,-1
 170.099609375 1535.09960938 l 1,21,-1
 540.75 1535.09960938 l 1,22,-1
 540.75 581.700195312 l 2,23,24
 540.75 415.799804688 540.75 415.799804688 609.525390625 352.275390625 c 128,-1,25
 678.299804688 288.75 678.299804688 288.75 812.700195312 288.75 c 0,26,27
 908.25 288.75 908.25 288.75 968.625 319.200195312 c 128,-1,28
 1029 349.650390625 1029 349.650390625 1058.40039062 415.275390625 c 128,-1,29
 1087.79980469 480.900390625 1087.79980469 480.900390625 1087.79980469 583.799804688 c 2,30,-1
 1087.79980469 1535.09960938 l 1,31,-1
 1457.40039062 1535.09960938 l 1,0,-1
EndSplineSet
Validated: 1
EndChar
StartChar: Aringacute
Encoding: 506 506 322
Width: 1520
VWidth: 2150
GlyphClass: 2
Flags: W
AnchorPoint: "Anchor-1" 760.2 0 basechar 0
AnchorPoint: "Anchor-0" 760.2 2060.1 basechar 0
LayerCount: 2
Fore
SplineSet
0 0 m 1,0,-1
 516.599609375 1428 l 1,1,2
 502.950195312 1452.15039062 502.950195312 1452.15039062 496.125 1481.54980469 c 128,-1,3
 489.299804688 1510.95019531 489.299804688 1510.95019531 489.299804688 1544.54980469 c 0,4,5
 489.299804688 1664.25 489.299804688 1664.25 563.849609375 1733.54980469 c 128,-1,6
 638.400390625 1802.84960938 638.400390625 1802.84960938 758.099609375 1802.84960938 c 0,7,8
 873.599609375 1802.84960938 873.599609375 1802.84960938 953.924804688 1734.07519531 c 128,-1,9
 1034.25 1665.29980469 1034.25 1665.29980469 1034.25 1546.65039062 c 0,10,11
 1034.25 1512 1034.25 1512 1026.375 1481.54980469 c 128,-1,12
 1018.5 1451.09960938 1018.5 1451.09960938 1002.75 1425.90039062 c 1,13,-1
 1522.5 0 l 1,14,-1
 1121.40039062 0 l 1,15,-1
 1024.79980469 317.099609375 l 1,16,-1
 497.700195312 317.099609375 l 1,17,-1
 402.150390625 0 l 1,18,-1
 0 0 l 1,0,-1
579.599609375 625.799804688 m 1,19,-1
 947.099609375 625.799804688 l 1,20,-1
 859.950195312 887.25 l 2,21,22
 848.400390625 925.049804688 848.400390625 925.049804688 827.924804688 987 c 128,-1,23
 807.450195312 1048.95019531 807.450195312 1048.95019531 789.075195312 1113 c 128,-1,24
 770.700195312 1177.04980469 770.700195312 1177.04980469 761.25 1221.15039062 c 1,25,26
 754.950195312 1189.65039062 754.950195312 1189.65039062 742.349609375 1143.97460938 c 128,-1,27
 729.75 1098.29980469 729.75 1098.29980469 715.049804688 1048.95019531 c 128,-1,28
 700.349609375 999.599609375 700.349609375 999.599609375 686.700195312 957.075195312 c 128,-1,29
 673.049804688 914.549804688 673.049804688 914.549804688 664.650390625 887.25 c 2,30,-1
 579.599609375 625.799804688 l 1,19,-1
758.099609375 1451.09960938 m 0,31,32
 801.150390625 1451.09960938 801.150390625 1451.09960938 826.875 1475.77539062 c 128,-1,33
 852.599609375 1500.45019531 852.599609375 1500.45019531 852.599609375 1544.54980469 c 0,34,35
 852.599609375 1587.59960938 852.599609375 1587.59960938 825.299804688 1613.32519531 c 128,-1,36
 798 1639.04980469 798 1639.04980469 758.099609375 1639.04980469 c 0,37,38
 716.099609375 1639.04980469 716.099609375 1639.04980469 689.849609375 1613.32519531 c 128,-1,39
 663.599609375 1587.59960938 663.599609375 1587.59960938 663.599609375 1544.54980469 c 0,40,41
 663.599609375 1502.54980469 663.599609375 1502.54980469 688.275390625 1476.82519531 c 128,-1,42
 712.950195312 1451.09960938 712.950195312 1451.09960938 758.099609375 1451.09960938 c 0,31,32
606.900390625 1860.59960938 m 1,43,-1
 606.900390625 1881.59960938 l 1,44,45
 637.349609375 1905.75 637.349609375 1905.75 670.950195312 1936.72460938 c 128,-1,46
 704.549804688 1967.70019531 704.549804688 1967.70019531 736.049804688 2000.25 c 128,-1,47
 767.549804688 2032.79980469 767.549804688 2032.79980469 789.599609375 2060.09960938 c 1,48,-1
 1194.90039062 2060.09960938 l 1,49,-1
 1194.90039062 2043.29980469 l 1,50,51
 1178.09960938 2026.5 1178.09960938 2026.5 1136.625 2001.82519531 c 128,-1,52
 1095.15039062 1977.15039062 1095.15039062 1977.15039062 1042.125 1950.375 c 128,-1,53
 989.099609375 1923.59960938 989.099609375 1923.59960938 937.650390625 1899.45019531 c 128,-1,54
 886.200195312 1875.29980469 886.200195312 1875.29980469 849.450195312 1860.59960938 c 1,55,-1
 606.900390625 1860.59960938 l 1,43,-1
EndSplineSet
Validated: 1
EndChar
StartChar: aringacute
Encoding: 507 507 323
Width: 1319
VWidth: 2150
GlyphClass: 2
Flags: W
AnchorPoint: "Anchor-1" 660.45 0 basechar 0
AnchorPoint: "Anchor-0" 660.45 2066.4 basechar 0
LayerCount: 2
Fore
SplineSet
685.650390625 1204.34960938 m 0,0,1
 916.650390625 1204.34960938 916.650390625 1204.34960938 1043.17480469 1097.25 c 128,-1,2
 1169.70019531 990.150390625 1169.70019531 990.150390625 1169.70019531 781.200195312 c 2,3,-1
 1169.70019531 0 l 1,4,-1
 915.599609375 0 l 1,5,-1
 845.25 158.549804688 l 1,6,-1
 836.849609375 158.549804688 l 1,7,8
 786.450195312 95.5498046875 786.450195312 95.5498046875 733.950195312 56.1748046875 c 128,-1,9
 681.450195312 16.7998046875 681.450195312 16.7998046875 613.200195312 -2.099609375 c 128,-1,10
 544.950195312 -21 544.950195312 -21 446.25 -21 c 0,11,12
 343.349609375 -21 343.349609375 -21 260.924804688 19.9501953125 c 128,-1,13
 178.5 60.900390625 178.5 60.900390625 131.25 145.424804688 c 128,-1,14
 84 229.950195312 84 229.950195312 84 360.150390625 c 0,15,16
 84 553.349609375 84 553.349609375 213.674804688 641.549804688 c 128,-1,17
 343.349609375 729.75 343.349609375 729.75 604.799804688 738.150390625 c 2,18,-1
 805.349609375 744.450195312 l 1,19,-1
 805.349609375 778.049804688 l 2,20,21
 805.349609375 864.150390625 805.349609375 864.150390625 761.775390625 902.474609375 c 128,-1,22
 718.200195312 940.799804688 718.200195312 940.799804688 641.549804688 940.799804688 c 0,23,24
 563.849609375 940.799804688 563.849609375 940.799804688 479.849609375 916.650390625 c 128,-1,25
 395.849609375 892.5 395.849609375 892.5 310.799804688 854.700195312 c 1,26,-1
 198.450195312 1098.29980469 l 1,27,28
 297.150390625 1148.70019531 297.150390625 1148.70019531 420 1176.52539062 c 128,-1,29
 542.849609375 1204.34960938 542.849609375 1204.34960938 685.650390625 1204.34960938 c 0,0,1
806.400390625 537.599609375 m 1,30,-1
 697.200195312 533.400390625 l 2,31,32
 562.799804688 529.200195312 562.799804688 529.200195312 510.299804688 483.525390625 c 128,-1,33
 457.799804688 437.849609375 457.799804688 437.849609375 457.799804688 363.299804688 c 0,34,35
 457.799804688 296.099609375 457.799804688 296.099609375 495.075195312 268.799804688 c 128,-1,36
 532.349609375 241.5 532.349609375 241.5 594.299804688 241.5 c 0,37,38
 682.5 241.5 682.5 241.5 744.450195312 295.575195312 c 128,-1,39
 806.400390625 349.650390625 806.400390625 349.650390625 806.400390625 443.099609375 c 2,40,-1
 806.400390625 537.599609375 l 1,30,-1
672 1613.84960938 m 256,41,42
 632.099609375 1613.84960938 632.099609375 1613.84960938 604.799804688 1588.125 c 128,-1,43
 577.5 1562.40039062 577.5 1562.40039062 577.5 1519.34960938 c 256,44,45
 577.5 1476.29980469 577.5 1476.29980469 601.650390625 1450.57519531 c 128,-1,46
 625.799804688 1424.84960938 625.799804688 1424.84960938 672 1424.84960938 c 0,47,48
 711.900390625 1424.84960938 711.900390625 1424.84960938 739.200195312 1450.57519531 c 128,-1,49
 766.5 1476.29980469 766.5 1476.29980469 766.5 1519.34960938 c 256,50,51
 766.5 1562.40039062 766.5 1562.40039062 739.200195312 1588.125 c 128,-1,52
 711.900390625 1613.84960938 711.900390625 1613.84960938 672 1613.84960938 c 256,41,42
672 1777.65039062 m 0,53,54
 748.650390625 1777.65039062 748.650390625 1777.65039062 811.650390625 1746.67480469 c 128,-1,55
 874.650390625 1715.70019531 874.650390625 1715.70019531 911.924804688 1658.47460938 c 128,-1,56
 949.200195312 1601.25 949.200195312 1601.25 949.200195312 1521.45019531 c 0,57,58
 949.200195312 1400.70019531 949.200195312 1400.70019531 868.875 1331.40039062 c 128,-1,59
 788.549804688 1262.09960938 788.549804688 1262.09960938 672 1262.09960938 c 0,60,61
 552.299804688 1262.09960938 552.299804688 1262.09960938 477.75 1331.40039062 c 128,-1,62
 403.200195312 1400.70019531 403.200195312 1400.70019531 403.200195312 1519.34960938 c 0,63,64
 403.200195312 1640.09960938 403.200195312 1640.09960938 477.75 1708.875 c 128,-1,65
 552.299804688 1777.65039062 552.299804688 1777.65039062 672 1777.65039062 c 0,53,54
1059.45019531 2066.40039062 m 1,66,-1
 1059.45019531 2053.79980469 l 1,67,68
 1037.40039062 2029.65039062 1037.40039062 2029.65039062 977.025390625 1990.27539062 c 128,-1,69
 916.650390625 1950.90039062 916.650390625 1950.90039062 847.875 1911.52539062 c 128,-1,70
 779.099609375 1872.15039062 779.099609375 1872.15039062 730.799804688 1846.95019531 c 1,71,-1
 490.349609375 1846.95019531 l 1,72,-1
 490.349609375 1864.79980469 l 1,73,74
 520.799804688 1892.09960938 520.799804688 1892.09960938 554.400390625 1927.27539062 c 128,-1,75
 588 1962.45019531 588 1962.45019531 619.5 1999.20019531 c 128,-1,76
 651 2035.95019531 651 2035.95019531 673.049804688 2066.40039062 c 1,77,-1
 1059.45019531 2066.40039062 l 1,66,-1
EndSplineSet
Validated: 1
EndChar
StartChar: caron
Encoding: 711 711 331
Width: 1104
VWidth: 2150
GlyphClass: 1
Flags: W
LayerCount: 2
Fore
SplineSet
355.950195312 1303.04980469 m 1,0,1
 325.5 1352.40039062 325.5 1352.40039062 277.200195312 1410.67480469 c 128,-1,2
 228.900390625 1468.95019531 228.900390625 1468.95019531 177.974609375 1524.07519531 c 128,-1,3
 127.049804688 1579.20019531 127.049804688 1579.20019531 86.099609375 1618.04980469 c 1,4,-1
 86.099609375 1647.45019531 l 1,5,-1
 328.650390625 1647.45019531 l 1,6,7
 384.299804688 1611.75 384.299804688 1611.75 439.424804688 1570.79980469 c 128,-1,8
 494.549804688 1529.84960938 494.549804688 1529.84960938 551.25 1476.29980469 c 1,9,10
 606.900390625 1529.84960938 606.900390625 1529.84960938 664.650390625 1572.375 c 128,-1,11
 722.400390625 1614.90039062 722.400390625 1614.90039062 779.099609375 1647.45019531 c 1,12,-1
 1018.5 1647.45019531 l 1,13,-1
 1018.5 1618.04980469 l 1,14,15
 981.75 1580.25 981.75 1580.25 930.825195312 1525.125 c 128,-1,16
 879.900390625 1470 879.900390625 1470 830.549804688 1411.20019531 c 128,-1,17
 781.200195312 1352.40039062 781.200195312 1352.40039062 749.700195312 1303.04980469 c 1,18,-1
 355.950195312 1303.04980469 l 1,0,1
EndSplineSet
Validated: 1
EndChar
StartChar: dotaccent
Encoding: 729 729 334
Width: 564
VWidth: 2150
GlyphClass: 1
Flags: W
LayerCount: 2
Fore
SplineSet
282.450195312 1651.65039062 m 0,0,1
 362.25 1651.65039062 362.25 1651.65039062 420.525390625 1616.47460938 c 128,-1,2
 478.799804688 1581.29980469 478.799804688 1581.29980469 478.799804688 1481.54980469 c 0,3,4
 478.799804688 1383.90039062 478.799804688 1383.90039062 420.525390625 1348.20019531 c 128,-1,5
 362.25 1312.5 362.25 1312.5 282.450195312 1312.5 c 0,6,7
 200.549804688 1312.5 200.549804688 1312.5 143.325195312 1348.20019531 c 128,-1,8
 86.099609375 1383.90039062 86.099609375 1383.90039062 86.099609375 1481.54980469 c 0,9,10
 86.099609375 1581.29980469 86.099609375 1581.29980469 143.325195312 1616.47460938 c 128,-1,11
 200.549804688 1651.65039062 200.549804688 1651.65039062 282.450195312 1651.65039062 c 0,0,1
EndSplineSet
Validated: 1
EndChar
StartChar: ogonek
Encoding: 731 731 336
Width: 621
VWidth: 2150
GlyphClass: 1
Flags: W
LayerCount: 2
Fore
SplineSet
330.75 -223.650390625 m 0,0,1
 330.75 -264.599609375 330.75 -264.599609375 353.849609375 -282.974609375 c 128,-1,2
 376.950195312 -301.349609375 376.950195312 -301.349609375 413.700195312 -301.349609375 c 0,3,4
 444.150390625 -301.349609375 444.150390625 -301.349609375 479.325195312 -295.049804688 c 128,-1,5
 514.5 -288.75 514.5 -288.75 535.5 -280.349609375 c 1,6,-1
 535.5 -490.349609375 l 1,7,8
 500.849609375 -499.799804688 500.849609375 -499.799804688 459.375 -508.200195312 c 128,-1,9
 417.900390625 -516.599609375 417.900390625 -516.599609375 362.25 -516.599609375 c 0,10,11
 241.5 -516.599609375 241.5 -516.599609375 163.799804688 -449.924804688 c 128,-1,12
 86.099609375 -383.25 86.099609375 -383.25 86.099609375 -274.049804688 c 0,13,14
 86.099609375 -218.400390625 86.099609375 -218.400390625 112.875 -164.325195312 c 128,-1,15
 139.650390625 -110.25 139.650390625 -110.25 192.674804688 -57.75 c 128,-1,16
 245.700195312 -5.25 245.700195312 -5.25 326.549804688 45.150390625 c 1,17,-1
 477.75 0 l 1,18,19
 405.299804688 -69.2998046875 405.299804688 -69.2998046875 368.025390625 -120.224609375 c 128,-1,20
 330.75 -171.150390625 330.75 -171.150390625 330.75 -223.650390625 c 0,0,1
EndSplineSet
Validated: 1
EndChar
StartChar: Theta
Encoding: 920 920 357
Width: 1712
VWidth: 2150
GlyphClass: 2
Flags: W
AnchorPoint: "Anchor-1" 856.8 0 basechar 0
AnchorPoint: "Anchor-0" 856.8 1535.1 basechar 0
LayerCount: 2
Fore
SplineSet
1101.45019531 926.099609375 m 1,0,-1
 1101.45019531 635.25 l 1,1,-1
 612.150390625 635.25 l 1,2,-1
 612.150390625 926.099609375 l 1,3,-1
 1101.45019531 926.099609375 l 1,0,-1
1594.95019531 769.650390625 m 0,4,5
 1594.95019531 592.200195312 1594.95019531 592.200195312 1551.375 446.775390625 c 128,-1,6
 1507.79980469 301.349609375 1507.79980469 301.349609375 1418.02539062 196.349609375 c 128,-1,7
 1328.25 91.349609375 1328.25 91.349609375 1188.59960938 35.1748046875 c 128,-1,8
 1048.95019531 -21 1048.95019531 -21 855.75 -21 c 0,9,10
 665.700195312 -21 665.700195312 -21 526.049804688 35.1748046875 c 128,-1,11
 386.400390625 91.349609375 386.400390625 91.349609375 296.099609375 196.349609375 c 128,-1,12
 205.799804688 301.349609375 205.799804688 301.349609375 161.700195312 447.299804688 c 128,-1,13
 117.599609375 593.25 117.599609375 593.25 117.599609375 771.75 c 0,14,15
 117.599609375 1011.15039062 117.599609375 1011.15039062 196.349609375 1188.07519531 c 128,-1,16
 275.099609375 1365 275.099609375 1365 439.424804688 1462.125 c 128,-1,17
 603.75 1559.25 603.75 1559.25 857.849609375 1559.25 c 0,18,19
 1114.04980469 1559.25 1114.04980469 1559.25 1276.79980469 1461.59960938 c 128,-1,20
 1439.54980469 1363.95019531 1439.54980469 1363.95019531 1517.25 1186.5 c 128,-1,21
 1594.95019531 1009.04980469 1594.95019531 1009.04980469 1594.95019531 769.650390625 c 0,4,5
506.099609375 769.650390625 m 0,22,23
 506.099609375 620.549804688 506.099609375 620.549804688 542.325195312 512.400390625 c 128,-1,24
 578.549804688 404.25 578.549804688 404.25 655.724609375 346.5 c 128,-1,25
 732.900390625 288.75 732.900390625 288.75 855.75 288.75 c 0,26,27
 982.799804688 288.75 982.799804688 288.75 1059.45019531 346.5 c 128,-1,28
 1136.09960938 404.25 1136.09960938 404.25 1170.75 512.400390625 c 128,-1,29
 1205.40039062 620.549804688 1205.40039062 620.549804688 1205.40039062 769.650390625 c 0,30,31
 1205.40039062 994.349609375 1205.40039062 994.349609375 1125.59960938 1124.02539062 c 128,-1,32
 1045.79980469 1253.70019531 1045.79980469 1253.70019531 857.849609375 1253.70019531 c 0,33,34
 732.900390625 1253.70019531 732.900390625 1253.70019531 655.200195312 1195.42480469 c 128,-1,35
 577.5 1137.15039062 577.5 1137.15039062 541.799804688 1028.47460938 c 128,-1,36
 506.099609375 919.799804688 506.099609375 919.799804688 506.099609375 769.650390625 c 0,22,23
EndSplineSet
Validated: 1
EndChar
StartChar: alpha
Encoding: 945 945 381
Width: 1418
VWidth: 2150
GlyphClass: 2
Flags: W
AnchorPoint: "Anchor-1" 703.5 0 basechar 0
AnchorPoint: "Anchor-0" 708.75 1182.3 basechar 0
LayerCount: 2
Fore
SplineSet
667.799804688 265.650390625 m 0,0,1
 746.549804688 265.650390625 746.549804688 265.650390625 792.224609375 298.724609375 c 128,-1,2
 837.900390625 331.799804688 837.900390625 331.799804688 857.849609375 401.099609375 c 128,-1,3
 877.799804688 470.400390625 877.799804688 470.400390625 879.900390625 576.450195312 c 2,4,-1
 879.900390625 588 l 2,5,6
 879.900390625 744.450195312 879.900390625 744.450195312 833.174804688 828.974609375 c 128,-1,7
 786.450195312 913.5 786.450195312 913.5 663.599609375 913.5 c 0,8,9
 564.900390625 913.5 564.900390625 913.5 515.025390625 828.450195312 c 128,-1,10
 465.150390625 743.400390625 465.150390625 743.400390625 465.150390625 583.799804688 c 0,11,12
 465.150390625 427.349609375 465.150390625 427.349609375 515.549804688 346.5 c 128,-1,13
 565.950195312 265.650390625 565.950195312 265.650390625 667.799804688 265.650390625 c 0,0,1
549.150390625 -21 m 0,14,15
 345.450195312 -21 345.450195312 -21 219.450195312 133.875 c 128,-1,16
 93.4501953125 288.75 93.4501953125 288.75 93.4501953125 585.900390625 c 0,17,18
 93.4501953125 889.349609375 93.4501953125 889.349609375 224.700195312 1044.75 c 128,-1,19
 355.950195312 1200.15039062 355.950195312 1200.15039062 575.400390625 1200.15039062 c 0,20,21
 699.299804688 1200.15039062 699.299804688 1200.15039062 778.049804688 1156.57519531 c 128,-1,22
 856.799804688 1113 856.799804688 1113 907.200195312 1023.75 c 1,23,-1
 924 1023.75 l 1,24,25
 933.450195312 1060.5 933.450195312 1060.5 951.299804688 1105.125 c 128,-1,26
 969.150390625 1149.75 969.150390625 1149.75 995.400390625 1182.29980469 c 1,27,-1
 1299.90039062 1182.29980469 l 1,28,29
 1284.15039062 1136.09960938 1284.15039062 1136.09960938 1265.25 1061.54980469 c 128,-1,30
 1246.34960938 987 1246.34960938 987 1232.70019531 894.075195312 c 128,-1,31
 1219.04980469 801.150390625 1219.04980469 801.150390625 1219.04980469 698.25 c 2,32,-1
 1219.04980469 400.049804688 l 2,33,34
 1219.04980469 325.5 1219.04980469 325.5 1245.29980469 300.299804688 c 128,-1,35
 1271.54980469 275.099609375 1271.54980469 275.099609375 1306.20019531 275.099609375 c 0,36,37
 1320.90039062 275.099609375 1320.90039062 275.099609375 1340.84960938 278.775390625 c 128,-1,38
 1360.79980469 282.450195312 1360.79980469 282.450195312 1368.15039062 285.599609375 c 1,39,-1
 1368.15039062 6.2998046875 l 1,40,41
 1357.65039062 0 1357.65039062 0 1329.82519531 -6.2998046875 c 128,-1,42
 1302 -12.599609375 1302 -12.599609375 1269.97460938 -16.7998046875 c 128,-1,43
 1237.95019531 -21 1237.95019531 -21 1213.79980469 -21 c 0,44,45
 1096.20019531 -21 1096.20019531 -21 1025.84960938 16.7998046875 c 128,-1,46
 955.5 54.599609375 955.5 54.599609375 912.450195312 154.349609375 c 1,47,-1
 888.299804688 154.349609375 l 1,48,49
 856.799804688 106.049804688 856.799804688 106.049804688 810.075195312 66.150390625 c 128,-1,50
 763.349609375 26.25 763.349609375 26.25 698.775390625 2.625 c 128,-1,51
 634.200195312 -21 634.200195312 -21 549.150390625 -21 c 0,14,15
EndSplineSet
Validated: 1
EndChar
StartChar: delta
Encoding: 948 948 384
Width: 1350
VWidth: 2150
GlyphClass: 2
Flags: W
AnchorPoint: "Anchor-1" 675.15 0 basechar 0
AnchorPoint: "Anchor-0" 675.15 1649.55 basechar 0
LayerCount: 2
Fore
SplineSet
745.5 1649.54980469 m 0,0,1
 890.400390625 1649.54980469 890.400390625 1649.54980469 1011.15039062 1618.57519531 c 128,-1,2
 1131.90039062 1587.59960938 1131.90039062 1587.59960938 1250.54980469 1530.90039062 c 1,3,-1
 1110.90039062 1270.5 l 1,4,5
 1010.09960938 1319.84960938 1010.09960938 1319.84960938 917.174804688 1349.25 c 128,-1,6
 824.25 1378.65039062 824.25 1378.65039062 742.349609375 1378.65039062 c 0,7,8
 665.700195312 1378.65039062 665.700195312 1378.65039062 633.674804688 1353.97460938 c 128,-1,9
 601.650390625 1329.29980469 601.650390625 1329.29980469 601.650390625 1291.5 c 0,10,11
 601.650390625 1258.95019531 601.650390625 1258.95019531 629.474609375 1228.5 c 128,-1,12
 657.299804688 1198.04980469 657.299804688 1198.04980469 719.775390625 1160.25 c 128,-1,13
 782.25 1122.45019531 782.25 1122.45019531 884.099609375 1066.79980469 c 0,14,15
 1014.29980469 998.549804688 1014.29980469 998.549804688 1096.72460938 916.650390625 c 128,-1,16
 1179.15039062 834.75 1179.15039062 834.75 1218 736.575195312 c 128,-1,17
 1256.84960938 638.400390625 1256.84960938 638.400390625 1256.84960938 520.799804688 c 0,18,19
 1256.84960938 337.049804688 1256.84960938 337.049804688 1183.34960938 216.825195312 c 128,-1,20
 1109.84960938 96.599609375 1109.84960938 96.599609375 978.075195312 37.7998046875 c 128,-1,21
 846.299804688 -21 846.299804688 -21 668.849609375 -21 c 0,22,23
 502.950195312 -21 502.950195312 -21 372.75 35.1748046875 c 128,-1,24
 242.549804688 91.349609375 242.549804688 91.349609375 168 198.974609375 c 128,-1,25
 93.4501953125 306.599609375 93.4501953125 306.599609375 93.4501953125 459.900390625 c 0,26,27
 93.4501953125 591.150390625 93.4501953125 591.150390625 140.174804688 687.224609375 c 128,-1,28
 186.900390625 783.299804688 186.900390625 783.299804688 275.099609375 849.450195312 c 128,-1,29
 363.299804688 915.599609375 363.299804688 915.599609375 489.299804688 954.450195312 c 1,30,31
 418.950195312 999.599609375 418.950195312 999.599609375 364.875 1055.25 c 128,-1,32
 310.799804688 1110.90039062 310.799804688 1110.90039062 280.875 1176.52539062 c 128,-1,33
 250.950195312 1242.15039062 250.950195312 1242.15039062 250.950195312 1318.79980469 c 0,34,35
 250.950195312 1473.15039062 250.950195312 1473.15039062 379.049804688 1561.34960938 c 128,-1,36
 507.150390625 1649.54980469 507.150390625 1649.54980469 745.5 1649.54980469 c 0,0,1
693 810.599609375 m 1,37,38
 645.75 796.950195312 645.75 796.950195312 592.724609375 757.575195312 c 128,-1,39
 539.700195312 718.200195312 539.700195312 718.200195312 503.474609375 649.424804688 c 128,-1,40
 467.25 580.650390625 467.25 580.650390625 467.25 478.799804688 c 0,41,42
 467.25 416.849609375 467.25 416.849609375 490.875 366.974609375 c 128,-1,43
 514.5 317.099609375 514.5 317.099609375 560.700195312 288.75 c 128,-1,44
 606.900390625 260.400390625 606.900390625 260.400390625 672 260.400390625 c 0,45,46
 739.200195312 260.400390625 739.200195312 260.400390625 786.450195312 289.275390625 c 128,-1,47
 833.700195312 318.150390625 833.700195312 318.150390625 858.900390625 374.849609375 c 128,-1,48
 884.099609375 431.549804688 884.099609375 431.549804688 884.099609375 511.349609375 c 0,49,50
 884.099609375 612.150390625 884.099609375 612.150390625 830.549804688 685.650390625 c 128,-1,51
 777 759.150390625 777 759.150390625 693 810.599609375 c 1,37,38
EndSplineSet
Validated: 1
EndChar
StartChar: eta
Encoding: 951 951 387
Width: 1426
VWidth: 2150
GlyphClass: 2
Flags: W
AnchorPoint: "Anchor-1" 712.95 -516.6 basechar 0
AnchorPoint: "Anchor-0" 736.05 1182.3 basechar 0
LayerCount: 2
Fore
SplineSet
861 1203.29980469 m 0,0,1
 982.799804688 1203.29980469 982.799804688 1203.29980469 1076.25 1158.15039062 c 128,-1,2
 1169.70019531 1113 1169.70019531 1113 1223.77539062 1017.45019531 c 128,-1,3
 1277.84960938 921.900390625 1277.84960938 921.900390625 1277.84960938 769.650390625 c 2,4,-1
 1277.84960938 -516.599609375 l 1,5,-1
 912.450195312 -516.599609375 l 1,6,-1
 912.450195312 681.450195312 l 2,7,8
 912.450195312 792.75 912.450195312 792.75 872.549804688 853.650390625 c 128,-1,9
 832.650390625 914.549804688 832.650390625 914.549804688 745.5 914.549804688 c 256,10,11
 658.349609375 914.549804688 658.349609375 914.549804688 609 870.974609375 c 128,-1,12
 559.650390625 827.400390625 559.650390625 827.400390625 540.224609375 742.875 c 128,-1,13
 520.799804688 658.349609375 520.799804688 658.349609375 520.799804688 536.549804688 c 2,14,-1
 520.799804688 0 l 1,15,-1
 155.400390625 0 l 1,16,-1
 155.400390625 1182.29980469 l 1,17,-1
 432.599609375 1182.29980469 l 1,18,-1
 479.849609375 1033.20019531 l 1,19,-1
 500.849609375 1033.20019531 l 1,20,21
 538.650390625 1094.09960938 538.650390625 1094.09960938 594.825195312 1131.375 c 128,-1,22
 651 1168.65039062 651 1168.65039062 719.25 1185.97460938 c 128,-1,23
 787.5 1203.29980469 787.5 1203.29980469 861 1203.29980469 c 0,0,1
EndSplineSet
Validated: 1
EndChar
StartChar: iota
Encoding: 953 953 389
Width: 906
VWidth: 2150
GlyphClass: 2
Flags: W
AnchorPoint: "Anchor-1" 500.85 0 basechar 0
AnchorPoint: "Anchor-0" 353.85 1182.3 basechar 0
LayerCount: 2
Fore
SplineSet
519.75 1182.29980469 m 1,0,-1
 519.75 388.5 l 2,1,2
 519.75 321.299804688 519.75 321.299804688 558.075195312 294.525390625 c 128,-1,3
 596.400390625 267.75 596.400390625 267.75 651 267.75 c 0,4,5
 706.650390625 267.75 706.650390625 267.75 755.474609375 278.775390625 c 128,-1,6
 804.299804688 289.799804688 804.299804688 289.799804688 862.049804688 308.700195312 c 1,7,-1
 862.049804688 38.849609375 l 1,8,9
 807.450195312 12.599609375 807.450195312 12.599609375 731.325195312 -4.2001953125 c 128,-1,10
 655.200195312 -21 655.200195312 -21 561.75 -21 c 0,11,12
 446.25 -21 446.25 -21 353.849609375 14.1748046875 c 128,-1,13
 261.450195312 49.349609375 261.450195312 49.349609375 207.900390625 135.974609375 c 128,-1,14
 154.349609375 222.599609375 154.349609375 222.599609375 154.349609375 379.049804688 c 2,15,-1
 154.349609375 1182.29980469 l 1,16,-1
 519.75 1182.29980469 l 1,0,-1
EndSplineSet
Validated: 1
EndChar
StartChar: lambda
Encoding: 955 955 391
Width: 1376
VWidth: 2150
GlyphClass: 2
Flags: W
AnchorPoint: "Anchor-1" 689.85 0 basechar 0
AnchorPoint: "Anchor-0" 689.85 1647.45 basechar 0
LayerCount: 2
Fore
SplineSet
4.2001953125 0 m 1,0,-1
 508.200195312 1109.84960938 l 1,1,-1
 483 1180.20019531 l 2,2,3
 441 1290.45019531 441 1290.45019531 387.974609375 1321.42480469 c 128,-1,4
 334.950195312 1352.40039062 334.950195312 1352.40039062 260.400390625 1352.40039062 c 0,5,6
 229.950195312 1352.40039062 229.950195312 1352.40039062 196.349609375 1347.67480469 c 128,-1,7
 162.75 1342.95019531 162.75 1342.95019531 135.450195312 1336.65039062 c 1,8,-1
 135.450195312 1629.59960938 l 1,9,10
 155.400390625 1634.84960938 155.400390625 1634.84960938 189.525390625 1638.52539062 c 128,-1,11
 223.650390625 1642.20019531 223.650390625 1642.20019531 259.875 1644.82519531 c 128,-1,12
 296.099609375 1647.45019531 296.099609375 1647.45019531 322.349609375 1647.45019531 c 0,13,14
 463.049804688 1647.45019531 463.049804688 1647.45019531 555.974609375 1605.45019531 c 128,-1,15
 648.900390625 1563.45019531 648.900390625 1563.45019531 709.799804688 1478.40039062 c 128,-1,16
 770.700195312 1393.34960938 770.700195312 1393.34960938 816.900390625 1265.25 c 2,17,-1
 1094.09960938 498.75 l 2,18,19
 1129.79980469 401.099609375 1129.79980469 401.099609375 1159.20019531 352.799804688 c 128,-1,20
 1188.59960938 304.5 1188.59960938 304.5 1219.04980469 289.799804688 c 128,-1,21
 1249.5 275.099609375 1249.5 275.099609375 1285.20019531 275.099609375 c 0,22,23
 1300.95019531 275.099609375 1300.95019531 275.099609375 1320.375 277.724609375 c 128,-1,24
 1339.79980469 280.349609375 1339.79980469 280.349609375 1360.79980469 285.599609375 c 1,25,-1
 1360.79980469 12.599609375 l 1,26,27
 1344 4.2001953125 1344 4.2001953125 1305.15039062 -3.6748046875 c 128,-1,28
 1266.29980469 -11.5498046875 1266.29980469 -11.5498046875 1224.29980469 -16.275390625 c 128,-1,29
 1182.29980469 -21 1182.29980469 -21 1155 -21 c 0,30,31
 1056.29980469 -21 1056.29980469 -21 990.674804688 15.75 c 128,-1,32
 925.049804688 52.5 925.049804688 52.5 884.099609375 114.450195312 c 128,-1,33
 843.150390625 176.400390625 843.150390625 176.400390625 814.799804688 250.950195312 c 2,34,-1
 727.650390625 493.5 l 2,35,36
 716.099609375 527.099609375 716.099609375 527.099609375 706.125 558.599609375 c 128,-1,37
 696.150390625 590.099609375 696.150390625 590.099609375 687.75 618.974609375 c 128,-1,38
 679.349609375 647.849609375 679.349609375 647.849609375 673.049804688 673.049804688 c 128,-1,39
 666.75 698.25 666.75 698.25 662.549804688 718.200195312 c 1,40,-1
 655.200195312 718.200195312 l 1,41,42
 643.650390625 664.650390625 643.650390625 664.650390625 625.275390625 603.224609375 c 128,-1,43
 606.900390625 541.799804688 606.900390625 541.799804688 589.049804688 497.700195312 c 2,44,-1
 383.25 0 l 1,45,-1
 4.2001953125 0 l 1,0,-1
EndSplineSet
Validated: 1
EndChar
StartChar: upsilon
Encoding: 965 965 401
Width: 1407
VWidth: 2150
GlyphClass: 2
Flags: W
AnchorPoint: "Anchor-1" 704.55 0 basechar 0
AnchorPoint: "Anchor-0" 698.25 1182.3 basechar 0
LayerCount: 2
Fore
SplineSet
700.349609375 -17.849609375 m 0,0,1
 483 -17.849609375 483 -17.849609375 362.25 56.1748046875 c 128,-1,2
 241.5 130.200195312 241.5 130.200195312 192.674804688 256.724609375 c 128,-1,3
 143.849609375 383.25 143.849609375 383.25 143.849609375 539.700195312 c 2,4,-1
 143.849609375 1182.29980469 l 1,5,-1
 510.299804688 1182.29980469 l 1,6,-1
 510.299804688 523.950195312 l 2,7,8
 510.299804688 387.450195312 510.299804688 387.450195312 558.599609375 329.174804688 c 128,-1,9
 606.900390625 270.900390625 606.900390625 270.900390625 709.799804688 270.900390625 c 0,10,11
 820.049804688 270.900390625 820.049804688 270.900390625 876.224609375 353.325195312 c 128,-1,12
 932.400390625 435.75 932.400390625 435.75 932.400390625 646.799804688 c 0,13,14
 932.400390625 783.299804688 932.400390625 783.299804688 911.924804688 909.299804688 c 128,-1,15
 891.450195312 1035.29980469 891.450195312 1035.29980469 854.700195312 1182.29980469 c 1,16,-1
 1223.25 1182.29980469 l 1,17,18
 1248.45019531 1085.70019531 1248.45019531 1085.70019531 1264.72460938 998.549804688 c 128,-1,19
 1281 911.400390625 1281 911.400390625 1289.40039062 824.775390625 c 128,-1,20
 1297.79980469 738.150390625 1297.79980469 738.150390625 1297.79980469 638.400390625 c 0,21,22
 1297.79980469 299.25 1297.79980469 299.25 1146.07519531 140.700195312 c 128,-1,23
 994.349609375 -17.849609375 994.349609375 -17.849609375 700.349609375 -17.849609375 c 0,0,1
EndSplineSet
Validated: 1
EndChar
StartChar: phi
Encoding: 966 966 402
Width: 1761
VWidth: 2150
GlyphClass: 2
Flags: W
AnchorPoint: "Anchor-1" 880.95 -516.6 basechar 0
AnchorPoint: "Anchor-0" 880.95 1182.3 basechar 0
LayerCount: 2
Fore
SplineSet
336 1211.70019531 m 1,0,-1
 604.799804688 1043.70019531 l 1,1,2
 528.150390625 940.799804688 528.150390625 940.799804688 486.150390625 824.25 c 128,-1,3
 444.150390625 707.700195312 444.150390625 707.700195312 444.150390625 575.400390625 c 0,4,5
 444.150390625 480.900390625 444.150390625 480.900390625 475.125 417.900390625 c 128,-1,6
 506.099609375 354.900390625 506.099609375 354.900390625 561.75 317.625 c 128,-1,7
 617.400390625 280.349609375 617.400390625 280.349609375 689.849609375 263.549804688 c 1,8,-1
 689.849609375 747.599609375 l 2,9,10
 689.849609375 972.299804688 689.849609375 972.299804688 806.924804688 1085.17480469 c 128,-1,11
 924 1198.04980469 924 1198.04980469 1136.09960938 1198.04980469 c 0,12,13
 1299.90039062 1198.04980469 1299.90039062 1198.04980469 1419.07519531 1129.79980469 c 128,-1,14
 1538.25 1061.54980469 1538.25 1061.54980469 1603.34960938 933.974609375 c 128,-1,15
 1668.45019531 806.400390625 1668.45019531 806.400390625 1668.45019531 627.900390625 c 0,16,17
 1668.45019531 430.5 1668.45019531 430.5 1583.40039062 294 c 128,-1,18
 1498.34960938 157.5 1498.34960938 157.5 1354.5 81.900390625 c 128,-1,19
 1210.65039062 6.2998046875 1210.65039062 6.2998046875 1032.15039062 -10.5 c 1,20,-1
 1032.15039062 -516.599609375 l 1,21,-1
 689.849609375 -516.599609375 l 1,22,-1
 689.849609375 -10.5 l 1,23,24
 516.599609375 5.25 516.599609375 5.25 381.674804688 73.5 c 128,-1,25
 246.75 141.75 246.75 141.75 170.099609375 267.75 c 128,-1,26
 93.4501953125 393.75 93.4501953125 393.75 93.4501953125 581.700195312 c 256,27,28
 93.4501953125 769.650390625 93.4501953125 769.650390625 158.549804688 921.900390625 c 128,-1,29
 223.650390625 1074.15039062 223.650390625 1074.15039062 336 1211.70019531 c 1,0,-1
1141.34960938 929.25 m 0,30,31
 1085.70019531 929.25 1085.70019531 929.25 1058.92480469 890.400390625 c 128,-1,32
 1032.15039062 851.549804688 1032.15039062 851.549804688 1032.15039062 756 c 2,33,-1
 1032.15039062 263.549804688 l 1,34,35
 1126.65039062 271.950195312 1126.65039062 271.950195312 1188.07519531 322.875 c 128,-1,36
 1249.5 373.799804688 1249.5 373.799804688 1279.42480469 453.599609375 c 128,-1,37
 1309.34960938 533.400390625 1309.34960938 533.400390625 1309.34960938 625.799804688 c 0,38,39
 1309.34960938 712.950195312 1309.34960938 712.950195312 1292.54980469 781.200195312 c 128,-1,40
 1275.75 849.450195312 1275.75 849.450195312 1239 889.349609375 c 128,-1,41
 1202.25 929.25 1202.25 929.25 1141.34960938 929.25 c 0,30,31
EndSplineSet
Validated: 1
EndChar
StartChar: psi
Encoding: 968 968 404
Width: 1861
VWidth: 2150
GlyphClass: 2
Flags: W
AnchorPoint: "Anchor-1" 931.35 -516.6 basechar 0
AnchorPoint: "Anchor-0" 931.35 1631.7 basechar 0
LayerCount: 2
Fore
SplineSet
1110.90039062 1631.70019531 m 1,0,-1
 1110.90039062 266.700195312 l 1,1,2
 1210.65039062 277.200195312 1210.65039062 277.200195312 1276.27539062 310.275390625 c 128,-1,3
 1341.90039062 343.349609375 1341.90039062 343.349609375 1373.92480469 414.224609375 c 128,-1,4
 1405.95019531 485.099609375 1405.95019531 485.099609375 1405.95019531 607.950195312 c 0,5,6
 1405.95019531 748.650390625 1405.95019531 748.650390625 1381.79980469 889.875 c 128,-1,7
 1357.65039062 1031.09960938 1357.65039062 1031.09960938 1316.70019531 1182.29980469 c 1,8,-1
 1662.15039062 1182.29980469 l 1,9,10
 1710.45019531 1024.79980469 1710.45019531 1024.79980469 1731.97460938 885.150390625 c 128,-1,11
 1753.5 745.5 1753.5 745.5 1753.5 602.700195312 c 0,12,13
 1753.5 383.25 1753.5 383.25 1667.40039062 249.900390625 c 128,-1,14
 1581.29980469 116.549804688 1581.29980469 116.549804688 1435.875 54.0751953125 c 128,-1,15
 1290.45019531 -8.400390625 1290.45019531 -8.400390625 1110.90039062 -17.849609375 c 1,16,-1
 1110.90039062 -516.599609375 l 1,17,-1
 767.549804688 -516.599609375 l 1,18,-1
 767.549804688 -17.849609375 l 1,19,20
 584.849609375 -11.5498046875 584.849609375 -11.5498046875 444.150390625 48.8251953125 c 128,-1,21
 303.450195312 109.200195312 303.450195312 109.200195312 223.650390625 238.875 c 128,-1,22
 143.849609375 368.549804688 143.849609375 368.549804688 143.849609375 583.799804688 c 2,23,-1
 143.849609375 1182.29980469 l 1,24,-1
 496.650390625 1182.29980469 l 1,25,-1
 496.650390625 574.349609375 l 2,26,27
 496.650390625 463.049804688 496.650390625 463.049804688 525.525390625 397.950195312 c 128,-1,28
 554.400390625 332.849609375 554.400390625 332.849609375 614.25 302.924804688 c 128,-1,29
 674.099609375 273 674.099609375 273 767.549804688 265.650390625 c 1,30,-1
 767.549804688 1631.70019531 l 1,31,-1
 1110.90039062 1631.70019531 l 1,0,-1
EndSplineSet
Validated: 1
EndChar
StartChar: uni03D1
Encoding: 977 977 588
Width: 1543
VWidth: 2150
GlyphClass: 1
Flags: W
LayerCount: 2
Fore
SplineSet
743.400390625 1649.54980469 m 0,0,1
 894.599609375 1649.54980469 894.599609375 1649.54980469 1002.22460938 1602.29980469 c 128,-1,2
 1109.84960938 1555.04980469 1109.84960938 1555.04980469 1181.25 1471.04980469 c 128,-1,3
 1252.65039062 1387.04980469 1252.65039062 1387.04980469 1294.125 1275.75 c 128,-1,4
 1335.59960938 1164.45019531 1335.59960938 1164.45019531 1354.5 1036.34960938 c 1,5,-1
 1500.45019531 1036.34960938 l 1,6,-1
 1500.45019531 774.900390625 l 1,7,-1
 1375.5 774.900390625 l 1,8,9
 1376.54980469 761.25 1376.54980469 761.25 1376.54980469 740.25 c 128,-1,10
 1376.54980469 719.25 1376.54980469 719.25 1376.54980469 705.599609375 c 0,11,12
 1376.54980469 568.049804688 1376.54980469 568.049804688 1342.42480469 438.375 c 128,-1,13
 1308.29980469 308.700195312 1308.29980469 308.700195312 1231.65039062 204.75 c 128,-1,14
 1155 100.799804688 1155 100.799804688 1028.47460938 39.900390625 c 128,-1,15
 901.950195312 -21 901.950195312 -21 718.200195312 -21 c 0,16,17
 576.450195312 -21 576.450195312 -21 485.099609375 13.125 c 128,-1,18
 393.75 47.25 393.75 47.25 342.299804688 103.950195312 c 128,-1,19
 290.849609375 160.650390625 290.849609375 160.650390625 270.375 227.849609375 c 128,-1,20
 249.900390625 295.049804688 249.900390625 295.049804688 249.900390625 361.200195312 c 0,21,22
 249.900390625 387.450195312 249.900390625 387.450195312 251.474609375 412.650390625 c 128,-1,23
 253.049804688 437.849609375 253.049804688 437.849609375 255.150390625 461.474609375 c 128,-1,24
 257.25 485.099609375 257.25 485.099609375 257.25 505.049804688 c 0,25,26
 257.25 541.799804688 257.25 541.799804688 245.174804688 559.125 c 128,-1,27
 233.099609375 576.450195312 233.099609375 576.450195312 205.799804688 576.450195312 c 0,28,29
 183.75 576.450195312 183.75 576.450195312 155.924804688 565.950195312 c 128,-1,30
 128.099609375 555.450195312 128.099609375 555.450195312 112.349609375 544.950195312 c 1,31,-1
 21 748.650390625 l 1,32,33
 90.2998046875 789.599609375 90.2998046875 789.599609375 180.075195312 821.625 c 128,-1,34
 269.849609375 853.650390625 269.849609375 853.650390625 378 853.650390625 c 0,35,36
 467.25 853.650390625 467.25 853.650390625 527.099609375 805.349609375 c 128,-1,37
 586.950195312 757.049804688 586.950195312 757.049804688 586.950195312 661.5 c 0,38,39
 586.950195312 621.599609375 586.950195312 621.599609375 583.799804688 582.224609375 c 128,-1,40
 580.650390625 542.849609375 580.650390625 542.849609375 577.5 504.525390625 c 128,-1,41
 574.349609375 466.200195312 574.349609375 466.200195312 574.349609375 428.400390625 c 0,42,43
 574.349609375 353.849609375 574.349609375 353.849609375 616.875 305.025390625 c 128,-1,44
 659.400390625 256.200195312 659.400390625 256.200195312 754.950195312 256.200195312 c 0,45,46
 834.75 256.200195312 834.75 256.200195312 891.974609375 301.875 c 128,-1,47
 949.200195312 347.549804688 949.200195312 347.549804688 979.650390625 447.825195312 c 128,-1,48
 1010.09960938 548.099609375 1010.09960938 548.099609375 1010.09960938 708.75 c 0,49,50
 1010.09960938 718.200195312 1010.09960938 718.200195312 1010.09960938 742.349609375 c 128,-1,51
 1010.09960938 766.5 1010.09960938 766.5 1008 779.099609375 c 1,52,53
 748.650390625 791.700195312 748.650390625 791.700195312 591.674804688 862.049804688 c 128,-1,54
 434.700195312 932.400390625 434.700195312 932.400390625 363.825195312 1040.54980469 c 128,-1,55
 292.950195312 1148.70019531 292.950195312 1148.70019531 292.950195312 1273.65039062 c 0,56,57
 292.950195312 1376.54980469 292.950195312 1376.54980469 339.150390625 1462.125 c 128,-1,58
 385.349609375 1547.70019531 385.349609375 1547.70019531 485.099609375 1598.625 c 128,-1,59
 584.849609375 1649.54980469 584.849609375 1649.54980469 743.400390625 1649.54980469 c 0,0,1
760.200195312 1376.54980469 m 0,60,61
 708.75 1376.54980469 708.75 1376.54980469 679.349609375 1350.29980469 c 128,-1,62
 649.950195312 1324.04980469 649.950195312 1324.04980469 649.950195312 1276.79980469 c 0,63,64
 649.950195312 1223.25 649.950195312 1223.25 681.974609375 1172.84960938 c 128,-1,65
 714 1122.45019531 714 1122.45019531 790.125 1088.32519531 c 128,-1,66
 866.25 1054.20019531 866.25 1054.20019531 995.400390625 1050 c 1,67,68
 984.900390625 1128.75 984.900390625 1128.75 963.375 1189.65039062 c 128,-1,69
 941.849609375 1250.54980469 941.849609375 1250.54980469 911.400390625 1292.02539062 c 128,-1,70
 880.950195312 1333.5 880.950195312 1333.5 842.625 1355.02539062 c 128,-1,71
 804.299804688 1376.54980469 804.299804688 1376.54980469 760.200195312 1376.54980469 c 0,60,61
EndSplineSet
Validated: 1
EndChar
StartChar: uni0414
Encoding: 1044 1044 429
Width: 1696
VWidth: 2150
GlyphClass: 2
Flags: W
AnchorPoint: "Anchor-1" 848.4 -462 basechar 0
AnchorPoint: "Anchor-0" 848.4 1535.1 basechar 0
LayerCount: 2
Fore
SplineSet
1449 1535.09960938 m 1,0,-1
 1449 305.549804688 l 1,1,-1
 1655.84960938 305.549804688 l 1,2,-1
 1655.84960938 -462 l 1,3,-1
 1296.75 -462 l 1,4,-1
 1296.75 0 l 1,5,-1
 368.549804688 0 l 1,6,-1
 368.549804688 -462 l 1,7,-1
 9.4501953125 -462 l 1,8,-1
 9.4501953125 305.549804688 l 1,9,-1
 132.299804688 305.549804688 l 1,10,11
 198.450195312 426.299804688 198.450195312 426.299804688 255.150390625 562.275390625 c 128,-1,12
 311.849609375 698.25 311.849609375 698.25 357.525390625 851.025390625 c 128,-1,13
 403.200195312 1003.79980469 403.200195312 1003.79980469 436.799804688 1174.42480469 c 128,-1,14
 470.400390625 1345.04980469 470.400390625 1345.04980469 489.299804688 1535.09960938 c 1,15,-1
 1449 1535.09960938 l 1,0,-1
1077.29980469 1230.59960938 m 1,16,-1
 785.400390625 1230.59960938 l 1,17,18
 771.75 1118.25 771.75 1118.25 748.125 1000.65039062 c 128,-1,19
 724.5 883.049804688 724.5 883.049804688 690.900390625 763.875 c 128,-1,20
 657.299804688 644.700195312 657.299804688 644.700195312 615.299804688 529.200195312 c 128,-1,21
 573.299804688 413.700195312 573.299804688 413.700195312 522.900390625 305.549804688 c 1,22,-1
 1077.29980469 305.549804688 l 1,23,-1
 1077.29980469 1230.59960938 l 1,16,-1
EndSplineSet
Validated: 1
EndChar
StartChar: uni0418
Encoding: 1048 1048 433
Width: 1794
VWidth: 2150
GlyphClass: 2
Flags: W
AnchorPoint: "Anchor-1" 897.75 0 basechar 0
AnchorPoint: "Anchor-0" 934.5 1535.1 basechar 0
LayerCount: 2
Fore
SplineSet
179.549804688 1535.09960938 m 1,0,-1
 519.75 1535.09960938 l 1,1,-1
 519.75 813.75 l 2,2,3
 519.75 762.299804688 519.75 762.299804688 518.174804688 703.5 c 128,-1,4
 516.599609375 644.700195312 516.599609375 644.700195312 514.5 587.474609375 c 128,-1,5
 512.400390625 530.25 512.400390625 530.25 509.775390625 484.049804688 c 128,-1,6
 507.150390625 437.849609375 507.150390625 437.849609375 504 412.650390625 c 1,7,-1
 511.349609375 412.650390625 l 1,8,-1
 1181.25 1535.09960938 l 1,9,-1
 1613.84960938 1535.09960938 l 1,10,-1
 1613.84960938 0 l 1,11,-1
 1275.75 0 l 1,12,-1
 1275.75 701.400390625 l 2,13,14
 1275.75 751.799804688 1275.75 751.799804688 1277.32519531 813.75 c 128,-1,15
 1278.90039062 875.700195312 1278.90039062 875.700195312 1282.04980469 937.125 c 128,-1,16
 1285.20019531 998.549804688 1285.20019531 998.549804688 1288.875 1049.47460938 c 128,-1,17
 1292.54980469 1100.40039062 1292.54980469 1100.40039062 1294.65039062 1127.70019531 c 1,18,-1
 1286.25 1127.70019531 l 1,19,-1
 614.25 0 l 1,20,-1
 179.549804688 0 l 1,21,-1
 179.549804688 1535.09960938 l 1,0,-1
EndSplineSet
Validated: 1
EndChar
StartChar: uni0423
Encoding: 1059 1059 444
Width: 1445
VWidth: 2150
GlyphClass: 2
Flags: W
AnchorPoint: "Anchor-1" 723.45 0 basechar 0
AnchorPoint: "Anchor-0" 743.4 1535.1 basechar 0
LayerCount: 2
Fore
SplineSet
1458.45019531 1535.09960938 m 1,0,-1
 987 453.599609375 l 2,1,2
 920.849609375 301.349609375 920.849609375 301.349609375 845.25 195.299804688 c 128,-1,3
 769.650390625 89.25 769.650390625 89.25 654.150390625 34.125 c 128,-1,4
 538.650390625 -21 538.650390625 -21 350.700195312 -21 c 0,5,6
 296.099609375 -21 296.099609375 -21 225.75 -13.125 c 128,-1,7
 155.400390625 -5.25 155.400390625 -5.25 93.4501953125 10.5 c 1,8,-1
 93.4501953125 323.400390625 l 1,9,10
 149.099609375 302.400390625 149.099609375 302.400390625 214.200195312 294 c 128,-1,11
 279.299804688 285.599609375 279.299804688 285.599609375 333.900390625 285.599609375 c 0,12,13
 397.950195312 285.599609375 397.950195312 285.599609375 438.375 306.599609375 c 128,-1,14
 478.799804688 327.599609375 478.799804688 327.599609375 502.424804688 362.25 c 128,-1,15
 526.049804688 396.900390625 526.049804688 396.900390625 539.700195312 434.700195312 c 1,16,-1
 24.150390625 1535.09960938 l 1,17,-1
 420 1535.09960938 l 1,18,-1
 657.299804688 969.150390625 l 2,19,20
 669.900390625 940.799804688 669.900390625 940.799804688 687.224609375 897.224609375 c 128,-1,21
 704.549804688 853.650390625 704.549804688 853.650390625 721.349609375 808.5 c 128,-1,22
 738.150390625 763.349609375 738.150390625 763.349609375 747.599609375 729.75 c 1,23,-1
 759.150390625 729.75 l 1,24,25
 769.650390625 768.599609375 769.650390625 768.599609375 788.025390625 820.575195312 c 128,-1,26
 806.400390625 872.549804688 806.400390625 872.549804688 825.299804688 921.375 c 128,-1,27
 844.200195312 970.200195312 844.200195312 970.200195312 854.700195312 999.599609375 c 2,28,-1
 1066.79980469 1535.09960938 l 1,29,-1
 1458.45019531 1535.09960938 l 1,0,-1
EndSplineSet
Validated: 1
EndChar
StartChar: uni0426
Encoding: 1062 1062 447
Width: 1733
VWidth: 2150
GlyphClass: 2
Flags: W
AnchorPoint: "Anchor-1" 868.35 -462 basechar 0
AnchorPoint: "Anchor-0" 868.35 1535.1 basechar 0
LayerCount: 2
Fore
SplineSet
1692.59960938 299.25 m 1,0,-1
 1692.59960938 -462 l 1,1,-1
 1333.5 -462 l 1,2,-1
 1333.5 0 l 1,3,-1
 179.549804688 0 l 1,4,-1
 179.549804688 1535.09960938 l 1,5,-1
 551.25 1535.09960938 l 1,6,-1
 551.25 305.549804688 l 1,7,-1
 1046.84960938 305.549804688 l 1,8,-1
 1046.84960938 1535.09960938 l 1,9,-1
 1417.5 1535.09960938 l 1,10,-1
 1417.5 299.25 l 1,11,-1
 1692.59960938 299.25 l 1,0,-1
EndSplineSet
Validated: 1
EndChar
StartChar: uni042E
Encoding: 1070 1070 455
Width: 2307
VWidth: 2150
GlyphClass: 2
Flags: W
AnchorPoint: "Anchor-1" 1153.95 0 basechar 0
AnchorPoint: "Anchor-0" 1153.95 1535.1 basechar 0
LayerCount: 2
Fore
SplineSet
2189.25 769.650390625 m 0,0,1
 2189.25 592.200195312 2189.25 592.200195312 2148.82519531 446.775390625 c 128,-1,2
 2108.40039062 301.349609375 2108.40039062 301.349609375 2024.40039062 196.349609375 c 128,-1,3
 1940.40039062 91.349609375 1940.40039062 91.349609375 1810.20019531 35.1748046875 c 128,-1,4
 1680 -21 1680 -21 1500.45019531 -21 c 0,5,6
 1285.20019531 -21 1285.20019531 -21 1141.875 60.900390625 c 128,-1,7
 998.549804688 142.799804688 998.549804688 142.799804688 921.375 292.424804688 c 128,-1,8
 844.200195312 442.049804688 844.200195312 442.049804688 826.349609375 644.700195312 c 1,9,-1
 551.25 644.700195312 l 1,10,-1
 551.25 0 l 1,11,-1
 179.549804688 0 l 1,12,-1
 179.549804688 1535.09960938 l 1,13,-1
 551.25 1535.09960938 l 1,14,-1
 551.25 950.25 l 1,15,-1
 832.650390625 950.25 l 1,16,17
 856.799804688 1137.15039062 856.799804688 1137.15039062 936.075195312 1274.17480469 c 128,-1,18
 1015.34960938 1411.20019531 1015.34960938 1411.20019531 1155.52539062 1485.22460938 c 128,-1,19
 1295.70019531 1559.25 1295.70019531 1559.25 1502.54980469 1559.25 c 0,20,21
 1740.90039062 1559.25 1740.90039062 1559.25 1892.625 1461.59960938 c 128,-1,22
 2044.34960938 1363.95019531 2044.34960938 1363.95019531 2116.79980469 1186.5 c 128,-1,23
 2189.25 1009.04980469 2189.25 1009.04980469 2189.25 769.650390625 c 0,0,1
1198.04980469 769.650390625 m 0,24,25
 1198.04980469 620.549804688 1198.04980469 620.549804688 1229.54980469 512.400390625 c 128,-1,26
 1261.04980469 404.25 1261.04980469 404.25 1327.72460938 346.5 c 128,-1,27
 1394.40039062 288.75 1394.40039062 288.75 1500.45019531 288.75 c 0,28,29
 1608.59960938 288.75 1608.59960938 288.75 1675.79980469 346.5 c 128,-1,30
 1743 404.25 1743 404.25 1772.92480469 512.400390625 c 128,-1,31
 1802.84960938 620.549804688 1802.84960938 620.549804688 1802.84960938 769.650390625 c 0,32,33
 1802.84960938 919.799804688 1802.84960938 919.799804688 1772.92480469 1028.47460938 c 128,-1,34
 1743 1137.15039062 1743 1137.15039062 1676.84960938 1195.42480469 c 128,-1,35
 1610.70019531 1253.70019531 1610.70019531 1253.70019531 1503.59960938 1253.70019531 c 0,36,37
 1395.45019531 1253.70019531 1395.45019531 1253.70019531 1328.25 1195.42480469 c 128,-1,38
 1261.04980469 1137.15039062 1261.04980469 1137.15039062 1229.54980469 1028.47460938 c 128,-1,39
 1198.04980469 919.799804688 1198.04980469 919.799804688 1198.04980469 769.650390625 c 0,24,25
EndSplineSet
Validated: 1
EndChar
StartChar: uni0432
Encoding: 1074 1074 459
Width: 1352
VWidth: 2150
GlyphClass: 2
Flags: W
AnchorPoint: "Anchor-1" 677.25 0 basechar 0
AnchorPoint: "Anchor-0" 677.25 1182.3 basechar 0
LayerCount: 2
Fore
SplineSet
1226.40039062 874.650390625 m 0,0,1
 1226.40039062 780.150390625 1226.40039062 780.150390625 1168.65039062 710.325195312 c 128,-1,2
 1110.90039062 640.5 1110.90039062 640.5 995.400390625 621.599609375 c 1,3,-1
 995.400390625 613.200195312 l 1,4,5
 1119.29980469 598.5 1119.29980469 598.5 1191.22460938 527.099609375 c 128,-1,6
 1263.15039062 455.700195312 1263.15039062 455.700195312 1263.15039062 345.450195312 c 0,7,8
 1263.15039062 250.950195312 1263.15039062 250.950195312 1212.75 172.200195312 c 128,-1,9
 1162.34960938 93.4501953125 1162.34960938 93.4501953125 1044.75 46.724609375 c 128,-1,10
 927.150390625 0 927.150390625 0 725.549804688 0 c 2,11,-1
 155.400390625 0 l 1,12,-1
 155.400390625 1182.29980469 l 1,13,-1
 726.599609375 1182.29980469 l 2,14,15
 885.150390625 1182.29980469 885.150390625 1182.29980469 996.974609375 1150.27539062 c 128,-1,16
 1108.79980469 1118.25 1108.79980469 1118.25 1167.59960938 1050 c 128,-1,17
 1226.40039062 981.75 1226.40039062 981.75 1226.40039062 874.650390625 c 0,0,1
888.299804688 373.799804688 m 0,18,19
 888.299804688 431.549804688 888.299804688 431.549804688 846.299804688 461.474609375 c 128,-1,20
 804.299804688 491.400390625 804.299804688 491.400390625 707.700195312 491.400390625 c 2,21,-1
 520.799804688 491.400390625 l 1,22,-1
 520.799804688 245.700195312 l 1,23,-1
 708.75 245.700195312 l 2,24,25
 794.849609375 245.700195312 794.849609375 245.700195312 841.575195312 277.724609375 c 128,-1,26
 888.299804688 309.75 888.299804688 309.75 888.299804688 373.799804688 c 0,18,19
859.950195312 834.75 m 0,27,28
 859.950195312 885.150390625 859.950195312 885.150390625 823.724609375 909.825195312 c 128,-1,29
 787.5 934.5 787.5 934.5 717.150390625 934.5 c 2,30,-1
 520.799804688 934.5 l 1,31,-1
 520.799804688 729.75 l 1,32,-1
 691.950195312 729.75 l 2,33,34
 774.900390625 729.75 774.900390625 729.75 817.424804688 756.525390625 c 128,-1,35
 859.950195312 783.299804688 859.950195312 783.299804688 859.950195312 834.75 c 0,27,28
EndSplineSet
Validated: 1
EndChar
StartChar: uni0434
Encoding: 1076 1076 461
Width: 1463
VWidth: 2150
GlyphClass: 2
Flags: W
AnchorPoint: "Anchor-1" 732.9 -428.4 basechar 0
AnchorPoint: "Anchor-0" 732.9 1182.3 basechar 0
LayerCount: 2
Fore
SplineSet
1260 1182.29980469 m 1,0,-1
 1260 269.849609375 l 1,1,-1
 1434.29980469 269.849609375 l 1,2,-1
 1434.29980469 -428.400390625 l 1,3,-1
 1110.90039062 -428.400390625 l 1,4,-1
 1110.90039062 0 l 1,5,-1
 351.75 0 l 1,6,-1
 351.75 -428.400390625 l 1,7,-1
 28.349609375 -428.400390625 l 1,8,-1
 28.349609375 269.849609375 l 1,9,-1
 130.200195312 269.849609375 l 1,10,11
 200.549804688 382.200195312 200.549804688 382.200195312 251.474609375 528.674804688 c 128,-1,12
 302.400390625 675.150390625 302.400390625 675.150390625 335.474609375 842.099609375 c 128,-1,13
 368.549804688 1009.04980469 368.549804688 1009.04980469 383.25 1182.29980469 c 1,14,-1
 1260 1182.29980469 l 1,0,-1
894.599609375 909.299804688 m 1,15,-1
 675.150390625 909.299804688 l 1,16,17
 660.450195312 792.75 660.450195312 792.75 637.875 685.125 c 128,-1,18
 615.299804688 577.5 615.299804688 577.5 582.75 475.125 c 128,-1,19
 550.200195312 372.75 550.200195312 372.75 502.950195312 269.849609375 c 1,20,-1
 894.599609375 269.849609375 l 1,21,-1
 894.599609375 909.299804688 l 1,15,-1
EndSplineSet
Validated: 1
EndChar
StartChar: uni0436
Encoding: 1078 1078 463
Width: 1982
VWidth: 2150
GlyphClass: 2
Flags: W
AnchorPoint: "Anchor-1" 991.2 0 basechar 0
AnchorPoint: "Anchor-0" 987 1182.3 basechar 0
LayerCount: 2
Fore
SplineSet
1945.65039062 1182.29980469 m 1,0,-1
 1527.75 617.400390625 l 1,1,-1
 1986.59960938 0 l 1,2,-1
 1591.79980469 0 l 1,3,-1
 1165.5 599.549804688 l 1,4,-1
 1165.5 0 l 1,5,-1
 816.900390625 0 l 1,6,-1
 816.900390625 599.549804688 l 1,7,-1
 390.599609375 0 l 1,8,-1
 -4.2001953125 0 l 1,9,-1
 454.650390625 617.400390625 l 1,10,-1
 36.75 1182.29980469 l 1,11,-1
 423.150390625 1182.29980469 l 1,12,-1
 816.900390625 609 l 1,13,-1
 816.900390625 1182.29980469 l 1,14,-1
 1165.5 1182.29980469 l 1,15,-1
 1165.5 609 l 1,16,-1
 1559.25 1182.29980469 l 1,17,-1
 1945.65039062 1182.29980469 l 1,0,-1
EndSplineSet
Validated: 1
EndChar
StartChar: uni0438
Encoding: 1080 1080 465
Width: 1544
VWidth: 2150
GlyphClass: 2
Flags: W
AnchorPoint: "Anchor-1" 771.75 0 basechar 0
AnchorPoint: "Anchor-0" 774.9 1182.3 basechar 0
LayerCount: 2
Fore
SplineSet
497.700195312 1182.29980469 m 1,0,-1
 497.700195312 718.200195312 l 2,1,2
 497.700195312 682.5 497.700195312 682.5 495.599609375 635.775390625 c 128,-1,3
 493.5 589.049804688 493.5 589.049804688 489.825195312 541.799804688 c 128,-1,4
 486.150390625 494.549804688 486.150390625 494.549804688 483 454.125 c 128,-1,5
 479.849609375 413.700195312 479.849609375 413.700195312 477.75 389.549804688 c 1,6,-1
 973.349609375 1182.29980469 l 1,7,-1
 1389.15039062 1182.29980469 l 1,8,-1
 1389.15039062 0 l 1,9,-1
 1047.90039062 0 l 1,10,-1
 1047.90039062 449.400390625 l 2,11,12
 1047.90039062 506.099609375 1047.90039062 506.099609375 1050.52539062 571.200195312 c 128,-1,13
 1053.15039062 636.299804688 1053.15039062 636.299804688 1057.34960938 695.625 c 128,-1,14
 1061.54980469 754.950195312 1061.54980469 754.950195312 1065.75 793.799804688 c 1,15,-1
 569.099609375 0 l 1,16,-1
 155.400390625 0 l 1,17,-1
 155.400390625 1182.29980469 l 1,18,-1
 497.700195312 1182.29980469 l 1,0,-1
EndSplineSet
Validated: 1
EndChar
StartChar: uni043A
Encoding: 1082 1082 467
Width: 1392
VWidth: 2150
GlyphClass: 2
Flags: W
AnchorPoint: "Anchor-1" 697.2 0 basechar 0
AnchorPoint: "Anchor-0" 736.05 1182.3 basechar 0
LayerCount: 2
Fore
SplineSet
956.549804688 1182.29980469 m 1,0,-1
 1359.75 1182.29980469 l 1,1,-1
 904.049804688 615.299804688 l 1,2,-1
 1397.54980469 0 l 1,3,-1
 980.700195312 0 l 1,4,-1
 520.799804688 599.549804688 l 1,5,-1
 520.799804688 0 l 1,6,-1
 155.400390625 0 l 1,7,-1
 155.400390625 1182.29980469 l 1,8,-1
 520.799804688 1182.29980469 l 1,9,-1
 520.799804688 609 l 1,10,-1
 956.549804688 1182.29980469 l 1,0,-1
EndSplineSet
Validated: 1
EndChar
StartChar: uni043F
Encoding: 1087 1087 472
Width: 1408
VWidth: 2150
GlyphClass: 2
Flags: W
AnchorPoint: "Anchor-1" 704.55 0 basechar 0
AnchorPoint: "Anchor-0" 704.55 1182.3 basechar 0
LayerCount: 2
Fore
SplineSet
1252.65039062 1182.29980469 m 1,0,-1
 1252.65039062 0 l 1,1,-1
 887.25 0 l 1,2,-1
 887.25 909.299804688 l 1,3,-1
 520.799804688 909.299804688 l 1,4,-1
 520.799804688 0 l 1,5,-1
 155.400390625 0 l 1,6,-1
 155.400390625 1182.29980469 l 1,7,-1
 1252.65039062 1182.29980469 l 1,0,-1
EndSplineSet
Validated: 1
EndChar
StartChar: uni0442
Encoding: 1090 1090 475
Width: 1243
VWidth: 2150
GlyphClass: 2
Flags: W
AnchorPoint: "Anchor-1" 622.65 0 basechar 0
AnchorPoint: "Anchor-0" 622.65 1182.3 basechar 0
LayerCount: 2
Fore
SplineSet
1192.79980469 909.299804688 m 1,0,-1
 804.299804688 909.299804688 l 1,1,-1
 804.299804688 0 l 1,2,-1
 438.900390625 0 l 1,3,-1
 438.900390625 909.299804688 l 1,4,-1
 50.400390625 909.299804688 l 1,5,-1
 50.400390625 1182.29980469 l 1,6,-1
 1192.79980469 1182.29980469 l 1,7,-1
 1192.79980469 909.299804688 l 1,0,-1
EndSplineSet
Validated: 1
EndChar
StartChar: uni0444
Encoding: 1092 1092 477
Width: 1807
VWidth: 2150
GlyphClass: 2
Flags: W
AnchorPoint: "Anchor-1" 904.05 -516.6 basechar 0
AnchorPoint: "Anchor-0" 904.05 1633.8 basechar 0
LayerCount: 2
Fore
SplineSet
1076.25 1633.79980469 m 1,0,-1
 1076.25 1185.45019531 l 1,1,2
 1287.29980469 1167.59960938 1287.29980469 1167.59960938 1429.04980469 1087.27539062 c 128,-1,3
 1570.79980469 1006.95019531 1570.79980469 1006.95019531 1642.20019531 879.375 c 128,-1,4
 1713.59960938 751.799804688 1713.59960938 751.799804688 1713.59960938 590.099609375 c 0,5,6
 1713.59960938 430.5 1713.59960938 430.5 1644.29980469 302.400390625 c 128,-1,7
 1575 174.299804688 1575 174.299804688 1434.29980469 94.5 c 128,-1,8
 1293.59960938 14.7001953125 1293.59960938 14.7001953125 1076.25 -4.2001953125 c 1,9,-1
 1076.25 -516.599609375 l 1,10,-1
 736.049804688 -516.599609375 l 1,11,-1
 736.049804688 -4.2001953125 l 1,12,13
 526.049804688 16.7998046875 526.049804688 16.7998046875 383.25 97.650390625 c 128,-1,14
 240.450195312 178.5 240.450195312 178.5 166.950195312 305.025390625 c 128,-1,15
 93.4501953125 431.549804688 93.4501953125 431.549804688 93.4501953125 590.099609375 c 0,16,17
 93.4501953125 756 93.4501953125 756 160.650390625 885.150390625 c 128,-1,18
 227.849609375 1014.29980469 227.849609375 1014.29980469 369.075195312 1093.04980469 c 128,-1,19
 510.299804688 1171.79980469 510.299804688 1171.79980469 732.900390625 1185.45019531 c 1,20,-1
 732.900390625 1633.79980469 l 1,21,-1
 1076.25 1633.79980469 l 1,0,-1
732.900390625 912.450195312 m 1,22,23
 655.200195312 905.099609375 655.200195312 905.099609375 593.775390625 861 c 128,-1,24
 532.349609375 816.900390625 532.349609375 816.900390625 497.174804688 747.075195312 c 128,-1,25
 462 677.25 462 677.25 462 590.099609375 c 0,26,27
 462 501.900390625 462 501.900390625 495.075195312 432.075195312 c 128,-1,28
 528.150390625 362.25 528.150390625 362.25 589.049804688 319.724609375 c 128,-1,29
 649.950195312 277.200195312 649.950195312 277.200195312 732.900390625 269.849609375 c 1,30,-1
 732.900390625 912.450195312 l 1,22,23
1076.25 910.349609375 m 1,31,-1
 1076.25 269.849609375 l 1,32,33
 1159.20019531 277.200195312 1159.20019531 277.200195312 1219.04980469 319.724609375 c 128,-1,34
 1278.90039062 362.25 1278.90039062 362.25 1311.45019531 431.549804688 c 128,-1,35
 1344 500.849609375 1344 500.849609375 1344 590.099609375 c 0,36,37
 1344 721.349609375 1344 721.349609375 1269.45019531 810.599609375 c 128,-1,38
 1194.90039062 899.849609375 1194.90039062 899.849609375 1076.25 910.349609375 c 1,31,-1
EndSplineSet
Validated: 1
EndChar
StartChar: uni0446
Encoding: 1094 1094 479
Width: 1558
VWidth: 2150
GlyphClass: 2
Flags: W
AnchorPoint: "Anchor-1" 733.95 -428.4 basechar 0
AnchorPoint: "Anchor-0" 733.95 1182.3 basechar 0
LayerCount: 2
Fore
SplineSet
1529.84960938 -428.400390625 m 1,0,-1
 1206.45019531 -428.400390625 l 1,1,-1
 1206.45019531 0 l 1,2,-1
 155.400390625 0 l 1,3,-1
 155.400390625 1182.29980469 l 1,4,-1
 520.799804688 1182.29980469 l 1,5,-1
 520.799804688 273 l 1,6,-1
 945 273 l 1,7,-1
 945 1182.29980469 l 1,8,-1
 1311.45019531 1182.29980469 l 1,9,-1
 1311.45019531 269.849609375 l 1,10,-1
 1529.84960938 269.849609375 l 1,11,-1
 1529.84960938 -428.400390625 l 1,0,-1
EndSplineSet
Validated: 1
EndChar
StartChar: uni0447
Encoding: 1095 1095 480
Width: 1426
VWidth: 2150
GlyphClass: 2
Flags: W
AnchorPoint: "Anchor-1" 714 0 basechar 0
AnchorPoint: "Anchor-0" 693 1182.3 basechar 0
LayerCount: 2
Fore
SplineSet
475.650390625 1182.29980469 m 1,0,-1
 475.650390625 758.099609375 l 2,1,2
 475.650390625 689.849609375 475.650390625 689.849609375 507.674804688 655.200195312 c 128,-1,3
 539.700195312 620.549804688 539.700195312 620.549804688 602.700195312 620.549804688 c 0,4,5
 680.400390625 620.549804688 680.400390625 620.549804688 755.474609375 637.875 c 128,-1,6
 830.549804688 655.200195312 830.549804688 655.200195312 907.200195312 684.599609375 c 1,7,-1
 907.200195312 1182.29980469 l 1,8,-1
 1272.59960938 1182.29980469 l 1,9,-1
 1272.59960938 0 l 1,10,-1
 907.200195312 0 l 1,11,-1
 907.200195312 449.400390625 l 1,12,13
 836.849609375 415.799804688 836.849609375 415.799804688 739.724609375 383.775390625 c 128,-1,14
 642.599609375 351.75 642.599609375 351.75 522.900390625 351.75 c 0,15,16
 323.400390625 351.75 323.400390625 351.75 216.825195312 448.349609375 c 128,-1,17
 110.25 544.950195312 110.25 544.950195312 110.25 744.450195312 c 2,18,-1
 110.25 1182.29980469 l 1,19,-1
 475.650390625 1182.29980469 l 1,0,-1
EndSplineSet
Validated: 1
EndChar
StartChar: uni044B
Encoding: 1099 1099 484
Width: 1845
VWidth: 2150
GlyphClass: 2
Flags: W
AnchorPoint: "Anchor-1" 922.95 0 basechar 0
AnchorPoint: "Anchor-0" 920.85 1182.3 basechar 0
LayerCount: 2
Fore
SplineSet
155.400390625 0 m 1,0,-1
 155.400390625 1182.29980469 l 1,1,-1
 520.799804688 1182.29980469 l 1,2,-1
 520.799804688 741.299804688 l 1,3,-1
 665.700195312 741.299804688 l 2,4,5
 849.450195312 741.299804688 849.450195312 741.299804688 961.275390625 700.875 c 128,-1,6
 1073.09960938 660.450195312 1073.09960938 660.450195312 1123.5 581.174804688 c 128,-1,7
 1173.90039062 501.900390625 1173.90039062 501.900390625 1173.90039062 385.349609375 c 256,8,9
 1173.90039062 268.799804688 1173.90039062 268.799804688 1122.97460938 182.174804688 c 128,-1,10
 1072.04980469 95.5498046875 1072.04980469 95.5498046875 956.549804688 47.775390625 c 128,-1,11
 841.049804688 0 841.049804688 0 647.849609375 0 c 2,12,-1
 155.400390625 0 l 1,0,-1
520.799804688 245.700195312 m 1,13,-1
 628.950195312 245.700195312 l 2,14,15
 714 245.700195312 714 245.700195312 761.25 276.674804688 c 128,-1,16
 808.5 307.650390625 808.5 307.650390625 808.5 372.75 c 0,17,18
 808.5 434.700195312 808.5 434.700195312 766.5 465.150390625 c 128,-1,19
 724.5 495.599609375 724.5 495.599609375 624.75 495.599609375 c 2,20,-1
 520.799804688 495.599609375 l 1,21,-1
 520.799804688 245.700195312 l 1,13,-1
1325.09960938 0 m 1,22,-1
 1325.09960938 1182.29980469 l 1,23,-1
 1690.5 1182.29980469 l 1,24,-1
 1690.5 0 l 1,25,-1
 1325.09960938 0 l 1,22,-1
EndSplineSet
Validated: 1
EndChar
StartChar: uni044E
Encoding: 1102 1102 487
Width: 1914
VWidth: 2150
GlyphClass: 2
Flags: W
AnchorPoint: "Anchor-1" 958.65 0 basechar 0
AnchorPoint: "Anchor-0" 958.65 1182.3 basechar 0
LayerCount: 2
Fore
SplineSet
1819.65039062 593.25 m 256,0,1
 1819.65039062 396.900390625 1819.65039062 396.900390625 1751.40039062 259.349609375 c 128,-1,2
 1683.15039062 121.799804688 1683.15039062 121.799804688 1556.625 50.400390625 c 128,-1,3
 1430.09960938 -21 1430.09960938 -21 1254.75 -21 c 0,4,5
 1109.84960938 -21 1109.84960938 -21 993.825195312 33.599609375 c 128,-1,6
 877.799804688 88.2001953125 877.799804688 88.2001953125 803.25 197.400390625 c 128,-1,7
 728.700195312 306.599609375 728.700195312 306.599609375 705.599609375 470.400390625 c 1,8,-1
 520.799804688 470.400390625 l 1,9,-1
 520.799804688 0 l 1,10,-1
 155.400390625 0 l 1,11,-1
 155.400390625 1182.29980469 l 1,12,-1
 520.799804688 1182.29980469 l 1,13,-1
 520.799804688 742.349609375 l 1,14,-1
 708.75 742.349609375 l 1,15,16
 733.950195312 891.450195312 733.950195312 891.450195312 806.924804688 994.349609375 c 128,-1,17
 879.900390625 1097.25 879.900390625 1097.25 995.924804688 1150.27539062 c 128,-1,18
 1111.95019531 1203.29980469 1111.95019531 1203.29980469 1262.09960938 1203.29980469 c 0,19,20
 1423.79980469 1203.29980469 1423.79980469 1203.29980469 1549.27539062 1132.42480469 c 128,-1,21
 1674.75 1061.54980469 1674.75 1061.54980469 1747.20019531 925.575195312 c 128,-1,22
 1819.65039062 789.599609375 1819.65039062 789.599609375 1819.65039062 593.25 c 256,0,1
1069.95019531 593.25 m 0,23,24
 1069.95019531 485.099609375 1069.95019531 485.099609375 1088.84960938 410.549804688 c 128,-1,25
 1107.75 336 1107.75 336 1149.22460938 298.200195312 c 128,-1,26
 1190.70019531 260.400390625 1190.70019531 260.400390625 1258.95019531 260.400390625 c 256,27,28
 1327.20019531 260.400390625 1327.20019531 260.400390625 1368.15039062 298.200195312 c 128,-1,29
 1409.09960938 336 1409.09960938 336 1428.52539062 410.549804688 c 128,-1,30
 1447.95019531 485.099609375 1447.95019531 485.099609375 1447.95019531 593.25 c 0,31,32
 1447.95019531 702.450195312 1447.95019531 702.450195312 1428.52539062 775.424804688 c 128,-1,33
 1409.09960938 848.400390625 1409.09960938 848.400390625 1367.625 885.150390625 c 128,-1,34
 1326.15039062 921.900390625 1326.15039062 921.900390625 1256.84960938 921.900390625 c 0,35,36
 1190.70019531 921.900390625 1190.70019531 921.900390625 1149.22460938 885.150390625 c 128,-1,37
 1107.75 848.400390625 1107.75 848.400390625 1088.84960938 775.424804688 c 128,-1,38
 1069.95019531 702.450195312 1069.95019531 702.450195312 1069.95019531 593.25 c 0,23,24
EndSplineSet
Validated: 1
EndChar
StartChar: uni044F
Encoding: 1103 1103 488
Width: 1292
VWidth: 2150
GlyphClass: 2
Flags: W
AnchorPoint: "Anchor-1" 647.85 0 basechar 0
AnchorPoint: "Anchor-0" 647.85 1182.3 basechar 0
LayerCount: 2
Fore
SplineSet
378 0 m 1,0,-1
 -12.599609375 0 l 1,1,-1
 298.200195312 457.799804688 l 1,2,3
 240.450195312 486.150390625 240.450195312 486.150390625 191.625 532.875 c 128,-1,4
 142.799804688 579.599609375 142.799804688 579.599609375 112.875 648.375 c 128,-1,5
 82.9501953125 717.150390625 82.9501953125 717.150390625 82.9501953125 809.549804688 c 0,6,7
 82.9501953125 992.25 82.9501953125 992.25 219.450195312 1087.27539062 c 128,-1,8
 355.950195312 1182.29980469 355.950195312 1182.29980469 580.650390625 1182.29980469 c 2,9,-1
 1138.20019531 1182.29980469 l 1,10,-1
 1138.20019531 0 l 1,11,-1
 772.799804688 0 l 1,12,-1
 772.799804688 425.25 l 1,13,-1
 623.700195312 425.25 l 1,14,-1
 378 0 l 1,0,-1
445.200195312 802.200195312 m 0,15,16
 445.200195312 743.400390625 445.200195312 743.400390625 490.875 705.075195312 c 128,-1,17
 536.549804688 666.75 536.549804688 666.75 624.75 666.75 c 2,18,-1
 772.799804688 666.75 l 1,19,-1
 772.799804688 934.5 l 1,20,-1
 603.75 934.5 l 2,21,22
 520.799804688 934.5 520.799804688 934.5 483 895.650390625 c 128,-1,23
 445.200195312 856.799804688 445.200195312 856.799804688 445.200195312 802.200195312 c 0,15,16
EndSplineSet
Validated: 1
EndChar
StartChar: uni0452
Encoding: 1106 1106 490
Width: 1438
VWidth: 2150
GlyphClass: 2
Flags: W
AnchorPoint: "Anchor-1" 719.25 -516.6 basechar 0
AnchorPoint: "Anchor-0" 719.25 1633.8 basechar 0
LayerCount: 2
Fore
SplineSet
878.849609375 -516.599609375 m 0,0,1
 828.450195312 -516.599609375 828.450195312 -516.599609375 768.075195312 -508.724609375 c 128,-1,2
 707.700195312 -500.849609375 707.700195312 -500.849609375 667.799804688 -490.349609375 c 1,3,-1
 667.799804688 -204.75 l 1,4,5
 702.450195312 -215.25 702.450195312 -215.25 730.275390625 -219.450195312 c 128,-1,6
 758.099609375 -223.650390625 758.099609375 -223.650390625 794.849609375 -223.650390625 c 0,7,8
 846.299804688 -223.650390625 846.299804688 -223.650390625 884.099609375 -187.950195312 c 128,-1,9
 921.900390625 -152.25 921.900390625 -152.25 921.900390625 -45.150390625 c 2,10,-1
 921.900390625 594.299804688 l 2,11,12
 921.900390625 711.900390625 921.900390625 711.900390625 879.900390625 770.700195312 c 128,-1,13
 837.900390625 829.5 837.900390625 829.5 756 829.5 c 0,14,15
 670.950195312 829.5 670.950195312 829.5 621.599609375 785.400390625 c 128,-1,16
 572.25 741.299804688 572.25 741.299804688 551.775390625 657.299804688 c 128,-1,17
 531.299804688 573.299804688 531.299804688 573.299804688 531.299804688 451.5 c 2,18,-1
 531.299804688 0 l 1,19,-1
 165.900390625 0 l 1,20,-1
 165.900390625 1241.09960938 l 1,21,-1
 2.099609375 1241.09960938 l 1,22,-1
 2.099609375 1472.09960938 l 1,23,-1
 165.900390625 1472.09960938 l 1,24,-1
 165.900390625 1633.79980469 l 1,25,-1
 531.299804688 1633.79980469 l 1,26,-1
 531.299804688 1472.09960938 l 1,27,-1
 819 1472.09960938 l 1,28,-1
 819 1241.09960938 l 1,29,-1
 531.299804688 1241.09960938 l 1,30,-1
 531.299804688 1209.59960938 l 2,31,32
 531.299804688 1141.34960938 531.299804688 1141.34960938 525.525390625 1065.22460938 c 128,-1,33
 519.75 989.099609375 519.75 989.099609375 515.549804688 948.150390625 c 1,34,-1
 536.549804688 948.150390625 l 1,35,36
 575.400390625 1009.04980469 575.400390625 1009.04980469 624.75 1046.32519531 c 128,-1,37
 674.099609375 1083.59960938 674.099609375 1083.59960938 735.525390625 1100.92480469 c 128,-1,38
 796.950195312 1118.25 796.950195312 1118.25 869.400390625 1118.25 c 0,39,40
 992.25 1118.25 992.25 1118.25 1086.75 1073.09960938 c 128,-1,41
 1181.25 1027.95019531 1181.25 1027.95019531 1234.79980469 932.924804688 c 128,-1,42
 1288.34960938 837.900390625 1288.34960938 837.900390625 1288.34960938 686.700195312 c 2,43,-1
 1288.34960938 -111.299804688 l 2,44,45
 1288.34960938 -218.400390625 1288.34960938 -218.400390625 1248.45019531 -310.799804688 c 128,-1,46
 1208.54980469 -403.200195312 1208.54980469 -403.200195312 1118.77539062 -459.900390625 c 128,-1,47
 1029 -516.599609375 1029 -516.599609375 878.849609375 -516.599609375 c 0,0,1
EndSplineSet
Validated: 1
EndChar
StartChar: uni0460
Encoding: 1120 1120 605
Width: 2077
VWidth: 2150
GlyphClass: 2
Flags: W
AnchorPoint: "Anchor-1" 1040.55 0 basechar 0
AnchorPoint: "Anchor-0" 1040.55 1535.1 basechar 0
LayerCount: 2
Fore
SplineSet
490.349609375 0 m 1,0,1
 396.900390625 140.700195312 396.900390625 140.700195312 315.525390625 321.299804688 c 128,-1,2
 234.150390625 501.900390625 234.150390625 501.900390625 172.724609375 705.599609375 c 128,-1,3
 111.299804688 909.299804688 111.299804688 909.299804688 76.650390625 1120.875 c 128,-1,4
 42 1332.45019531 42 1332.45019531 42 1534.04980469 c 1,5,-1
 415.799804688 1534.04980469 l 1,6,7
 423.150390625 1352.40039062 423.150390625 1352.40039062 445.200195312 1183.34960938 c 128,-1,8
 467.25 1014.29980469 467.25 1014.29980469 499.799804688 864.674804688 c 128,-1,9
 532.349609375 715.049804688 532.349609375 715.049804688 571.724609375 588.525390625 c 128,-1,10
 611.099609375 462 611.099609375 462 654.150390625 362.25 c 1,11,-1
 664.650390625 362.25 l 1,12,13
 679.349609375 443.099609375 679.349609375 443.099609375 703.5 531.825195312 c 128,-1,14
 727.650390625 620.549804688 727.650390625 620.549804688 752.849609375 698.25 c 2,15,-1
 876.75 1094.09960938 l 1,16,17
 864.150390625 1164.45019531 864.150390625 1164.45019531 853.650390625 1236.375 c 128,-1,18
 843.150390625 1308.29980469 843.150390625 1308.29980469 836.325195312 1383.375 c 128,-1,19
 829.5 1458.45019531 829.5 1458.45019531 827.400390625 1536.15039062 c 1,20,-1
 1201.20019531 1536.15039062 l 1,21,22
 1206.45019531 1381.79980469 1206.45019531 1381.79980469 1225.875 1222.72460938 c 128,-1,23
 1245.29980469 1063.65039062 1245.29980469 1063.65039062 1278.375 909.299804688 c 128,-1,24
 1311.45019531 754.950195312 1311.45019531 754.950195312 1357.65039062 612.150390625 c 128,-1,25
 1403.84960938 469.349609375 1403.84960938 469.349609375 1460.54980469 345.450195312 c 1,26,-1
 1472.09960938 345.450195312 l 1,27,28
 1538.25 502.950195312 1538.25 502.950195312 1580.77539062 679.875 c 128,-1,29
 1623.29980469 856.799804688 1623.29980469 856.799804688 1643.77539062 1066.79980469 c 128,-1,30
 1664.25 1276.79980469 1664.25 1276.79980469 1663.20019531 1534.04980469 c 1,31,-1
 2035.95019531 1534.04980469 l 1,32,33
 2035.95019531 1227.45019531 2035.95019531 1227.45019531 1992.375 958.125 c 128,-1,34
 1948.79980469 688.799804688 1948.79980469 688.799804688 1857.97460938 451.5 c 128,-1,35
 1767.15039062 214.200195312 1767.15039062 214.200195312 1624.34960938 0 c 1,36,-1
 1290.45019531 0 l 1,37,38
 1252.65039062 59.849609375 1252.65039062 59.849609375 1213.27539062 136.5 c 128,-1,39
 1173.90039062 213.150390625 1173.90039062 213.150390625 1136.09960938 296.099609375 c 128,-1,40
 1098.29980469 379.049804688 1098.29980469 379.049804688 1066.79980469 461.474609375 c 128,-1,41
 1035.29980469 543.900390625 1035.29980469 543.900390625 1014.29980469 615.299804688 c 1,42,-1
 838.950195312 0 l 1,43,-1
 490.349609375 0 l 1,0,1
EndSplineSet
Validated: 33
EndChar
StartChar: uni0464
Encoding: 1124 1124 609
Width: 2051
VWidth: 2150
GlyphClass: 2
Flags: W
AnchorPoint: "Anchor-1" 1423.8 0 basechar 0
AnchorPoint: "Anchor-0" 1423.8 1535.1 basechar 0
LayerCount: 2
Fore
SplineSet
1505.70019531 -21 m 0,0,1
 1274.70019531 -21 1274.70019531 -21 1118.25 59.849609375 c 128,-1,2
 961.799804688 140.700195312 961.799804688 140.700195312 877.275390625 288.224609375 c 128,-1,3
 792.75 435.75 792.75 435.75 771.75 635.25 c 1,4,-1
 551.25 635.25 l 1,5,-1
 551.25 0 l 1,6,-1
 179.549804688 0 l 1,7,-1
 179.549804688 1535.09960938 l 1,8,-1
 551.25 1535.09960938 l 1,9,-1
 551.25 928.200195312 l 1,10,-1
 778.049804688 928.200195312 l 1,11,12
 799.049804688 1068.90039062 799.049804688 1068.90039062 857.849609375 1183.875 c 128,-1,13
 916.650390625 1298.84960938 916.650390625 1298.84960938 1011.67480469 1382.32519531 c 128,-1,14
 1106.70019531 1465.79980469 1106.70019531 1465.79980469 1236.90039062 1510.95019531 c 128,-1,15
 1367.09960938 1556.09960938 1367.09960938 1556.09960938 1530.90039062 1556.09960938 c 0,16,17
 1669.5 1556.09960938 1669.5 1556.09960938 1792.34960938 1524.07519531 c 128,-1,18
 1915.20019531 1492.04980469 1915.20019531 1492.04980469 2016 1444.79980469 c 1,19,-1
 1897.34960938 1144.5 l 1,20,21
 1808.09960938 1188.59960938 1808.09960938 1188.59960938 1719.375 1219.04980469 c 128,-1,22
 1630.65039062 1249.5 1630.65039062 1249.5 1528.79980469 1249.5 c 0,23,24
 1451.09960938 1249.5 1451.09960938 1249.5 1387.04980469 1229.54980469 c 128,-1,25
 1323 1209.59960938 1323 1209.59960938 1275.22460938 1169.17480469 c 128,-1,26
 1227.45019531 1128.75 1227.45019531 1128.75 1197 1068.90039062 c 128,-1,27
 1166.54980469 1009.04980469 1166.54980469 1009.04980469 1156.04980469 928.200195312 c 1,28,-1
 1781.84960938 928.200195312 l 1,29,-1
 1781.84960938 635.25 l 1,30,-1
 1155 635.25 l 1,31,32
 1161.29980469 557.549804688 1161.29980469 557.549804688 1187.02539062 493.5 c 128,-1,33
 1212.75 429.450195312 1212.75 429.450195312 1260 383.25 c 128,-1,34
 1307.25 337.049804688 1307.25 337.049804688 1374.97460938 312.375 c 128,-1,35
 1442.70019531 287.700195312 1442.70019531 287.700195312 1530.90039062 287.700195312 c 0,36,37
 1644.29980469 287.700195312 1644.29980469 287.700195312 1746.15039062 310.799804688 c 128,-1,38
 1848 333.900390625 1848 333.900390625 1963.5 372.75 c 1,39,-1
 1963.5 65.099609375 l 1,40,41
 1863.75 23.099609375 1863.75 23.099609375 1750.875 1.0498046875 c 128,-1,42
 1638 -21 1638 -21 1505.70019531 -21 c 0,0,1
EndSplineSet
Validated: 1
EndChar
StartChar: uni0465
Encoding: 1125 1125 610
Width: 1765
VWidth: 2150
GlyphClass: 2
Flags: W
AnchorPoint: "Anchor-1" 1237.95 0 basechar 0
AnchorPoint: "Anchor-0" 1237.95 1182.3 basechar 0
LayerCount: 2
Fore
SplineSet
1315.65039062 -21 m 0,0,1
 1146.59960938 -21 1146.59960938 -21 1022.70019531 30.974609375 c 128,-1,2
 898.799804688 82.9501953125 898.799804688 82.9501953125 824.25 191.625 c 128,-1,3
 749.700195312 300.299804688 749.700195312 300.299804688 728.700195312 470.400390625 c 1,4,-1
 520.799804688 470.400390625 l 1,5,-1
 520.799804688 0 l 1,6,-1
 155.400390625 0 l 1,7,-1
 155.400390625 1182.29980469 l 1,8,-1
 520.799804688 1182.29980469 l 1,9,-1
 520.799804688 738.150390625 l 1,10,-1
 731.849609375 738.150390625 l 1,11,12
 754.950195312 910.349609375 754.950195312 910.349609375 830.549804688 1012.20019531 c 128,-1,13
 906.150390625 1114.04980469 906.150390625 1114.04980469 1026.375 1158.67480469 c 128,-1,14
 1146.59960938 1203.29980469 1146.59960938 1203.29980469 1299.90039062 1203.29980469 c 0,15,16
 1409.09960938 1203.29980469 1409.09960938 1203.29980469 1509.90039062 1178.625 c 128,-1,17
 1610.70019531 1153.95019531 1610.70019531 1153.95019531 1694.70019531 1117.20019531 c 1,18,-1
 1590.75 869.400390625 l 1,19,20
 1521.45019531 900.900390625 1521.45019531 900.900390625 1447.95019531 919.799804688 c 128,-1,21
 1374.45019531 938.700195312 1374.45019531 938.700195312 1303.04980469 938.700195312 c 0,22,23
 1239 938.700195312 1239 938.700195312 1195.95019531 915.599609375 c 128,-1,24
 1152.90039062 892.5 1152.90039062 892.5 1129.27539062 847.875 c 128,-1,25
 1105.65039062 803.25 1105.65039062 803.25 1098.29980469 738.150390625 c 1,26,-1
 1513.04980469 738.150390625 l 1,27,-1
 1513.04980469 470.400390625 l 1,28,-1
 1098.29980469 470.400390625 l 1,29,30
 1104.59960938 388.5 1104.59960938 388.5 1132.42480469 338.625 c 128,-1,31
 1160.25 288.75 1160.25 288.75 1208.02539062 266.700195312 c 128,-1,32
 1255.79980469 244.650390625 1255.79980469 244.650390625 1319.84960938 244.650390625 c 0,33,34
 1412.25 244.650390625 1412.25 244.650390625 1499.40039062 268.275390625 c 128,-1,35
 1586.54980469 291.900390625 1586.54980469 291.900390625 1675.79980469 334.950195312 c 1,36,-1
 1675.79980469 58.7998046875 l 1,37,38
 1594.95019531 16.7998046875 1594.95019531 16.7998046875 1507.79980469 -2.099609375 c 128,-1,39
 1420.65039062 -21 1420.65039062 -21 1315.65039062 -21 c 0,0,1
EndSplineSet
Validated: 1
EndChar
StartChar: uni0468
Encoding: 1128 1128 613
Width: 2329
VWidth: 2150
GlyphClass: 2
Flags: W
AnchorPoint: "Anchor-1" 1488.9 0 basechar 0
AnchorPoint: "Anchor-0" 1488.9 1535.1 basechar 0
LayerCount: 2
Fore
SplineSet
1703.09960938 1538.25 m 1,0,-1
 2336.25 0 l 1,1,-1
 1965.59960938 0 l 1,2,-1
 1743 622.650390625 l 1,3,-1
 1647.45019531 622.650390625 l 1,4,-1
 1647.45019531 0 l 1,5,-1
 1321.95019531 0 l 1,6,-1
 1321.95019531 622.650390625 l 1,7,-1
 1225.34960938 622.650390625 l 1,8,-1
 1004.84960938 0 l 1,9,-1
 631.049804688 0 l 1,10,-1
 893.549804688 644.700195312 l 1,11,-1
 551.25 644.700195312 l 1,12,-1
 551.25 0 l 1,13,-1
 179.549804688 0 l 1,14,-1
 179.549804688 1535.09960938 l 1,15,-1
 551.25 1535.09960938 l 1,16,-1
 551.25 950.25 l 1,17,-1
 1020.59960938 950.25 l 1,18,-1
 1260 1538.25 l 1,19,-1
 1703.09960938 1538.25 l 1,0,-1
1484.70019531 1312.5 m 1,20,21
 1479.45019531 1289.40039062 1479.45019531 1289.40039062 1466.84960938 1253.70019531 c 128,-1,22
 1454.25 1218 1454.25 1218 1438.5 1176 c 128,-1,23
 1422.75 1134 1422.75 1134 1407.52539062 1095.67480469 c 128,-1,24
 1392.29980469 1057.34960938 1392.29980469 1057.34960938 1380.75 1030.04980469 c 2,25,-1
 1329.29980469 899.849609375 l 1,26,-1
 1636.95019531 899.849609375 l 1,27,-1
 1585.5 1031.09960938 l 2,28,29
 1573.95019531 1059.45019531 1573.95019531 1059.45019531 1559.77539062 1097.77539062 c 128,-1,30
 1545.59960938 1136.09960938 1545.59960938 1136.09960938 1530.375 1176.52539062 c 128,-1,31
 1515.15039062 1216.95019531 1515.15039062 1216.95019531 1503.07519531 1253.17480469 c 128,-1,32
 1491 1289.40039062 1491 1289.40039062 1484.70019531 1312.5 c 1,20,21
EndSplineSet
Validated: 1
EndChar
StartChar: uni0469
Encoding: 1129 1129 614
Width: 2045
VWidth: 2150
GlyphClass: 2
Flags: W
AnchorPoint: "Anchor-1" 1330.35 0 basechar 0
AnchorPoint: "Anchor-0" 1330.35 1182.3 basechar 0
LayerCount: 2
Fore
SplineSet
1530.90039062 1182.29980469 m 1,0,-1
 2052.75 0 l 1,1,-1
 1701 0 l 1,2,-1
 1543.5 436.799804688 l 1,3,-1
 1476.29980469 436.799804688 l 1,4,-1
 1476.29980469 0 l 1,5,-1
 1173.90039062 0 l 1,6,-1
 1173.90039062 436.799804688 l 1,7,-1
 1106.70019531 436.799804688 l 1,8,-1
 946.049804688 0 l 1,9,-1
 595.349609375 0 l 1,10,-1
 800.099609375 470.400390625 l 1,11,-1
 488.25 470.400390625 l 1,12,-1
 488.25 0 l 1,13,-1
 155.400390625 0 l 1,14,-1
 155.400390625 1182.29980469 l 1,15,-1
 488.25 1182.29980469 l 1,16,-1
 488.25 742.349609375 l 1,17,-1
 918.75 742.349609375 l 1,18,-1
 1111.95019531 1182.29980469 l 1,19,-1
 1530.90039062 1182.29980469 l 1,0,-1
1326.15039062 978.599609375 m 1,20,-1
 1318.79980469 978.599609375 l 1,21,22
 1308.29980469 946.049804688 1308.29980469 946.049804688 1291.5 899.849609375 c 128,-1,23
 1274.70019531 853.650390625 1274.70019531 853.650390625 1258.42480469 811.650390625 c 128,-1,24
 1242.15039062 769.650390625 1242.15039062 769.650390625 1232.70019531 747.599609375 c 2,25,-1
 1204.34960938 681.450195312 l 1,26,-1
 1447.95019531 681.450195312 l 1,27,-1
 1418.54980469 745.5 l 2,28,29
 1405.95019531 772.799804688 1405.95019531 772.799804688 1388.09960938 815.325195312 c 128,-1,30
 1370.25 857.849609375 1370.25 857.849609375 1353.45019531 902.474609375 c 128,-1,31
 1336.65039062 947.099609375 1336.65039062 947.099609375 1326.15039062 978.599609375 c 1,20,-1
EndSplineSet
Validated: 1
EndChar
StartChar: uni046C
Encoding: 1132 1132 617
Width: 2415
VWidth: 2150
GlyphClass: 2
Flags: W
AnchorPoint: "Anchor-1" 1531.95 0 basechar 0
AnchorPoint: "Anchor-0" 1531.95 1535.1 basechar 0
LayerCount: 2
Fore
SplineSet
2228.09960938 1535.09960938 m 1,0,-1
 2228.09960938 1371.29980469 l 1,1,-1
 1844.84960938 897.75 l 1,2,3
 1937.25 872.549804688 1937.25 872.549804688 2006.02539062 825.299804688 c 128,-1,4
 2074.79980469 778.049804688 2074.79980469 778.049804688 2128.34960938 694.575195312 c 128,-1,5
 2181.90039062 611.099609375 2181.90039062 611.099609375 2229.15039062 475.650390625 c 2,6,-1
 2399.25 0 l 1,7,-1
 2024.40039062 0 l 1,8,-1
 1895.25 381.150390625 l 2,9,10
 1866.90039062 468.299804688 1866.90039062 468.299804688 1838.54980469 525 c 128,-1,11
 1810.20019531 581.700195312 1810.20019531 581.700195312 1777.65039062 612.674804688 c 128,-1,12
 1745.09960938 643.650390625 1745.09960938 643.650390625 1699.95019531 652.049804688 c 1,13,-1
 1699.95019531 0 l 1,14,-1
 1345.04980469 0 l 1,15,-1
 1345.04980469 652.049804688 l 1,16,17
 1299.90039062 644.700195312 1299.90039062 644.700195312 1266.29980469 614.25 c 128,-1,18
 1232.70019531 583.799804688 1232.70019531 583.799804688 1204.875 526.049804688 c 128,-1,19
 1177.04980469 468.299804688 1177.04980469 468.299804688 1147.65039062 381.150390625 c 2,20,-1
 1018.5 0 l 1,21,-1
 644.700195312 0 l 1,22,-1
 813.75 475.650390625 l 2,23,24
 830.549804688 522.900390625 830.549804688 522.900390625 851.025390625 567.525390625 c 128,-1,25
 871.5 612.150390625 871.5 612.150390625 894.599609375 644.700195312 c 1,26,-1
 551.25 644.700195312 l 1,27,-1
 551.25 0 l 1,28,-1
 179.549804688 0 l 1,29,-1
 179.549804688 1535.09960938 l 1,30,-1
 551.25 1535.09960938 l 1,31,-1
 551.25 950.25 l 1,32,-1
 1151.84960938 950.25 l 1,33,-1
 817.950195312 1371.29980469 l 1,34,-1
 817.950195312 1535.09960938 l 1,35,-1
 2228.09960938 1535.09960938 l 1,0,-1
1755.59960938 1247.40039062 m 1,36,-1
 1286.25 1247.40039062 l 1,37,-1
 1519.34960938 928.200195312 l 1,38,-1
 1755.59960938 1247.40039062 l 1,36,-1
EndSplineSet
Validated: 1
EndChar
StartChar: uni0473
Encoding: 1139 1139 624
Width: 1351
VWidth: 2150
GlyphClass: 2
Flags: W
AnchorPoint: "Anchor-1" 676.2 0 basechar 0
AnchorPoint: "Anchor-0" 676.2 1182.3 basechar 0
LayerCount: 2
Fore
SplineSet
1256.84960938 593.25 m 256,0,1
 1256.84960938 396.900390625 1256.84960938 396.900390625 1185.97460938 259.349609375 c 128,-1,2
 1115.09960938 121.799804688 1115.09960938 121.799804688 983.849609375 50.400390625 c 128,-1,3
 852.599609375 -21 852.599609375 -21 672 -21 c 0,4,5
 504 -21 504 -21 373.275390625 50.400390625 c 128,-1,6
 242.549804688 121.799804688 242.549804688 121.799804688 168 259.349609375 c 128,-1,7
 93.4501953125 396.900390625 93.4501953125 396.900390625 93.4501953125 593.25 c 0,8,9
 93.4501953125 887.25 93.4501953125 887.25 249.900390625 1045.27539062 c 128,-1,10
 406.349609375 1203.29980469 406.349609375 1203.29980469 678.299804688 1203.29980469 c 0,11,12
 846.299804688 1203.29980469 846.299804688 1203.29980469 977.025390625 1132.42480469 c 128,-1,13
 1107.75 1061.54980469 1107.75 1061.54980469 1182.29980469 925.575195312 c 128,-1,14
 1256.84960938 789.599609375 1256.84960938 789.599609375 1256.84960938 593.25 c 256,0,1
676.200195312 252 m 0,15,16
 743.400390625 252 743.400390625 252 789.075195312 277.200195312 c 128,-1,17
 834.75 302.400390625 834.75 302.400390625 861.525390625 352.799804688 c 128,-1,18
 888.299804688 403.200195312 888.299804688 403.200195312 894.599609375 476.700195312 c 1,19,-1
 454.650390625 476.700195312 l 1,20,21
 463.049804688 403.200195312 463.049804688 403.200195312 489.825195312 352.799804688 c 128,-1,22
 516.599609375 302.400390625 516.599609375 302.400390625 563.325195312 277.200195312 c 128,-1,23
 610.049804688 252 610.049804688 252 676.200195312 252 c 0,15,16
674.099609375 930.299804688 m 0,24,25
 574.349609375 930.299804688 574.349609375 930.299804688 519.75 873.075195312 c 128,-1,26
 465.150390625 815.849609375 465.150390625 815.849609375 454.650390625 703.5 c 1,27,-1
 895.650390625 703.5 l 1,28,29
 889.349609375 779.099609375 889.349609375 779.099609375 862.575195312 829.5 c 128,-1,30
 835.799804688 879.900390625 835.799804688 879.900390625 789.599609375 905.099609375 c 128,-1,31
 743.400390625 930.299804688 743.400390625 930.299804688 674.099609375 930.299804688 c 0,24,25
EndSplineSet
Validated: 1
EndChar
StartChar: uni047C
Encoding: 1148 1148 633
Width: 2376
VWidth: 2150
GlyphClass: 1
Flags: W
LayerCount: 2
Fore
SplineSet
775.950195312 2000.25 m 1,0,-1
 775.950195312 2058 l 2,1,2
 775.950195312 2149.34960938 775.950195312 2149.34960938 799.575195312 2208.15039062 c 128,-1,3
 823.200195312 2266.95019531 823.200195312 2266.95019531 863.625 2299.5 c 128,-1,4
 904.049804688 2332.04980469 904.049804688 2332.04980469 957.599609375 2345.17480469 c 128,-1,5
 1011.15039062 2358.29980469 1011.15039062 2358.29980469 1071 2358.29980469 c 0,6,7
 1137.15039062 2358.29980469 1137.15039062 2358.29980469 1199.09960938 2338.875 c 128,-1,8
 1261.04980469 2319.45019531 1261.04980469 2319.45019531 1324.57519531 2294.25 c 128,-1,9
 1388.09960938 2269.04980469 1388.09960938 2269.04980469 1458.45019531 2249.625 c 128,-1,10
 1528.79980469 2230.20019531 1528.79980469 2230.20019531 1610.70019531 2230.20019531 c 2,11,-1
 1626.45019531 2230.20019531 l 1,12,-1
 1626.45019531 2001.29980469 l 1,13,-1
 1608.59960938 2001.29980469 l 2,14,15
 1483.65039062 2001.29980469 1483.65039062 2001.29980469 1402.27539062 2018.09960938 c 128,-1,16
 1320.90039062 2034.90039062 1320.90039062 2034.90039062 1267.34960938 2057.47460938 c 128,-1,17
 1213.79980469 2080.04980469 1213.79980469 2080.04980469 1173.90039062 2096.84960938 c 128,-1,18
 1134 2113.65039062 1134 2113.65039062 1090.95019531 2113.65039062 c 0,19,20
 1042.65039062 2113.65039062 1042.65039062 2113.65039062 1017.97460938 2085.29980469 c 128,-1,21
 993.299804688 2056.95019531 993.299804688 2056.95019531 988.049804688 2000.25 c 1,22,-1
 775.950195312 2000.25 l 1,0,-1
1018.5 1569.75 m 1,23,-1
 1018.5 1668.45019531 l 1,24,25
 1080.45019531 1678.95019531 1080.45019531 1678.95019531 1110.375 1708.34960938 c 128,-1,26
 1140.29980469 1737.75 1140.29980469 1737.75 1140.29980469 1765.04980469 c 256,27,28
 1140.29980469 1792.34960938 1140.29980469 1792.34960938 1120.34960938 1802.84960938 c 128,-1,29
 1100.40039062 1813.34960938 1100.40039062 1813.34960938 1074.15039062 1820.17480469 c 128,-1,30
 1047.90039062 1827 1047.90039062 1827 1027.95019531 1841.17480469 c 128,-1,31
 1008 1855.34960938 1008 1855.34960938 1008 1890 c 0,32,33
 1008 1944.59960938 1008 1944.59960938 1052.625 1979.25 c 128,-1,34
 1097.25 2013.90039062 1097.25 2013.90039062 1184.40039062 2013.90039062 c 0,35,36
 1272.59960938 2013.90039062 1272.59960938 2013.90039062 1319.84960938 1963.5 c 128,-1,37
 1367.09960938 1913.09960938 1367.09960938 1913.09960938 1367.09960938 1832.25 c 0,38,39
 1368.15039062 1754.54980469 1368.15039062 1754.54980469 1322.47460938 1696.27539062 c 128,-1,40
 1276.79980469 1638 1276.79980469 1638 1197.52539062 1604.92480469 c 128,-1,41
 1118.25 1571.84960938 1118.25 1571.84960938 1018.5 1569.75 c 1,23,-1
765.450195312 -21 m 0,42,43
 535.5 -21 535.5 -21 392.700195312 81.900390625 c 128,-1,44
 249.900390625 184.799804688 249.900390625 184.799804688 183.75 371.700195312 c 128,-1,45
 117.599609375 558.599609375 117.599609375 558.599609375 117.599609375 810.599609375 c 0,46,47
 117.599609375 984.900390625 117.599609375 984.900390625 156.974609375 1122.45019531 c 128,-1,48
 196.349609375 1260 196.349609375 1260 274.575195312 1356.59960938 c 128,-1,49
 352.799804688 1453.20019531 352.799804688 1453.20019531 466.724609375 1504.125 c 128,-1,50
 580.650390625 1555.04980469 580.650390625 1555.04980469 729.75 1555.04980469 c 0,51,52
 826.349609375 1555.04980469 826.349609375 1555.04980469 918.75 1525.125 c 128,-1,53
 1011.15039062 1495.20019531 1011.15039062 1495.20019531 1073.09960938 1444.79980469 c 1,54,-1
 939.75 1180.20019531 l 1,55,56
 907.200195312 1204.34960938 907.200195312 1204.34960938 858.900390625 1230.59960938 c 128,-1,57
 810.599609375 1256.84960938 810.599609375 1256.84960938 742.349609375 1256.84960938 c 0,58,59
 680.400390625 1256.84960938 680.400390625 1256.84960938 633.150390625 1225.34960938 c 128,-1,60
 585.900390625 1193.84960938 585.900390625 1193.84960938 554.400390625 1134.52539062 c 128,-1,61
 522.900390625 1075.20019531 522.900390625 1075.20019531 506.625 993.825195312 c 128,-1,62
 490.349609375 912.450195312 490.349609375 912.450195312 490.349609375 811.650390625 c 0,63,64
 490.349609375 630 490.349609375 630 526.049804688 514.5 c 128,-1,65
 561.75 399 561.75 399 631.049804688 344.924804688 c 128,-1,66
 700.349609375 290.849609375 700.349609375 290.849609375 799.049804688 290.849609375 c 0,67,68
 856.799804688 290.849609375 856.799804688 290.849609375 907.200195312 312.375 c 128,-1,69
 957.599609375 333.900390625 957.599609375 333.900390625 999.599609375 368.549804688 c 1,70,-1
 999.599609375 766.5 l 1,71,-1
 1371.29980469 766.5 l 1,72,-1
 1371.29980469 368.549804688 l 1,73,74
 1409.09960938 333.900390625 1409.09960938 333.900390625 1462.65039062 312.375 c 128,-1,75
 1516.20019531 290.849609375 1516.20019531 290.849609375 1579.20019531 290.849609375 c 0,76,77
 1686.29980469 290.849609375 1686.29980469 290.849609375 1754.02539062 350.174804688 c 128,-1,78
 1821.75 409.5 1821.75 409.5 1853.77539062 524.474609375 c 128,-1,79
 1885.79980469 639.450195312 1885.79980469 639.450195312 1885.79980469 805.349609375 c 0,80,81
 1885.79980469 921.900390625 1885.79980469 921.900390625 1867.95019531 1006.42480469 c 128,-1,82
 1850.09960938 1090.95019531 1850.09960938 1090.95019531 1816.5 1146.59960938 c 128,-1,83
 1782.90039062 1202.25 1782.90039062 1202.25 1736.70019531 1229.54980469 c 128,-1,84
 1690.5 1256.84960938 1690.5 1256.84960938 1634.84960938 1256.84960938 c 0,85,86
 1571.84960938 1256.84960938 1571.84960938 1256.84960938 1520.92480469 1230.59960938 c 128,-1,87
 1470 1204.34960938 1470 1204.34960938 1437.45019531 1180.20019531 c 1,88,-1
 1303.04980469 1444.79980469 l 1,89,90
 1366.04980469 1495.20019531 1366.04980469 1495.20019531 1459.5 1525.125 c 128,-1,91
 1552.95019531 1555.04980469 1552.95019531 1555.04980469 1655.84960938 1555.04980469 c 0,92,93
 1804.95019531 1555.04980469 1804.95019531 1555.04980469 1917.82519531 1504.65039062 c 128,-1,94
 2030.70019531 1454.25 2030.70019531 1454.25 2106.29980469 1358.17480469 c 128,-1,95
 2181.90039062 1262.09960938 2181.90039062 1262.09960938 2220.22460938 1125.07519531 c 128,-1,96
 2258.54980469 988.049804688 2258.54980469 988.049804688 2258.54980469 813.75 c 0,97,98
 2258.54980469 636.299804688 2258.54980469 636.299804688 2223.90039062 484.049804688 c 128,-1,99
 2189.25 331.799804688 2189.25 331.799804688 2112.59960938 218.400390625 c 128,-1,100
 2035.95019531 105 2035.95019531 105 1912.04980469 42 c 128,-1,101
 1788.15039062 -21 1788.15039062 -21 1610.70019531 -21 c 0,102,103
 1479.45019531 -21 1479.45019531 -21 1373.92480469 22.5751953125 c 128,-1,104
 1268.40039062 66.150390625 1268.40039062 66.150390625 1185.45019531 141.75 c 1,105,106
 1103.54980469 66.150390625 1103.54980469 66.150390625 999.075195312 22.5751953125 c 128,-1,107
 894.599609375 -21 894.599609375 -21 765.450195312 -21 c 0,42,43
EndSplineSet
Validated: 33
EndChar
StartChar: uni047D
Encoding: 1149 1149 634
Width: 2066
VWidth: 2150
GlyphClass: 1
Flags: W
LayerCount: 2
Fore
SplineSet
995.400390625 1680 m 0,0,1
 1083.59960938 1680 1083.59960938 1680 1131.375 1629.59960938 c 128,-1,2
 1179.15039062 1579.20019531 1179.15039062 1579.20019531 1179.15039062 1498.34960938 c 0,3,4
 1179.15039062 1419.59960938 1179.15039062 1419.59960938 1135.04980469 1361.84960938 c 128,-1,5
 1090.95019531 1304.09960938 1090.95019531 1304.09960938 1012.20019531 1271.02539062 c 128,-1,6
 933.450195312 1237.95019531 933.450195312 1237.95019531 830.549804688 1235.84960938 c 1,7,-1
 830.549804688 1334.54980469 l 1,8,9
 892.5 1344 892.5 1344 921.900390625 1373.92480469 c 128,-1,10
 951.299804688 1403.84960938 951.299804688 1403.84960938 951.299804688 1431.15039062 c 256,11,12
 951.299804688 1458.45019531 951.299804688 1458.45019531 931.349609375 1468.95019531 c 128,-1,13
 911.400390625 1479.45019531 911.400390625 1479.45019531 885.674804688 1485.75 c 128,-1,14
 859.950195312 1492.04980469 859.950195312 1492.04980469 840 1506.75 c 128,-1,15
 820.049804688 1521.45019531 820.049804688 1521.45019531 820.049804688 1556.09960938 c 0,16,17
 820.049804688 1609.65039062 820.049804688 1609.65039062 864.674804688 1644.82519531 c 128,-1,18
 909.299804688 1680 909.299804688 1680 995.400390625 1680 c 0,0,1
883.049804688 2023.34960938 m 0,19,20
 949.200195312 2023.34960938 949.200195312 2023.34960938 1010.625 2003.92480469 c 128,-1,21
 1072.04980469 1984.5 1072.04980469 1984.5 1136.09960938 1959.82519531 c 128,-1,22
 1200.15039062 1935.15039062 1200.15039062 1935.15039062 1270.5 1915.72460938 c 128,-1,23
 1340.84960938 1896.29980469 1340.84960938 1896.29980469 1422.75 1896.29980469 c 2,24,-1
 1437.45019531 1896.29980469 l 1,25,-1
 1437.45019531 1667.40039062 l 1,26,-1
 1420.65039062 1667.40039062 l 2,27,28
 1295.70019531 1667.40039062 1295.70019531 1667.40039062 1213.79980469 1684.20019531 c 128,-1,29
 1131.90039062 1701 1131.90039062 1701 1078.875 1723.04980469 c 128,-1,30
 1025.84960938 1745.09960938 1025.84960938 1745.09960938 985.950195312 1762.42480469 c 128,-1,31
 946.049804688 1779.75 946.049804688 1779.75 901.950195312 1779.75 c 0,32,33
 853.650390625 1779.75 853.650390625 1779.75 829.5 1750.875 c 128,-1,34
 805.349609375 1722 805.349609375 1722 799.049804688 1665.29980469 c 1,35,-1
 588 1665.29980469 l 1,36,-1
 588 1724.09960938 l 2,37,38
 588 1815.45019531 588 1815.45019531 611.625 1873.72460938 c 128,-1,39
 635.25 1932 635.25 1932 675.674804688 1965.07519531 c 128,-1,40
 716.099609375 1998.15039062 716.099609375 1998.15039062 769.650390625 2010.75 c 128,-1,41
 823.200195312 2023.34960938 823.200195312 2023.34960938 883.049804688 2023.34960938 c 0,19,20
651 -19.9501953125 m 0,42,43
 522.900390625 -19.9501953125 522.900390625 -19.9501953125 422.099609375 14.7001953125 c 128,-1,44
 321.299804688 49.349609375 321.299804688 49.349609375 250.950195312 121.799804688 c 128,-1,45
 180.599609375 194.25 180.599609375 194.25 144.375 309.224609375 c 128,-1,46
 108.150390625 424.200195312 108.150390625 424.200195312 108.150390625 584.849609375 c 0,47,48
 108.150390625 807.450195312 108.150390625 807.450195312 177.974609375 943.950195312 c 128,-1,49
 247.799804688 1080.45019531 247.799804688 1080.45019531 367.5 1141.875 c 128,-1,50
 487.200195312 1203.29980469 487.200195312 1203.29980469 637.349609375 1203.29980469 c 0,51,52
 742.349609375 1203.29980469 742.349609375 1203.29980469 814.275390625 1176.52539062 c 128,-1,53
 886.200195312 1149.75 886.200195312 1149.75 938.700195312 1111.95019531 c 1,54,-1
 798 867.299804688 l 1,55,56
 761.25 889.349609375 761.25 889.349609375 724.5 901.424804688 c 128,-1,57
 687.75 913.5 687.75 913.5 649.950195312 913.5 c 0,58,59
 569.099609375 913.5 569.099609375 913.5 525 833.174804688 c 128,-1,60
 480.900390625 752.849609375 480.900390625 752.849609375 480.900390625 586.950195312 c 0,61,62
 480.900390625 499.799804688 480.900390625 499.799804688 496.125 439.950195312 c 128,-1,63
 511.349609375 380.099609375 511.349609375 380.099609375 539.174804688 342.825195312 c 128,-1,64
 567 305.549804688 567 305.549804688 605.325195312 288.75 c 128,-1,65
 643.650390625 271.950195312 643.650390625 271.950195312 689.849609375 271.950195312 c 256,66,67
 736.049804688 271.950195312 736.049804688 271.950195312 774.375 292.424804688 c 128,-1,68
 812.700195312 312.900390625 812.700195312 312.900390625 849.450195312 364.349609375 c 1,69,-1
 848.400390625 636.299804688 l 1,70,-1
 1215.90039062 636.299804688 l 1,71,-1
 1215.90039062 369.599609375 l 1,72,73
 1239 332.849609375 1239 332.849609375 1265.77539062 311.325195312 c 128,-1,74
 1292.54980469 289.799804688 1292.54980469 289.799804688 1322.47460938 280.875 c 128,-1,75
 1352.40039062 271.950195312 1352.40039062 271.950195312 1383.90039062 271.950195312 c 0,76,77
 1446.90039062 271.950195312 1446.90039062 271.950195312 1492.57519531 304.5 c 128,-1,78
 1538.25 337.049804688 1538.25 337.049804688 1562.40039062 406.875 c 128,-1,79
 1586.54980469 476.700195312 1586.54980469 476.700195312 1586.54980469 586.950195312 c 0,80,81
 1586.54980469 756 1586.54980469 756 1541.40039062 834.75 c 128,-1,82
 1496.25 913.5 1496.25 913.5 1417.5 913.5 c 0,83,84
 1377.59960938 913.5 1377.59960938 913.5 1340.84960938 900.900390625 c 128,-1,85
 1304.09960938 888.299804688 1304.09960938 888.299804688 1267.34960938 866.25 c 1,86,-1
 1125.59960938 1111.95019531 l 1,87,88
 1182.29980469 1149.75 1182.29980469 1149.75 1253.70019531 1176.52539062 c 128,-1,89
 1325.09960938 1203.29980469 1325.09960938 1203.29980469 1429.04980469 1203.29980469 c 0,90,91
 1584.45019531 1203.29980469 1584.45019531 1203.29980469 1703.625 1140.29980469 c 128,-1,92
 1822.79980469 1077.29980469 1822.79980469 1077.29980469 1891.04980469 940.799804688 c 128,-1,93
 1959.29980469 804.299804688 1959.29980469 804.299804688 1959.29980469 584.849609375 c 0,94,95
 1959.29980469 390.599609375 1959.29980469 390.599609375 1902.07519531 255.150390625 c 128,-1,96
 1844.84960938 119.700195312 1844.84960938 119.700195312 1724.625 49.875 c 128,-1,97
 1604.40039062 -19.9501953125 1604.40039062 -19.9501953125 1413.29980469 -19.9501953125 c 0,98,99
 1296.75 -19.9501953125 1296.75 -19.9501953125 1198.57519531 25.2001953125 c 128,-1,100
 1100.40039062 70.349609375 1100.40039062 70.349609375 1033.20019531 179.549804688 c 1,101,102
 968.099609375 74.5498046875 968.099609375 74.5498046875 871.5 27.2998046875 c 128,-1,103
 774.900390625 -19.9501953125 774.900390625 -19.9501953125 651 -19.9501953125 c 0,42,43
EndSplineSet
Validated: 1
EndChar
StartChar: uni0481
Encoding: 1153 1153 638
Width: 1148
VWidth: 2150
GlyphClass: 2
Flags: W
AnchorPoint: "Anchor-1" 574.35 -516.6 basechar 0
AnchorPoint: "Anchor-0" 574.35 1182.3 basechar 0
LayerCount: 2
Fore
SplineSet
700.349609375 1203.29980469 m 0,0,1
 803.25 1203.29980469 803.25 1203.29980469 900.375 1180.20019531 c 128,-1,2
 997.5 1157.09960938 997.5 1157.09960938 1082.54980469 1116.15039062 c 1,3,-1
 975.450195312 843.150390625 l 1,4,5
 898.799804688 874.650390625 898.799804688 874.650390625 831.075195312 894.075195312 c 128,-1,6
 763.349609375 913.5 763.349609375 913.5 696.150390625 913.5 c 0,7,8
 620.549804688 913.5 620.549804688 913.5 569.099609375 877.275390625 c 128,-1,9
 517.650390625 841.049804688 517.650390625 841.049804688 491.400390625 769.125 c 128,-1,10
 465.150390625 697.200195312 465.150390625 697.200195312 465.150390625 586.950195312 c 0,11,12
 465.150390625 478.799804688 465.150390625 478.799804688 494.549804688 408.974609375 c 128,-1,13
 523.950195312 339.150390625 523.950195312 339.150390625 577.5 305.549804688 c 128,-1,14
 631.049804688 271.950195312 631.049804688 271.950195312 701.400390625 271.950195312 c 0,15,16
 790.650390625 271.950195312 790.650390625 271.950195312 865.724609375 291.900390625 c 128,-1,17
 940.799804688 311.849609375 940.799804688 311.849609375 1009.04980469 344.400390625 c 1,18,-1
 1009.04980469 -516.599609375 l 1,19,-1
 643.650390625 -516.599609375 l 1,20,-1
 643.650390625 -18.900390625 l 1,21,22
 517.650390625 -11.5498046875 517.650390625 -11.5498046875 415.799804688 26.775390625 c 128,-1,23
 313.950195312 65.099609375 313.950195312 65.099609375 242.025390625 139.125 c 128,-1,24
 170.099609375 213.150390625 170.099609375 213.150390625 131.775390625 323.924804688 c 128,-1,25
 93.4501953125 434.700195312 93.4501953125 434.700195312 93.4501953125 584.849609375 c 0,26,27
 93.4501953125 810.599609375 93.4501953125 810.599609375 170.625 946.575195312 c 128,-1,28
 247.799804688 1082.54980469 247.799804688 1082.54980469 384.825195312 1142.92480469 c 128,-1,29
 521.849609375 1203.29980469 521.849609375 1203.29980469 700.349609375 1203.29980469 c 0,0,1
EndSplineSet
Validated: 1
EndChar
StartChar: uni0485
Encoding: 1157 1157 1041
Width: 0
VWidth: 2150
GlyphClass: 4
Flags: W
AnchorPoint: "Anchor-8" -560.7 1717.8 basemark 0
AnchorPoint: "Anchor-8" -564.9 1182.3 mark 0
AnchorPoint: "Anchor-5" -564.9 1182.3 mark 0
AnchorPoint: "Anchor-0" -564.9 1182.3 mark 0
LayerCount: 2
Fore
SplineSet
-744.450195312 1535.09960938 m 0,0,1
 -744.450195312 1617 -744.450195312 1617 -697.200195312 1667.40039062 c 128,-1,2
 -649.950195312 1717.79980469 -649.950195312 1717.79980469 -561.75 1717.79980469 c 0,3,4
 -474.599609375 1717.79980469 -474.599609375 1717.79980469 -430.5 1682.625 c 128,-1,5
 -386.400390625 1647.45019531 -386.400390625 1647.45019531 -386.400390625 1593.90039062 c 0,6,7
 -386.400390625 1559.25 -386.400390625 1559.25 -406.349609375 1544.54980469 c 128,-1,8
 -426.299804688 1529.84960938 -426.299804688 1529.84960938 -452.025390625 1523.54980469 c 128,-1,9
 -477.75 1517.25 -477.75 1517.25 -497.700195312 1506.75 c 128,-1,10
 -517.650390625 1496.25 -517.650390625 1496.25 -517.650390625 1468.95019531 c 256,11,12
 -517.650390625 1441.65039062 -517.650390625 1441.65039062 -488.25 1411.72460938 c 128,-1,13
 -458.849609375 1381.79980469 -458.849609375 1381.79980469 -396.900390625 1372.34960938 c 1,14,-1
 -396.900390625 1273.65039062 l 1,15,16
 -496.650390625 1275.75 -496.650390625 1275.75 -575.400390625 1308.29980469 c 128,-1,17
 -654.150390625 1340.84960938 -654.150390625 1340.84960938 -699.299804688 1399.125 c 128,-1,18
 -744.450195312 1457.40039062 -744.450195312 1457.40039062 -744.450195312 1535.09960938 c 0,0,1
EndSplineSet
Validated: 1
EndChar
StartChar: uni0488
Encoding: 1160 1160 640
Width: 2122
VWidth: 2150
GlyphClass: 1
Flags: W
LayerCount: 2
Fore
SplineSet
1430.09960938 987 m 1,0,1
 1435.34960938 1081.5 1435.34960938 1081.5 1497.82519531 1139.77539062 c 128,-1,2
 1560.29980469 1198.04980469 1560.29980469 1198.04980469 1666.34960938 1198.04980469 c 0,3,4
 1774.5 1198.04980469 1774.5 1198.04980469 1836.97460938 1139.77539062 c 128,-1,5
 1899.45019531 1081.5 1899.45019531 1081.5 1904.70019531 987 c 1,6,-1
 1801.79980469 987 l 1,7,8
 1797.59960938 1041.59960938 1797.59960938 1041.59960938 1757.70019531 1054.72460938 c 128,-1,9
 1717.79980469 1067.84960938 1717.79980469 1067.84960938 1666.34960938 1067.84960938 c 0,10,11
 1615.95019531 1067.84960938 1615.95019531 1067.84960938 1576.57519531 1054.72460938 c 128,-1,12
 1537.20019531 1041.59960938 1537.20019531 1041.59960938 1531.95019531 987 c 1,13,-1
 1430.09960938 987 l 1,0,1
212.099609375 -43.0498046875 m 1,14,15
 217.349609375 51.4501953125 217.349609375 51.4501953125 279.825195312 109.724609375 c 128,-1,16
 342.299804688 168 342.299804688 168 448.349609375 168 c 0,17,18
 555.450195312 168 555.450195312 168 617.924804688 109.724609375 c 128,-1,19
 680.400390625 51.4501953125 680.400390625 51.4501953125 686.700195312 -43.0498046875 c 1,20,-1
 583.799804688 -43.0498046875 l 1,21,22
 579.599609375 11.5498046875 579.599609375 11.5498046875 539.700195312 24.6748046875 c 128,-1,23
 499.799804688 37.7998046875 499.799804688 37.7998046875 448.349609375 37.7998046875 c 0,24,25
 397.950195312 37.7998046875 397.950195312 37.7998046875 358.575195312 24.6748046875 c 128,-1,26
 319.200195312 11.5498046875 319.200195312 11.5498046875 313.950195312 -43.0498046875 c 1,27,-1
 212.099609375 -43.0498046875 l 1,14,15
815.849609375 -334.950195312 m 1,28,29
 821.099609375 -240.450195312 821.099609375 -240.450195312 883.049804688 -182.700195312 c 128,-1,30
 945 -124.950195312 945 -124.950195312 1051.04980469 -124.950195312 c 0,31,32
 1159.20019531 -124.950195312 1159.20019531 -124.950195312 1221.67480469 -182.700195312 c 128,-1,33
 1284.15039062 -240.450195312 1284.15039062 -240.450195312 1289.40039062 -334.950195312 c 1,34,-1
 1187.54980469 -334.950195312 l 1,35,36
 1182.29980469 -281.400390625 1182.29980469 -281.400390625 1142.40039062 -267.75 c 128,-1,37
 1102.5 -254.099609375 1102.5 -254.099609375 1051.04980469 -254.099609375 c 0,38,39
 1000.65039062 -254.099609375 1000.65039062 -254.099609375 961.799804688 -267.75 c 128,-1,40
 922.950195312 -281.400390625 922.950195312 -281.400390625 917.700195312 -334.950195312 c 1,41,-1
 815.849609375 -334.950195312 l 1,28,29
40.9501953125 478.799804688 m 1,42,43
 46.2001953125 573.299804688 46.2001953125 573.299804688 108.674804688 631.049804688 c 128,-1,44
 171.150390625 688.799804688 171.150390625 688.799804688 278.25 688.799804688 c 256,45,46
 385.349609375 688.799804688 385.349609375 688.799804688 447.825195312 631.049804688 c 128,-1,47
 510.299804688 573.299804688 510.299804688 573.299804688 515.549804688 478.799804688 c 1,48,-1
 412.650390625 478.799804688 l 1,49,50
 408.450195312 533.400390625 408.450195312 533.400390625 368.549804688 546.525390625 c 128,-1,51
 328.650390625 559.650390625 328.650390625 559.650390625 278.25 559.650390625 c 0,52,53
 226.799804688 559.650390625 226.799804688 559.650390625 187.424804688 546.525390625 c 128,-1,54
 148.049804688 533.400390625 148.049804688 533.400390625 143.849609375 478.799804688 c 1,55,-1
 40.9501953125 478.799804688 l 1,42,43
212.099609375 987 m 1,56,57
 217.349609375 1081.5 217.349609375 1081.5 279.825195312 1139.77539062 c 128,-1,58
 342.299804688 1198.04980469 342.299804688 1198.04980469 448.349609375 1198.04980469 c 0,59,60
 555.450195312 1198.04980469 555.450195312 1198.04980469 617.924804688 1139.77539062 c 128,-1,61
 680.400390625 1081.5 680.400390625 1081.5 686.700195312 987 c 1,62,-1
 583.799804688 987 l 1,63,64
 579.599609375 1041.59960938 579.599609375 1041.59960938 539.700195312 1054.72460938 c 128,-1,65
 499.799804688 1067.84960938 499.799804688 1067.84960938 448.349609375 1067.84960938 c 0,66,67
 397.950195312 1067.84960938 397.950195312 1067.84960938 358.575195312 1054.72460938 c 128,-1,68
 319.200195312 1041.59960938 319.200195312 1041.59960938 313.950195312 987 c 1,69,-1
 212.099609375 987 l 1,56,57
1430.09960938 -43.0498046875 m 1,70,71
 1435.34960938 51.4501953125 1435.34960938 51.4501953125 1497.82519531 109.724609375 c 128,-1,72
 1560.29980469 168 1560.29980469 168 1666.34960938 168 c 0,73,74
 1774.5 168 1774.5 168 1836.97460938 109.724609375 c 128,-1,75
 1899.45019531 51.4501953125 1899.45019531 51.4501953125 1904.70019531 -43.0498046875 c 1,76,-1
 1801.79980469 -43.0498046875 l 1,77,78
 1797.59960938 11.5498046875 1797.59960938 11.5498046875 1757.70019531 24.6748046875 c 128,-1,79
 1717.79980469 37.7998046875 1717.79980469 37.7998046875 1666.34960938 37.7998046875 c 0,80,81
 1615.95019531 37.7998046875 1615.95019531 37.7998046875 1576.57519531 24.6748046875 c 128,-1,82
 1537.20019531 11.5498046875 1537.20019531 11.5498046875 1531.95019531 -43.0498046875 c 1,83,-1
 1430.09960938 -43.0498046875 l 1,70,71
1607.54980469 478.799804688 m 1,84,85
 1612.79980469 573.299804688 1612.79980469 573.299804688 1675.27539062 631.049804688 c 128,-1,86
 1737.75 688.799804688 1737.75 688.799804688 1844.84960938 688.799804688 c 256,87,88
 1951.95019531 688.799804688 1951.95019531 688.799804688 2013.90039062 631.049804688 c 128,-1,89
 2075.84960938 573.299804688 2075.84960938 573.299804688 2082.15039062 478.799804688 c 1,90,-1
 1980.29980469 478.799804688 l 1,91,92
 1975.04980469 533.400390625 1975.04980469 533.400390625 1935.15039062 546.525390625 c 128,-1,93
 1895.25 559.650390625 1895.25 559.650390625 1844.84960938 559.650390625 c 256,94,95
 1794.45019531 559.650390625 1794.45019531 559.650390625 1754.54980469 546.525390625 c 128,-1,96
 1714.65039062 533.400390625 1714.65039062 533.400390625 1709.40039062 478.799804688 c 1,97,-1
 1607.54980469 478.799804688 l 1,84,85
815.849609375 1286.25 m 1,98,99
 821.099609375 1380.75 821.099609375 1380.75 883.049804688 1438.5 c 128,-1,100
 945 1496.25 945 1496.25 1051.04980469 1496.25 c 0,101,102
 1159.20019531 1496.25 1159.20019531 1496.25 1221.67480469 1438.5 c 128,-1,103
 1284.15039062 1380.75 1284.15039062 1380.75 1289.40039062 1286.25 c 1,104,-1
 1187.54980469 1286.25 l 1,105,106
 1182.29980469 1340.84960938 1182.29980469 1340.84960938 1142.40039062 1353.97460938 c 128,-1,107
 1102.5 1367.09960938 1102.5 1367.09960938 1051.04980469 1367.09960938 c 0,108,109
 1000.65039062 1367.09960938 1000.65039062 1367.09960938 961.799804688 1353.97460938 c 128,-1,110
 922.950195312 1340.84960938 922.950195312 1340.84960938 917.700195312 1286.25 c 1,111,-1
 815.849609375 1286.25 l 1,98,99
EndSplineSet
Validated: 1
EndChar
StartChar: uni0490
Encoding: 1168 1168 503
Width: 1277
VWidth: 2150
GlyphClass: 2
Flags: W
AnchorPoint: "Anchor-1" 640.5 0 basechar 0
AnchorPoint: "Anchor-0" 640.5 1862.7 basechar 0
LayerCount: 2
Fore
SplineSet
1236.90039062 1862.70019531 m 1,0,-1
 1236.90039062 1233.75 l 1,1,-1
 551.25 1233.75 l 1,2,-1
 551.25 0 l 1,3,-1
 179.549804688 0 l 1,4,-1
 179.549804688 1535.09960938 l 1,5,-1
 914.549804688 1535.09960938 l 1,6,-1
 914.549804688 1862.70019531 l 1,7,-1
 1236.90039062 1862.70019531 l 1,0,-1
EndSplineSet
Validated: 1
EndChar
